%TF.GenerationSoftware,KiCad,Pcbnew,(5.1.9)-1*%
%TF.CreationDate,2021-02-26T10:07:18-07:00*%
%TF.ProjectId,CapstoneBoard,43617073-746f-46e6-9542-6f6172642e6b,3*%
%TF.SameCoordinates,PX4c4b400PY6bc3e40*%
%TF.FileFunction,Soldermask,Bot*%
%TF.FilePolarity,Negative*%
%FSLAX46Y46*%
G04 Gerber Fmt 4.6, Leading zero omitted, Abs format (unit mm)*
G04 Created by KiCad (PCBNEW (5.1.9)-1) date 2021-02-26 10:07:18*
%MOMM*%
%LPD*%
G01*
G04 APERTURE LIST*
%ADD10R,1.700000X1.700000*%
%ADD11O,1.700000X1.700000*%
%ADD12C,5.000000*%
%ADD13C,6.000000*%
%ADD14C,1.270000*%
%ADD15C,2.540000*%
G04 APERTURE END LIST*
D10*
%TO.C,J3*%
X72490000Y32395000D03*
D11*
X72490000Y34935000D03*
X72490000Y37475000D03*
X72490000Y40015000D03*
%TD*%
D10*
%TO.C,J2*%
X90270000Y29855000D03*
D11*
X90270000Y32395000D03*
X90270000Y34935000D03*
X90270000Y37475000D03*
X90270000Y40015000D03*
X90270000Y42555000D03*
%TD*%
%TO.C,J11*%
X77343000Y51435000D03*
X79883000Y51435000D03*
X82423000Y51435000D03*
X84963000Y51435000D03*
X87503000Y51435000D03*
D10*
X90043000Y51435000D03*
%TD*%
D11*
%TO.C,J12*%
X66675000Y36258500D03*
D10*
X66675000Y38798500D03*
%TD*%
%TO.C,J5*%
X48577500Y16446500D03*
D11*
X51117500Y16446500D03*
X53657500Y16446500D03*
X56197500Y16446500D03*
X58737500Y16446500D03*
X61277500Y16446500D03*
X63817500Y16446500D03*
X66357500Y16446500D03*
%TD*%
%TO.C,J8*%
X66357500Y44069000D03*
X63817500Y44069000D03*
X61277500Y44069000D03*
X58737500Y44069000D03*
X56197500Y44069000D03*
X53657500Y44069000D03*
X51117500Y44069000D03*
D10*
X48577500Y44069000D03*
%TD*%
D11*
%TO.C,J4*%
X90043000Y2002000D03*
X87503000Y2002000D03*
X84963000Y2002000D03*
X82423000Y2002000D03*
X79883000Y2002000D03*
X77343000Y2002000D03*
X74803000Y2002000D03*
X72263000Y2002000D03*
X69723000Y2002000D03*
X67183000Y2002000D03*
X64643000Y2002000D03*
X62103000Y2002000D03*
X59563000Y2002000D03*
D10*
X57023000Y2002000D03*
%TD*%
D12*
%TO.C,H7*%
X89000000Y9715500D03*
%TD*%
%TO.C,H6*%
X5000000Y55000000D03*
%TD*%
D13*
%TO.C,J1*%
X14224000Y5842000D03*
G36*
G01*
X24424000Y7342000D02*
X24424000Y4342000D01*
G75*
G02*
X22924000Y2842000I-1500000J0D01*
G01*
X19924000Y2842000D01*
G75*
G02*
X18424000Y4342000I0J1500000D01*
G01*
X18424000Y7342000D01*
G75*
G02*
X19924000Y8842000I1500000J0D01*
G01*
X22924000Y8842000D01*
G75*
G02*
X24424000Y7342000I0J-1500000D01*
G01*
G37*
%TD*%
D11*
%TO.C,J6*%
X34417000Y2032000D03*
X36957000Y2032000D03*
X39497000Y2032000D03*
X42037000Y2032000D03*
X44577000Y2032000D03*
X47117000Y2032000D03*
D10*
X49657000Y2032000D03*
%TD*%
%TO.C,J7*%
X24267000Y57628000D03*
D11*
X21727000Y57628000D03*
X19187000Y57628000D03*
X16647000Y57628000D03*
X14107000Y57628000D03*
X11567000Y57628000D03*
%TD*%
D12*
%TO.C,H1*%
X89000000Y47000000D03*
%TD*%
%TO.C,H2*%
X73760000Y25410000D03*
%TD*%
%TO.C,H3*%
X89000000Y25410000D03*
%TD*%
%TO.C,H4*%
X73760000Y47000000D03*
%TD*%
%TO.C,H5*%
X5000000Y10000000D03*
%TD*%
D10*
%TO.C,J9*%
X41793000Y55118000D03*
D11*
X41793000Y57658000D03*
X44333000Y55118000D03*
X44333000Y57658000D03*
X46873000Y55118000D03*
X46873000Y57658000D03*
X49413000Y55118000D03*
X49413000Y57658000D03*
X51953000Y55118000D03*
X51953000Y57658000D03*
X54493000Y55118000D03*
X54493000Y57658000D03*
X57033000Y55118000D03*
X57033000Y57658000D03*
X59573000Y55118000D03*
X59573000Y57658000D03*
X62113000Y55118000D03*
X62113000Y57658000D03*
X64653000Y55118000D03*
X64653000Y57658000D03*
X67193000Y55118000D03*
X67193000Y57658000D03*
X69733000Y55118000D03*
X69733000Y57658000D03*
X72273000Y55118000D03*
X72273000Y57658000D03*
X74813000Y55118000D03*
X74813000Y57658000D03*
X77353000Y55118000D03*
X77353000Y57658000D03*
X79893000Y55118000D03*
X79893000Y57658000D03*
X82433000Y55118000D03*
X82433000Y57658000D03*
X84973000Y55118000D03*
X84973000Y57658000D03*
X87513000Y55118000D03*
X87513000Y57658000D03*
X90053000Y55118000D03*
X90053000Y57658000D03*
%TD*%
D14*
X38354000Y27940000D03*
D15*
X38608000Y42036996D03*
D14*
X42926000Y12954000D03*
X72644000Y19558000D03*
X34798000Y18923000D03*
X34163000Y47117000D03*
X43942000Y23622000D03*
X53530499Y36258501D03*
X46862995Y24129995D03*
X53403500Y38227000D03*
X79946500Y45720002D03*
X78511400Y48742600D03*
M02*
