%TF.GenerationSoftware,KiCad,Pcbnew,(5.1.9)-1*%
%TF.CreationDate,2021-02-26T10:07:17-07:00*%
%TF.ProjectId,CapstoneBoard,43617073-746f-46e6-9542-6f6172642e6b,3*%
%TF.SameCoordinates,PX4c4b400PY6bc3e40*%
%TF.FileFunction,Paste,Top*%
%TF.FilePolarity,Positive*%
%FSLAX46Y46*%
G04 Gerber Fmt 4.6, Leading zero omitted, Abs format (unit mm)*
G04 Created by KiCad (PCBNEW (5.1.9)-1) date 2021-02-26 10:07:17*
%MOMM*%
%LPD*%
G01*
G04 APERTURE LIST*
%ADD10R,0.410000X1.600000*%
%ADD11C,0.100000*%
%ADD12R,1.500000X1.200000*%
G04 APERTURE END LIST*
%TO.C,U3*%
G36*
G01*
X80506600Y31258800D02*
X80306600Y31258800D01*
G75*
G02*
X80206600Y31358800I0J100000D01*
G01*
X80206600Y32633800D01*
G75*
G02*
X80306600Y32733800I100000J0D01*
G01*
X80506600Y32733800D01*
G75*
G02*
X80606600Y32633800I0J-100000D01*
G01*
X80606600Y31358800D01*
G75*
G02*
X80506600Y31258800I-100000J0D01*
G01*
G37*
G36*
G01*
X81156600Y31258800D02*
X80956600Y31258800D01*
G75*
G02*
X80856600Y31358800I0J100000D01*
G01*
X80856600Y32633800D01*
G75*
G02*
X80956600Y32733800I100000J0D01*
G01*
X81156600Y32733800D01*
G75*
G02*
X81256600Y32633800I0J-100000D01*
G01*
X81256600Y31358800D01*
G75*
G02*
X81156600Y31258800I-100000J0D01*
G01*
G37*
G36*
G01*
X81806600Y31258800D02*
X81606600Y31258800D01*
G75*
G02*
X81506600Y31358800I0J100000D01*
G01*
X81506600Y32633800D01*
G75*
G02*
X81606600Y32733800I100000J0D01*
G01*
X81806600Y32733800D01*
G75*
G02*
X81906600Y32633800I0J-100000D01*
G01*
X81906600Y31358800D01*
G75*
G02*
X81806600Y31258800I-100000J0D01*
G01*
G37*
G36*
G01*
X82456600Y31258800D02*
X82256600Y31258800D01*
G75*
G02*
X82156600Y31358800I0J100000D01*
G01*
X82156600Y32633800D01*
G75*
G02*
X82256600Y32733800I100000J0D01*
G01*
X82456600Y32733800D01*
G75*
G02*
X82556600Y32633800I0J-100000D01*
G01*
X82556600Y31358800D01*
G75*
G02*
X82456600Y31258800I-100000J0D01*
G01*
G37*
G36*
G01*
X82456600Y25533800D02*
X82256600Y25533800D01*
G75*
G02*
X82156600Y25633800I0J100000D01*
G01*
X82156600Y26908800D01*
G75*
G02*
X82256600Y27008800I100000J0D01*
G01*
X82456600Y27008800D01*
G75*
G02*
X82556600Y26908800I0J-100000D01*
G01*
X82556600Y25633800D01*
G75*
G02*
X82456600Y25533800I-100000J0D01*
G01*
G37*
G36*
G01*
X81806600Y25533800D02*
X81606600Y25533800D01*
G75*
G02*
X81506600Y25633800I0J100000D01*
G01*
X81506600Y26908800D01*
G75*
G02*
X81606600Y27008800I100000J0D01*
G01*
X81806600Y27008800D01*
G75*
G02*
X81906600Y26908800I0J-100000D01*
G01*
X81906600Y25633800D01*
G75*
G02*
X81806600Y25533800I-100000J0D01*
G01*
G37*
G36*
G01*
X81156600Y25533800D02*
X80956600Y25533800D01*
G75*
G02*
X80856600Y25633800I0J100000D01*
G01*
X80856600Y26908800D01*
G75*
G02*
X80956600Y27008800I100000J0D01*
G01*
X81156600Y27008800D01*
G75*
G02*
X81256600Y26908800I0J-100000D01*
G01*
X81256600Y25633800D01*
G75*
G02*
X81156600Y25533800I-100000J0D01*
G01*
G37*
G36*
G01*
X80506600Y25533800D02*
X80306600Y25533800D01*
G75*
G02*
X80206600Y25633800I0J100000D01*
G01*
X80206600Y26908800D01*
G75*
G02*
X80306600Y27008800I100000J0D01*
G01*
X80506600Y27008800D01*
G75*
G02*
X80606600Y26908800I0J-100000D01*
G01*
X80606600Y25633800D01*
G75*
G02*
X80506600Y25533800I-100000J0D01*
G01*
G37*
%TD*%
%TO.C,R13*%
G36*
G01*
X81850000Y38125001D02*
X81850000Y36874999D01*
G75*
G02*
X81600001Y36625000I-249999J0D01*
G01*
X80799999Y36625000D01*
G75*
G02*
X80550000Y36874999I0J249999D01*
G01*
X80550000Y38125001D01*
G75*
G02*
X80799999Y38375000I249999J0D01*
G01*
X81600001Y38375000D01*
G75*
G02*
X81850000Y38125001I0J-249999D01*
G01*
G37*
G36*
G01*
X84950000Y38125001D02*
X84950000Y36874999D01*
G75*
G02*
X84700001Y36625000I-249999J0D01*
G01*
X83899999Y36625000D01*
G75*
G02*
X83650000Y36874999I0J249999D01*
G01*
X83650000Y38125001D01*
G75*
G02*
X83899999Y38375000I249999J0D01*
G01*
X84700001Y38375000D01*
G75*
G02*
X84950000Y38125001I0J-249999D01*
G01*
G37*
%TD*%
%TO.C,R12*%
G36*
G01*
X81497000Y35423001D02*
X81497000Y34172999D01*
G75*
G02*
X81247001Y33923000I-249999J0D01*
G01*
X80446999Y33923000D01*
G75*
G02*
X80197000Y34172999I0J249999D01*
G01*
X80197000Y35423001D01*
G75*
G02*
X80446999Y35673000I249999J0D01*
G01*
X81247001Y35673000D01*
G75*
G02*
X81497000Y35423001I0J-249999D01*
G01*
G37*
G36*
G01*
X84597000Y35423001D02*
X84597000Y34172999D01*
G75*
G02*
X84347001Y33923000I-249999J0D01*
G01*
X83546999Y33923000D01*
G75*
G02*
X83297000Y34172999I0J249999D01*
G01*
X83297000Y35423001D01*
G75*
G02*
X83546999Y35673000I249999J0D01*
G01*
X84347001Y35673000D01*
G75*
G02*
X84597000Y35423001I0J-249999D01*
G01*
G37*
%TD*%
%TO.C,R1*%
G36*
G01*
X86527801Y31507000D02*
X85277799Y31507000D01*
G75*
G02*
X85027800Y31756999I0J249999D01*
G01*
X85027800Y32557001D01*
G75*
G02*
X85277799Y32807000I249999J0D01*
G01*
X86527801Y32807000D01*
G75*
G02*
X86777800Y32557001I0J-249999D01*
G01*
X86777800Y31756999D01*
G75*
G02*
X86527801Y31507000I-249999J0D01*
G01*
G37*
G36*
G01*
X86527801Y28407000D02*
X85277799Y28407000D01*
G75*
G02*
X85027800Y28656999I0J249999D01*
G01*
X85027800Y29457001D01*
G75*
G02*
X85277799Y29707000I249999J0D01*
G01*
X86527801Y29707000D01*
G75*
G02*
X86777800Y29457001I0J-249999D01*
G01*
X86777800Y28656999D01*
G75*
G02*
X86527801Y28407000I-249999J0D01*
G01*
G37*
%TD*%
%TO.C,C11*%
G36*
G01*
X81300000Y22850003D02*
X81300000Y21549997D01*
G75*
G02*
X81050003Y21300000I-249997J0D01*
G01*
X80224997Y21300000D01*
G75*
G02*
X79975000Y21549997I0J249997D01*
G01*
X79975000Y22850003D01*
G75*
G02*
X80224997Y23100000I249997J0D01*
G01*
X81050003Y23100000D01*
G75*
G02*
X81300000Y22850003I0J-249997D01*
G01*
G37*
G36*
G01*
X84425000Y22850003D02*
X84425000Y21549997D01*
G75*
G02*
X84175003Y21300000I-249997J0D01*
G01*
X83349997Y21300000D01*
G75*
G02*
X83100000Y21549997I0J249997D01*
G01*
X83100000Y22850003D01*
G75*
G02*
X83349997Y23100000I249997J0D01*
G01*
X84175003Y23100000D01*
G75*
G02*
X84425000Y22850003I0J-249997D01*
G01*
G37*
%TD*%
D10*
%TO.C,U2*%
X75438000Y14308300D03*
X74803000Y14308300D03*
X75438000Y8999700D03*
X74803000Y8999700D03*
X73533000Y14308300D03*
X74168000Y14308300D03*
X74168000Y8999700D03*
X73533000Y8999700D03*
X70993000Y8999700D03*
X71628000Y8999700D03*
X72263000Y8999700D03*
X72898000Y8999700D03*
X76073000Y8999700D03*
X76708000Y8999700D03*
X77343000Y8999700D03*
X77978000Y8999700D03*
X77978000Y14308300D03*
X77343000Y14308300D03*
X76708000Y14308300D03*
X76073000Y14308300D03*
X72898000Y14308300D03*
X72263000Y14308300D03*
X71628000Y14308300D03*
X70993000Y14308300D03*
%TD*%
%TO.C,U1*%
G36*
G01*
X28828000Y34153000D02*
X28253000Y34153000D01*
G75*
G02*
X28203000Y34203000I0J50000D01*
G01*
X28203000Y34353000D01*
G75*
G02*
X28253000Y34403000I50000J0D01*
G01*
X28828000Y34403000D01*
G75*
G02*
X28878000Y34353000I0J-50000D01*
G01*
X28878000Y34203000D01*
G75*
G02*
X28828000Y34153000I-50000J0D01*
G01*
G37*
G36*
G01*
X28765500Y33353000D02*
X28240500Y33353000D01*
G75*
G02*
X28190500Y33403000I0J50000D01*
G01*
X28190500Y33553000D01*
G75*
G02*
X28240500Y33603000I50000J0D01*
G01*
X28765500Y33603000D01*
G75*
G02*
X28815500Y33553000I0J-50000D01*
G01*
X28815500Y33403000D01*
G75*
G02*
X28765500Y33353000I-50000J0D01*
G01*
G37*
G36*
G01*
X31228000Y34828000D02*
X31078000Y34828000D01*
G75*
G02*
X31028000Y34878000I0J50000D01*
G01*
X31028000Y35378000D01*
G75*
G02*
X31078000Y35428000I50000J0D01*
G01*
X31228000Y35428000D01*
G75*
G02*
X31278000Y35378000I0J-50000D01*
G01*
X31278000Y34878000D01*
G75*
G02*
X31228000Y34828000I-50000J0D01*
G01*
G37*
G36*
G01*
X30728000Y34703000D02*
X30578000Y34703000D01*
G75*
G02*
X30528000Y34753000I0J50000D01*
G01*
X30528000Y35378000D01*
G75*
G02*
X30578000Y35428000I50000J0D01*
G01*
X30728000Y35428000D01*
G75*
G02*
X30778000Y35378000I0J-50000D01*
G01*
X30778000Y34753000D01*
G75*
G02*
X30728000Y34703000I-50000J0D01*
G01*
G37*
G36*
G01*
X28765500Y32853000D02*
X28240500Y32853000D01*
G75*
G02*
X28190500Y32903000I0J50000D01*
G01*
X28190500Y33053000D01*
G75*
G02*
X28240500Y33103000I50000J0D01*
G01*
X28765500Y33103000D01*
G75*
G02*
X28815500Y33053000I0J-50000D01*
G01*
X28815500Y32903000D01*
G75*
G02*
X28765500Y32853000I-50000J0D01*
G01*
G37*
G36*
G01*
X28828000Y32053000D02*
X28253000Y32053000D01*
G75*
G02*
X28203000Y32103000I0J50000D01*
G01*
X28203000Y32253000D01*
G75*
G02*
X28253000Y32303000I50000J0D01*
G01*
X28828000Y32303000D01*
G75*
G02*
X28878000Y32253000I0J-50000D01*
G01*
X28878000Y32103000D01*
G75*
G02*
X28828000Y32053000I-50000J0D01*
G01*
G37*
G36*
G01*
X30790500Y33040500D02*
X29515500Y33040500D01*
G75*
G02*
X29440500Y33115500I0J75000D01*
G01*
X29440500Y33340500D01*
G75*
G02*
X29515500Y33415500I75000J0D01*
G01*
X30790500Y33415500D01*
G75*
G02*
X30865500Y33340500I0J-75000D01*
G01*
X30865500Y33115500D01*
G75*
G02*
X30790500Y33040500I-75000J0D01*
G01*
G37*
G36*
G01*
X30790500Y32415500D02*
X29515500Y32415500D01*
G75*
G02*
X29440500Y32490500I0J75000D01*
G01*
X29440500Y32715500D01*
G75*
G02*
X29515500Y32790500I75000J0D01*
G01*
X30790500Y32790500D01*
G75*
G02*
X30865500Y32715500I0J-75000D01*
G01*
X30865500Y32490500D01*
G75*
G02*
X30790500Y32415500I-75000J0D01*
G01*
G37*
G36*
G01*
X30790500Y33665500D02*
X29515500Y33665500D01*
G75*
G02*
X29440500Y33740500I0J75000D01*
G01*
X29440500Y33965500D01*
G75*
G02*
X29515500Y34040500I75000J0D01*
G01*
X30790500Y34040500D01*
G75*
G02*
X30865500Y33965500I0J-75000D01*
G01*
X30865500Y33740500D01*
G75*
G02*
X30790500Y33665500I-75000J0D01*
G01*
G37*
G36*
G01*
X30228000Y34703000D02*
X30078000Y34703000D01*
G75*
G02*
X30028000Y34753000I0J50000D01*
G01*
X30028000Y35378000D01*
G75*
G02*
X30078000Y35428000I50000J0D01*
G01*
X30228000Y35428000D01*
G75*
G02*
X30278000Y35378000I0J-50000D01*
G01*
X30278000Y34753000D01*
G75*
G02*
X30228000Y34703000I-50000J0D01*
G01*
G37*
G36*
G01*
X29728000Y34703000D02*
X29578000Y34703000D01*
G75*
G02*
X29528000Y34753000I0J50000D01*
G01*
X29528000Y35378000D01*
G75*
G02*
X29578000Y35428000I50000J0D01*
G01*
X29728000Y35428000D01*
G75*
G02*
X29778000Y35378000I0J-50000D01*
G01*
X29778000Y34753000D01*
G75*
G02*
X29728000Y34703000I-50000J0D01*
G01*
G37*
G36*
G01*
X29228000Y34828000D02*
X29078000Y34828000D01*
G75*
G02*
X29028000Y34878000I0J50000D01*
G01*
X29028000Y35378000D01*
G75*
G02*
X29078000Y35428000I50000J0D01*
G01*
X29228000Y35428000D01*
G75*
G02*
X29278000Y35378000I0J-50000D01*
G01*
X29278000Y34878000D01*
G75*
G02*
X29228000Y34828000I-50000J0D01*
G01*
G37*
G36*
G01*
X29228000Y31053000D02*
X29078000Y31053000D01*
G75*
G02*
X29028000Y31103000I0J50000D01*
G01*
X29028000Y31603000D01*
G75*
G02*
X29078000Y31653000I50000J0D01*
G01*
X29228000Y31653000D01*
G75*
G02*
X29278000Y31603000I0J-50000D01*
G01*
X29278000Y31103000D01*
G75*
G02*
X29228000Y31053000I-50000J0D01*
G01*
G37*
G36*
G01*
X29728000Y31028000D02*
X29578000Y31028000D01*
G75*
G02*
X29528000Y31078000I0J50000D01*
G01*
X29528000Y31703000D01*
G75*
G02*
X29578000Y31753000I50000J0D01*
G01*
X29728000Y31753000D01*
G75*
G02*
X29778000Y31703000I0J-50000D01*
G01*
X29778000Y31078000D01*
G75*
G02*
X29728000Y31028000I-50000J0D01*
G01*
G37*
G36*
G01*
X30228000Y31028000D02*
X30078000Y31028000D01*
G75*
G02*
X30028000Y31078000I0J50000D01*
G01*
X30028000Y31703000D01*
G75*
G02*
X30078000Y31753000I50000J0D01*
G01*
X30228000Y31753000D01*
G75*
G02*
X30278000Y31703000I0J-50000D01*
G01*
X30278000Y31078000D01*
G75*
G02*
X30228000Y31028000I-50000J0D01*
G01*
G37*
G36*
G01*
X30728000Y31028000D02*
X30578000Y31028000D01*
G75*
G02*
X30528000Y31078000I0J50000D01*
G01*
X30528000Y31703000D01*
G75*
G02*
X30578000Y31753000I50000J0D01*
G01*
X30728000Y31753000D01*
G75*
G02*
X30778000Y31703000I0J-50000D01*
G01*
X30778000Y31078000D01*
G75*
G02*
X30728000Y31028000I-50000J0D01*
G01*
G37*
G36*
G01*
X31228000Y31053000D02*
X31078000Y31053000D01*
G75*
G02*
X31028000Y31103000I0J50000D01*
G01*
X31028000Y31603000D01*
G75*
G02*
X31078000Y31653000I50000J0D01*
G01*
X31228000Y31653000D01*
G75*
G02*
X31278000Y31603000I0J-50000D01*
G01*
X31278000Y31103000D01*
G75*
G02*
X31228000Y31053000I-50000J0D01*
G01*
G37*
G36*
G01*
X32053000Y32978000D02*
X31528000Y32978000D01*
G75*
G02*
X31478000Y33028000I0J50000D01*
G01*
X31478000Y33178000D01*
G75*
G02*
X31528000Y33228000I50000J0D01*
G01*
X32053000Y33228000D01*
G75*
G02*
X32103000Y33178000I0J-50000D01*
G01*
X32103000Y33028000D01*
G75*
G02*
X32053000Y32978000I-50000J0D01*
G01*
G37*
G36*
G01*
X32053000Y32478000D02*
X31528000Y32478000D01*
G75*
G02*
X31478000Y32528000I0J50000D01*
G01*
X31478000Y32678000D01*
G75*
G02*
X31528000Y32728000I50000J0D01*
G01*
X32053000Y32728000D01*
G75*
G02*
X32103000Y32678000I0J-50000D01*
G01*
X32103000Y32528000D01*
G75*
G02*
X32053000Y32478000I-50000J0D01*
G01*
G37*
G36*
G01*
X32053000Y31978000D02*
X31528000Y31978000D01*
G75*
G02*
X31478000Y32028000I0J50000D01*
G01*
X31478000Y32178000D01*
G75*
G02*
X31528000Y32228000I50000J0D01*
G01*
X32053000Y32228000D01*
G75*
G02*
X32103000Y32178000I0J-50000D01*
G01*
X32103000Y32028000D01*
G75*
G02*
X32053000Y31978000I-50000J0D01*
G01*
G37*
G36*
G01*
X32053000Y33728000D02*
X31528000Y33728000D01*
G75*
G02*
X31478000Y33778000I0J50000D01*
G01*
X31478000Y33928000D01*
G75*
G02*
X31528000Y33978000I50000J0D01*
G01*
X32053000Y33978000D01*
G75*
G02*
X32103000Y33928000I0J-50000D01*
G01*
X32103000Y33778000D01*
G75*
G02*
X32053000Y33728000I-50000J0D01*
G01*
G37*
G36*
G01*
X32053000Y34228000D02*
X31528000Y34228000D01*
G75*
G02*
X31478000Y34278000I0J50000D01*
G01*
X31478000Y34428000D01*
G75*
G02*
X31528000Y34478000I50000J0D01*
G01*
X32053000Y34478000D01*
G75*
G02*
X32103000Y34428000I0J-50000D01*
G01*
X32103000Y34278000D01*
G75*
G02*
X32053000Y34228000I-50000J0D01*
G01*
G37*
D11*
G36*
X28198007Y31753180D02*
G01*
X28198007Y31753244D01*
X28198246Y31758123D01*
X28198249Y31758193D01*
X28198280Y31758469D01*
X28198294Y31758608D01*
X28198303Y31758669D01*
X28198304Y31758678D01*
X28198305Y31758683D01*
X28199006Y31763440D01*
X28199017Y31763510D01*
X28199073Y31763774D01*
X28199102Y31763921D01*
X28199115Y31763975D01*
X28199118Y31763987D01*
X28199120Y31763994D01*
X28200280Y31768645D01*
X28200283Y31768660D01*
X28200286Y31768672D01*
X28200300Y31768729D01*
X28200371Y31768952D01*
X28200424Y31769128D01*
X28202063Y31773730D01*
X28202086Y31773796D01*
X28202179Y31774012D01*
X28202249Y31774182D01*
X28204329Y31778602D01*
X28204359Y31778665D01*
X28204465Y31778858D01*
X28204558Y31779033D01*
X28207059Y31783229D01*
X28207095Y31783289D01*
X28207233Y31783490D01*
X28207330Y31783636D01*
X28210228Y31787568D01*
X28210270Y31787624D01*
X28210430Y31787815D01*
X28210538Y31787947D01*
X28213807Y31791577D01*
X28213853Y31791629D01*
X28214011Y31791783D01*
X28214150Y31791923D01*
X28217757Y31795217D01*
X28217809Y31795264D01*
X28217985Y31795405D01*
X28218134Y31795529D01*
X28222046Y31798455D01*
X28222102Y31798497D01*
X28222304Y31798629D01*
X28222450Y31798727D01*
X28226628Y31801259D01*
X28226688Y31801295D01*
X28226908Y31801410D01*
X28227058Y31801491D01*
X28231463Y31803602D01*
X28231527Y31803632D01*
X28231757Y31803725D01*
X28231914Y31803791D01*
X28236505Y31805463D01*
X28236571Y31805487D01*
X28236807Y31805556D01*
X28236971Y31805607D01*
X28241703Y31806822D01*
X28241771Y31806839D01*
X28241931Y31806869D01*
X28242181Y31806920D01*
X28247009Y31807667D01*
X28247078Y31807678D01*
X28247293Y31807697D01*
X28247495Y31807718D01*
X28252372Y31807991D01*
X28252442Y31807995D01*
X28252543Y31807994D01*
X28252637Y31807999D01*
X28252986Y31808000D01*
X28728070Y31808000D01*
X28728158Y31807994D01*
X28728244Y31807994D01*
X28733124Y31807755D01*
X28733194Y31807752D01*
X28733464Y31807721D01*
X28733609Y31807707D01*
X28738442Y31806994D01*
X28738511Y31806984D01*
X28738751Y31806933D01*
X28738922Y31806899D01*
X28743662Y31805717D01*
X28743730Y31805700D01*
X28743961Y31805627D01*
X28744130Y31805576D01*
X28748732Y31803937D01*
X28748797Y31803914D01*
X28749021Y31803818D01*
X28749183Y31803751D01*
X28753603Y31801671D01*
X28753666Y31801641D01*
X28753863Y31801533D01*
X28754034Y31801442D01*
X28758230Y31798941D01*
X28758290Y31798905D01*
X28758483Y31798773D01*
X28758638Y31798670D01*
X28762569Y31795771D01*
X28762625Y31795730D01*
X28762843Y31795547D01*
X28762946Y31795463D01*
X28762987Y31795426D01*
X28762999Y31795416D01*
X28763005Y31795410D01*
X28766577Y31792195D01*
X28766629Y31792149D01*
X28766800Y31791974D01*
X28766925Y31791850D01*
X28770219Y31788242D01*
X28770266Y31788191D01*
X28770421Y31787997D01*
X28770530Y31787866D01*
X28773456Y31783955D01*
X28773497Y31783899D01*
X28773610Y31783726D01*
X28773729Y31783549D01*
X28776259Y31779370D01*
X28776295Y31779311D01*
X28776398Y31779113D01*
X28776491Y31778942D01*
X28778602Y31774537D01*
X28778632Y31774474D01*
X28778728Y31774236D01*
X28778791Y31774086D01*
X28778812Y31774030D01*
X28778815Y31774021D01*
X28778816Y31774016D01*
X28780459Y31769502D01*
X28780462Y31769496D01*
X28780464Y31769489D01*
X28780486Y31769429D01*
X28780546Y31769224D01*
X28780607Y31769029D01*
X28781822Y31764298D01*
X28781839Y31764230D01*
X28781882Y31764005D01*
X28781920Y31763818D01*
X28782666Y31758995D01*
X28782667Y31758992D01*
X28782667Y31758989D01*
X28782678Y31758921D01*
X28782700Y31758675D01*
X28782718Y31758506D01*
X28782991Y31753628D01*
X28782995Y31753559D01*
X28782994Y31753457D01*
X28782999Y31753363D01*
X28783000Y31753014D01*
X28783000Y31015430D01*
X28782994Y31015336D01*
X28782994Y31015256D01*
X28782755Y31010376D01*
X28782752Y31010306D01*
X28782721Y31010036D01*
X28782707Y31009891D01*
X28782698Y31009827D01*
X28782697Y31009822D01*
X28782696Y31009819D01*
X28781994Y31005060D01*
X28781994Y31005057D01*
X28781993Y31005054D01*
X28781984Y31004989D01*
X28781929Y31004729D01*
X28781899Y31004578D01*
X28781886Y31004524D01*
X28781883Y31004512D01*
X28781881Y31004505D01*
X28780717Y30999838D01*
X28780700Y30999770D01*
X28780626Y30999535D01*
X28780576Y30999370D01*
X28778937Y30994768D01*
X28778914Y30994703D01*
X28778815Y30994473D01*
X28778751Y30994317D01*
X28776671Y30989897D01*
X28776641Y30989834D01*
X28776521Y30989615D01*
X28776442Y30989466D01*
X28773941Y30985270D01*
X28773905Y30985210D01*
X28773764Y30985004D01*
X28773670Y30984862D01*
X28770771Y30980931D01*
X28770730Y30980875D01*
X28770547Y30980657D01*
X28770463Y30980554D01*
X28770426Y30980513D01*
X28770416Y30980501D01*
X28770410Y30980495D01*
X28767195Y30976923D01*
X28767149Y30976871D01*
X28766956Y30976682D01*
X28766850Y30976575D01*
X28763242Y30973281D01*
X28763191Y30973234D01*
X28762988Y30973071D01*
X28762866Y30972970D01*
X28758955Y30970044D01*
X28758899Y30970003D01*
X28758693Y30969868D01*
X28758549Y30969771D01*
X28754371Y30967242D01*
X28754369Y30967240D01*
X28754311Y30967205D01*
X28754113Y30967102D01*
X28753942Y30967009D01*
X28749537Y30964898D01*
X28749474Y30964868D01*
X28749236Y30964772D01*
X28749086Y30964709D01*
X28744495Y30963038D01*
X28744494Y30963038D01*
X28744489Y30963036D01*
X28744429Y30963014D01*
X28744195Y30962945D01*
X28744029Y30962893D01*
X28739298Y30961678D01*
X28739230Y30961661D01*
X28738988Y30961615D01*
X28738818Y30961580D01*
X28733991Y30960833D01*
X28733921Y30960822D01*
X28733667Y30960799D01*
X28733506Y30960782D01*
X28728628Y30960509D01*
X28728559Y30960505D01*
X28728457Y30960506D01*
X28728363Y30960501D01*
X28728014Y30960500D01*
X28602930Y30960500D01*
X28602836Y30960506D01*
X28602755Y30960506D01*
X28597876Y30960745D01*
X28597806Y30960748D01*
X28597530Y30960779D01*
X28597391Y30960793D01*
X28592559Y30961505D01*
X28592489Y30961516D01*
X28592225Y30961572D01*
X28592078Y30961601D01*
X28587338Y30962783D01*
X28587270Y30962799D01*
X28586970Y30962894D01*
X28586870Y30962924D01*
X28582269Y30964563D01*
X28582203Y30964586D01*
X28581976Y30964683D01*
X28581817Y30964749D01*
X28577397Y30966829D01*
X28577334Y30966859D01*
X28577127Y30966973D01*
X28576966Y30967058D01*
X28572770Y30969559D01*
X28572710Y30969595D01*
X28572517Y30969727D01*
X28572362Y30969830D01*
X28568432Y30972729D01*
X28568375Y30972770D01*
X28568166Y30972946D01*
X28568054Y30973037D01*
X28564423Y30976305D01*
X28564371Y30976351D01*
X28564198Y30976528D01*
X28564075Y30976650D01*
X28560782Y30980257D01*
X28560735Y30980309D01*
X28560599Y30980478D01*
X28560470Y30980634D01*
X28557545Y30984544D01*
X28557503Y30984600D01*
X28557362Y30984816D01*
X28557271Y30984951D01*
X28554741Y30989129D01*
X28554705Y30989189D01*
X28554602Y30989387D01*
X28554509Y30989558D01*
X28552398Y30993963D01*
X28552368Y30994027D01*
X28552270Y30994269D01*
X28552209Y30994414D01*
X28552188Y30994471D01*
X28552185Y30994479D01*
X28552184Y30994484D01*
X28550537Y30999005D01*
X28550513Y30999071D01*
X28550441Y30999317D01*
X28550393Y30999471D01*
X28549178Y31004203D01*
X28549161Y31004271D01*
X28549122Y31004474D01*
X28549080Y31004681D01*
X28548333Y31009509D01*
X28548322Y31009578D01*
X28548298Y31009839D01*
X28548282Y31009995D01*
X28548278Y31010060D01*
X28548278Y31010066D01*
X28548009Y31014872D01*
X28548005Y31014942D01*
X28548006Y31015043D01*
X28548001Y31015137D01*
X28548000Y31015486D01*
X28548000Y31398000D01*
X28252930Y31398000D01*
X28252836Y31398006D01*
X28252757Y31398006D01*
X28247878Y31398245D01*
X28247808Y31398248D01*
X28247495Y31398283D01*
X28247393Y31398293D01*
X28242561Y31399005D01*
X28242491Y31399016D01*
X28242227Y31399072D01*
X28242080Y31399101D01*
X28237356Y31400279D01*
X28237341Y31400282D01*
X28237329Y31400285D01*
X28237272Y31400299D01*
X28237039Y31400373D01*
X28236873Y31400423D01*
X28232271Y31402062D01*
X28232205Y31402085D01*
X28231979Y31402182D01*
X28231819Y31402248D01*
X28227399Y31404328D01*
X28227336Y31404358D01*
X28227121Y31404476D01*
X28226967Y31404558D01*
X28222772Y31407059D01*
X28222711Y31407095D01*
X28222469Y31407261D01*
X28222366Y31407329D01*
X28218433Y31410227D01*
X28218377Y31410269D01*
X28218190Y31410426D01*
X28218055Y31410536D01*
X28214423Y31413805D01*
X28214371Y31413852D01*
X28214198Y31414029D01*
X28214077Y31414149D01*
X28210783Y31417756D01*
X28210736Y31417808D01*
X28210584Y31417997D01*
X28210471Y31418133D01*
X28207545Y31422045D01*
X28207503Y31422101D01*
X28207362Y31422316D01*
X28207273Y31422449D01*
X28204741Y31426627D01*
X28204705Y31426687D01*
X28204581Y31426924D01*
X28204509Y31427058D01*
X28204483Y31427113D01*
X28204479Y31427120D01*
X28204477Y31427124D01*
X28202402Y31431455D01*
X28202398Y31431463D01*
X28202395Y31431470D01*
X28202367Y31431527D01*
X28202268Y31431773D01*
X28202209Y31431914D01*
X28200538Y31436504D01*
X28200514Y31436570D01*
X28200448Y31436795D01*
X28200393Y31436971D01*
X28199178Y31441702D01*
X28199161Y31441770D01*
X28199118Y31441996D01*
X28199080Y31442181D01*
X28198333Y31447008D01*
X28198322Y31447077D01*
X28198298Y31447338D01*
X28198282Y31447494D01*
X28198278Y31447559D01*
X28198278Y31447565D01*
X28198009Y31452372D01*
X28198005Y31452442D01*
X28198006Y31452543D01*
X28198001Y31452637D01*
X28198000Y31452986D01*
X28198000Y31753070D01*
X28198007Y31753180D01*
G37*
G36*
X31523006Y35440664D02*
G01*
X31523006Y35440745D01*
X31523245Y35445624D01*
X31523248Y35445694D01*
X31523279Y35445970D01*
X31523293Y35446109D01*
X31523302Y35446170D01*
X31523303Y35446179D01*
X31523304Y35446184D01*
X31524005Y35450941D01*
X31524016Y35451011D01*
X31524072Y35451275D01*
X31524101Y35451422D01*
X31524114Y35451476D01*
X31524117Y35451488D01*
X31524119Y35451495D01*
X31525283Y35456162D01*
X31525299Y35456230D01*
X31525383Y35456494D01*
X31525424Y35456630D01*
X31527063Y35461231D01*
X31527086Y35461297D01*
X31527183Y35461524D01*
X31527249Y35461683D01*
X31529329Y35466103D01*
X31529359Y35466166D01*
X31529465Y35466359D01*
X31529558Y35466534D01*
X31532059Y35470730D01*
X31532095Y35470790D01*
X31532209Y35470956D01*
X31532330Y35471138D01*
X31535229Y35475068D01*
X31535270Y35475125D01*
X31535429Y35475314D01*
X31535537Y35475446D01*
X31538805Y35479077D01*
X31538851Y35479129D01*
X31539011Y35479285D01*
X31539150Y35479425D01*
X31542757Y35482718D01*
X31542809Y35482765D01*
X31542971Y35482895D01*
X31543134Y35483030D01*
X31547044Y35485955D01*
X31547100Y35485997D01*
X31547305Y35486131D01*
X31547451Y35486229D01*
X31551629Y35488759D01*
X31551689Y35488795D01*
X31551887Y35488898D01*
X31552058Y35488991D01*
X31556463Y35491102D01*
X31556527Y35491132D01*
X31556754Y35491224D01*
X31556914Y35491291D01*
X31561505Y35492963D01*
X31561571Y35492987D01*
X31561805Y35493055D01*
X31561971Y35493107D01*
X31566703Y35494322D01*
X31566771Y35494339D01*
X31566931Y35494369D01*
X31567181Y35494420D01*
X31572009Y35495167D01*
X31572078Y35495178D01*
X31572291Y35495197D01*
X31572495Y35495218D01*
X31577372Y35495491D01*
X31577442Y35495495D01*
X31577543Y35495494D01*
X31577637Y35495499D01*
X31577986Y35495500D01*
X31703070Y35495500D01*
X31703158Y35495494D01*
X31703244Y35495494D01*
X31708124Y35495255D01*
X31708194Y35495252D01*
X31708464Y35495221D01*
X31708609Y35495207D01*
X31713442Y35494494D01*
X31713511Y35494484D01*
X31713761Y35494431D01*
X31713922Y35494399D01*
X31718662Y35493217D01*
X31718730Y35493200D01*
X31718965Y35493126D01*
X31719130Y35493076D01*
X31723732Y35491437D01*
X31723797Y35491414D01*
X31724024Y35491317D01*
X31724183Y35491251D01*
X31728603Y35489171D01*
X31728666Y35489141D01*
X31728873Y35489027D01*
X31729034Y35488942D01*
X31733230Y35486441D01*
X31733290Y35486405D01*
X31733483Y35486273D01*
X31733638Y35486170D01*
X31737569Y35483271D01*
X31737625Y35483230D01*
X31737843Y35483047D01*
X31737946Y35482963D01*
X31737987Y35482926D01*
X31737999Y35482916D01*
X31738005Y35482910D01*
X31741577Y35479695D01*
X31741629Y35479649D01*
X31741802Y35479472D01*
X31741925Y35479350D01*
X31745219Y35475742D01*
X31745266Y35475691D01*
X31745421Y35475497D01*
X31745530Y35475366D01*
X31748456Y35471455D01*
X31748497Y35471399D01*
X31748610Y35471226D01*
X31748729Y35471049D01*
X31751259Y35466870D01*
X31751295Y35466811D01*
X31751398Y35466613D01*
X31751491Y35466442D01*
X31753602Y35462037D01*
X31753632Y35461974D01*
X31753728Y35461736D01*
X31753791Y35461586D01*
X31753812Y35461530D01*
X31753815Y35461521D01*
X31753816Y35461516D01*
X31755459Y35457002D01*
X31755462Y35456996D01*
X31755464Y35456989D01*
X31755486Y35456929D01*
X31755546Y35456724D01*
X31755607Y35456529D01*
X31756822Y35451798D01*
X31756839Y35451730D01*
X31756882Y35451505D01*
X31756920Y35451318D01*
X31757666Y35446495D01*
X31757667Y35446492D01*
X31757667Y35446489D01*
X31757678Y35446421D01*
X31757700Y35446175D01*
X31757718Y35446006D01*
X31757991Y35441128D01*
X31757995Y35441059D01*
X31757994Y35440957D01*
X31757999Y35440863D01*
X31758000Y35440514D01*
X31758000Y35083000D01*
X32053090Y35083000D01*
X32053169Y35082995D01*
X32053263Y35082995D01*
X32058143Y35082756D01*
X32058213Y35082753D01*
X32058483Y35082722D01*
X32058628Y35082708D01*
X32063461Y35081995D01*
X32063530Y35081985D01*
X32063771Y35081934D01*
X32063941Y35081900D01*
X32068681Y35080718D01*
X32068749Y35080701D01*
X32068981Y35080628D01*
X32069149Y35080577D01*
X32073751Y35078938D01*
X32073816Y35078915D01*
X32074041Y35078818D01*
X32074202Y35078752D01*
X32078622Y35076672D01*
X32078685Y35076642D01*
X32078881Y35076534D01*
X32079053Y35076443D01*
X32083249Y35073942D01*
X32083309Y35073906D01*
X32083504Y35073772D01*
X32083656Y35073671D01*
X32087588Y35070772D01*
X32087644Y35070731D01*
X32087802Y35070598D01*
X32087967Y35070463D01*
X32091597Y35067194D01*
X32091649Y35067148D01*
X32091818Y35066975D01*
X32091943Y35066851D01*
X32095237Y35063244D01*
X32095284Y35063192D01*
X32095420Y35063023D01*
X32095548Y35062868D01*
X32098466Y35058968D01*
X32098476Y35058955D01*
X32098485Y35058942D01*
X32098517Y35058899D01*
X32098625Y35058734D01*
X32098749Y35058550D01*
X32101279Y35054372D01*
X32101315Y35054312D01*
X32101418Y35054114D01*
X32101511Y35053943D01*
X32103618Y35049545D01*
X32103626Y35049529D01*
X32103652Y35049473D01*
X32103735Y35049267D01*
X32103811Y35049087D01*
X32105482Y35044496D01*
X32105506Y35044431D01*
X32105575Y35044196D01*
X32105627Y35044029D01*
X32106842Y35039297D01*
X32106859Y35039230D01*
X32106901Y35039011D01*
X32106940Y35038818D01*
X32107686Y35033996D01*
X32107687Y35033993D01*
X32107687Y35033990D01*
X32107698Y35033922D01*
X32107720Y35033676D01*
X32107738Y35033507D01*
X32108011Y35028628D01*
X32108015Y35028558D01*
X32108014Y35028457D01*
X32108019Y35028363D01*
X32108020Y35028014D01*
X32108020Y34777930D01*
X32108013Y34777820D01*
X32108013Y34777757D01*
X32107774Y34772877D01*
X32107771Y34772807D01*
X32107740Y34772537D01*
X32107726Y34772392D01*
X32107717Y34772328D01*
X32107716Y34772323D01*
X32107715Y34772320D01*
X32107013Y34767561D01*
X32107013Y34767558D01*
X32107012Y34767555D01*
X32107003Y34767490D01*
X32106948Y34767230D01*
X32106918Y34767079D01*
X32106905Y34767025D01*
X32106902Y34767013D01*
X32106900Y34767006D01*
X32105740Y34762355D01*
X32105737Y34762340D01*
X32105733Y34762326D01*
X32105719Y34762271D01*
X32105656Y34762072D01*
X32105596Y34761873D01*
X32103958Y34757270D01*
X32103934Y34757204D01*
X32103824Y34756947D01*
X32103771Y34756818D01*
X32101691Y34752398D01*
X32101661Y34752335D01*
X32101541Y34752116D01*
X32101462Y34751967D01*
X32098961Y34747771D01*
X32098925Y34747711D01*
X32098783Y34747503D01*
X32098690Y34747364D01*
X32095791Y34743432D01*
X32095750Y34743376D01*
X32095578Y34743171D01*
X32095482Y34743053D01*
X32092213Y34739423D01*
X32092167Y34739371D01*
X32091976Y34739184D01*
X32091870Y34739077D01*
X32088263Y34735783D01*
X32088211Y34735736D01*
X32088036Y34735595D01*
X32087886Y34735471D01*
X32083974Y34732545D01*
X32083918Y34732503D01*
X32083703Y34732362D01*
X32083570Y34732273D01*
X32079392Y34729742D01*
X32079332Y34729705D01*
X32079107Y34729587D01*
X32078962Y34729509D01*
X32074557Y34727398D01*
X32074494Y34727368D01*
X32074256Y34727272D01*
X32074106Y34727209D01*
X32069515Y34725538D01*
X32069449Y34725514D01*
X32069244Y34725454D01*
X32069049Y34725393D01*
X32064318Y34724178D01*
X32064250Y34724161D01*
X32064007Y34724115D01*
X32063838Y34724080D01*
X32059011Y34723333D01*
X32058941Y34723322D01*
X32058686Y34723299D01*
X32058526Y34723282D01*
X32053648Y34723009D01*
X32053579Y34723005D01*
X32053477Y34723006D01*
X32053383Y34723001D01*
X32053034Y34723000D01*
X31577930Y34723000D01*
X31577836Y34723006D01*
X31577755Y34723006D01*
X31572876Y34723245D01*
X31572806Y34723248D01*
X31572495Y34723283D01*
X31572391Y34723293D01*
X31567559Y34724005D01*
X31567489Y34724016D01*
X31567181Y34724081D01*
X31567078Y34724101D01*
X31562338Y34725283D01*
X31562270Y34725299D01*
X31561996Y34725386D01*
X31561870Y34725424D01*
X31557269Y34727063D01*
X31557203Y34727086D01*
X31556976Y34727183D01*
X31556817Y34727249D01*
X31552397Y34729329D01*
X31552334Y34729359D01*
X31552122Y34729475D01*
X31551966Y34729558D01*
X31547770Y34732059D01*
X31547710Y34732095D01*
X31547515Y34732229D01*
X31547362Y34732330D01*
X31543432Y34735229D01*
X31543375Y34735270D01*
X31543166Y34735446D01*
X31543054Y34735537D01*
X31539423Y34738805D01*
X31539371Y34738851D01*
X31539198Y34739028D01*
X31539075Y34739150D01*
X31535782Y34742757D01*
X31535735Y34742809D01*
X31535599Y34742978D01*
X31535470Y34743134D01*
X31532545Y34747044D01*
X31532503Y34747100D01*
X31532362Y34747316D01*
X31532271Y34747451D01*
X31529741Y34751629D01*
X31529705Y34751689D01*
X31529602Y34751887D01*
X31529509Y34752058D01*
X31527398Y34756463D01*
X31527368Y34756527D01*
X31527270Y34756769D01*
X31527209Y34756914D01*
X31527188Y34756971D01*
X31527185Y34756979D01*
X31527184Y34756984D01*
X31525537Y34761505D01*
X31525513Y34761571D01*
X31525441Y34761817D01*
X31525393Y34761971D01*
X31524178Y34766703D01*
X31524161Y34766771D01*
X31524122Y34766974D01*
X31524080Y34767181D01*
X31523333Y34772009D01*
X31523322Y34772078D01*
X31523298Y34772339D01*
X31523282Y34772495D01*
X31523278Y34772560D01*
X31523278Y34772566D01*
X31523009Y34777372D01*
X31523005Y34777442D01*
X31523006Y34777543D01*
X31523001Y34777637D01*
X31523000Y34777986D01*
X31523000Y35440570D01*
X31523006Y35440664D01*
G37*
G36*
X31523006Y31678164D02*
G01*
X31523006Y31678245D01*
X31523245Y31683124D01*
X31523248Y31683194D01*
X31523279Y31683470D01*
X31523293Y31683609D01*
X31523302Y31683670D01*
X31523303Y31683679D01*
X31523304Y31683684D01*
X31524005Y31688441D01*
X31524016Y31688511D01*
X31524072Y31688775D01*
X31524101Y31688922D01*
X31524114Y31688976D01*
X31524117Y31688988D01*
X31524119Y31688995D01*
X31525283Y31693662D01*
X31525299Y31693730D01*
X31525383Y31693994D01*
X31525424Y31694130D01*
X31527063Y31698731D01*
X31527086Y31698797D01*
X31527183Y31699024D01*
X31527249Y31699183D01*
X31529329Y31703603D01*
X31529359Y31703666D01*
X31529465Y31703859D01*
X31529558Y31704034D01*
X31532059Y31708230D01*
X31532095Y31708290D01*
X31532209Y31708456D01*
X31532330Y31708638D01*
X31535229Y31712568D01*
X31535270Y31712625D01*
X31535429Y31712814D01*
X31535537Y31712946D01*
X31538805Y31716577D01*
X31538851Y31716629D01*
X31539011Y31716785D01*
X31539150Y31716925D01*
X31542757Y31720218D01*
X31542809Y31720265D01*
X31542971Y31720395D01*
X31543134Y31720530D01*
X31547044Y31723455D01*
X31547100Y31723497D01*
X31547305Y31723631D01*
X31547451Y31723729D01*
X31551629Y31726259D01*
X31551689Y31726295D01*
X31551887Y31726398D01*
X31552058Y31726491D01*
X31556463Y31728602D01*
X31556527Y31728632D01*
X31556754Y31728724D01*
X31556914Y31728791D01*
X31561505Y31730463D01*
X31561571Y31730487D01*
X31561805Y31730555D01*
X31561971Y31730607D01*
X31566703Y31731822D01*
X31566771Y31731839D01*
X31566931Y31731869D01*
X31567181Y31731920D01*
X31572009Y31732667D01*
X31572078Y31732678D01*
X31572291Y31732697D01*
X31572495Y31732718D01*
X31577372Y31732991D01*
X31577442Y31732995D01*
X31577543Y31732994D01*
X31577637Y31732999D01*
X31577986Y31733000D01*
X32053090Y31733000D01*
X32053169Y31732995D01*
X32053263Y31732995D01*
X32058143Y31732756D01*
X32058213Y31732753D01*
X32058483Y31732722D01*
X32058628Y31732708D01*
X32063461Y31731995D01*
X32063530Y31731985D01*
X32063771Y31731934D01*
X32063941Y31731900D01*
X32068681Y31730718D01*
X32068749Y31730701D01*
X32068981Y31730628D01*
X32069149Y31730577D01*
X32073751Y31728938D01*
X32073816Y31728915D01*
X32074041Y31728818D01*
X32074202Y31728752D01*
X32078622Y31726672D01*
X32078685Y31726642D01*
X32078881Y31726534D01*
X32079053Y31726443D01*
X32083249Y31723942D01*
X32083309Y31723906D01*
X32083504Y31723772D01*
X32083656Y31723671D01*
X32087588Y31720772D01*
X32087644Y31720731D01*
X32087802Y31720598D01*
X32087967Y31720463D01*
X32091597Y31717194D01*
X32091649Y31717148D01*
X32091818Y31716975D01*
X32091943Y31716851D01*
X32095237Y31713244D01*
X32095284Y31713192D01*
X32095420Y31713023D01*
X32095548Y31712868D01*
X32098466Y31708968D01*
X32098476Y31708955D01*
X32098485Y31708942D01*
X32098517Y31708899D01*
X32098625Y31708734D01*
X32098749Y31708550D01*
X32101279Y31704372D01*
X32101315Y31704312D01*
X32101418Y31704114D01*
X32101511Y31703943D01*
X32103618Y31699545D01*
X32103626Y31699529D01*
X32103652Y31699473D01*
X32103735Y31699267D01*
X32103811Y31699087D01*
X32105482Y31694496D01*
X32105506Y31694431D01*
X32105575Y31694196D01*
X32105627Y31694029D01*
X32106842Y31689297D01*
X32106859Y31689230D01*
X32106901Y31689011D01*
X32106940Y31688818D01*
X32107686Y31683996D01*
X32107687Y31683993D01*
X32107687Y31683990D01*
X32107698Y31683922D01*
X32107720Y31683676D01*
X32107738Y31683507D01*
X32108011Y31678628D01*
X32108015Y31678558D01*
X32108014Y31678457D01*
X32108019Y31678363D01*
X32108020Y31678014D01*
X32108020Y31427930D01*
X32108013Y31427820D01*
X32108013Y31427757D01*
X32107774Y31422877D01*
X32107771Y31422807D01*
X32107740Y31422537D01*
X32107726Y31422392D01*
X32107717Y31422328D01*
X32107716Y31422323D01*
X32107715Y31422320D01*
X32107013Y31417561D01*
X32107013Y31417558D01*
X32107012Y31417555D01*
X32107003Y31417490D01*
X32106948Y31417230D01*
X32106918Y31417079D01*
X32106905Y31417025D01*
X32106902Y31417013D01*
X32106900Y31417006D01*
X32105740Y31412355D01*
X32105737Y31412340D01*
X32105733Y31412326D01*
X32105719Y31412271D01*
X32105656Y31412072D01*
X32105596Y31411873D01*
X32103958Y31407270D01*
X32103934Y31407204D01*
X32103824Y31406947D01*
X32103771Y31406818D01*
X32101691Y31402398D01*
X32101661Y31402335D01*
X32101541Y31402116D01*
X32101462Y31401967D01*
X32098961Y31397771D01*
X32098925Y31397711D01*
X32098783Y31397503D01*
X32098690Y31397364D01*
X32095791Y31393432D01*
X32095750Y31393376D01*
X32095578Y31393171D01*
X32095482Y31393053D01*
X32092213Y31389423D01*
X32092167Y31389371D01*
X32091976Y31389184D01*
X32091870Y31389077D01*
X32088263Y31385783D01*
X32088211Y31385736D01*
X32088036Y31385595D01*
X32087886Y31385471D01*
X32083974Y31382545D01*
X32083918Y31382503D01*
X32083678Y31382346D01*
X32083570Y31382273D01*
X32079392Y31379742D01*
X32079332Y31379705D01*
X32079107Y31379587D01*
X32078962Y31379509D01*
X32074557Y31377398D01*
X32074494Y31377368D01*
X32074256Y31377272D01*
X32074106Y31377209D01*
X32069515Y31375538D01*
X32069449Y31375514D01*
X32069244Y31375454D01*
X32069049Y31375393D01*
X32064318Y31374178D01*
X32064250Y31374161D01*
X32064007Y31374115D01*
X32063838Y31374080D01*
X32059011Y31373333D01*
X32058941Y31373322D01*
X32058686Y31373299D01*
X32058526Y31373282D01*
X32053648Y31373009D01*
X32053579Y31373005D01*
X32053477Y31373006D01*
X32053383Y31373001D01*
X32053034Y31373000D01*
X31758000Y31373000D01*
X31758000Y31015430D01*
X31757994Y31015336D01*
X31757994Y31015256D01*
X31757755Y31010376D01*
X31757752Y31010306D01*
X31757721Y31010036D01*
X31757707Y31009891D01*
X31757698Y31009827D01*
X31757697Y31009822D01*
X31757696Y31009819D01*
X31756994Y31005060D01*
X31756994Y31005057D01*
X31756993Y31005054D01*
X31756984Y31004989D01*
X31756929Y31004729D01*
X31756899Y31004578D01*
X31756886Y31004524D01*
X31756883Y31004512D01*
X31756881Y31004505D01*
X31755717Y30999838D01*
X31755700Y30999770D01*
X31755626Y30999535D01*
X31755576Y30999370D01*
X31753937Y30994768D01*
X31753914Y30994703D01*
X31753817Y30994476D01*
X31753751Y30994317D01*
X31751671Y30989897D01*
X31751641Y30989834D01*
X31751521Y30989615D01*
X31751442Y30989466D01*
X31748941Y30985270D01*
X31748905Y30985210D01*
X31748769Y30985011D01*
X31748670Y30984862D01*
X31745771Y30980931D01*
X31745730Y30980875D01*
X31745547Y30980657D01*
X31745463Y30980554D01*
X31745426Y30980513D01*
X31745416Y30980501D01*
X31745410Y30980495D01*
X31742195Y30976923D01*
X31742149Y30976871D01*
X31741956Y30976682D01*
X31741850Y30976575D01*
X31738242Y30973281D01*
X31738191Y30973234D01*
X31737997Y30973079D01*
X31737866Y30972970D01*
X31733955Y30970044D01*
X31733899Y30970003D01*
X31733695Y30969869D01*
X31733549Y30969771D01*
X31729371Y30967242D01*
X31729369Y30967240D01*
X31729311Y30967205D01*
X31729113Y30967102D01*
X31728942Y30967009D01*
X31724537Y30964898D01*
X31724474Y30964868D01*
X31724236Y30964772D01*
X31724086Y30964709D01*
X31719495Y30963038D01*
X31719429Y30963014D01*
X31719224Y30962954D01*
X31719029Y30962893D01*
X31714298Y30961678D01*
X31714230Y30961661D01*
X31714005Y30961618D01*
X31713818Y30961580D01*
X31708991Y30960833D01*
X31708921Y30960822D01*
X31708675Y30960800D01*
X31708506Y30960782D01*
X31703628Y30960509D01*
X31703559Y30960505D01*
X31703457Y30960506D01*
X31703363Y30960501D01*
X31703014Y30960500D01*
X31577930Y30960500D01*
X31577836Y30960506D01*
X31577755Y30960506D01*
X31572876Y30960745D01*
X31572806Y30960748D01*
X31572495Y30960783D01*
X31572391Y30960793D01*
X31567559Y30961505D01*
X31567489Y30961516D01*
X31567181Y30961581D01*
X31567078Y30961601D01*
X31562338Y30962783D01*
X31562270Y30962799D01*
X31561996Y30962886D01*
X31561870Y30962924D01*
X31557269Y30964563D01*
X31557203Y30964586D01*
X31556976Y30964683D01*
X31556817Y30964749D01*
X31552397Y30966829D01*
X31552334Y30966859D01*
X31552122Y30966975D01*
X31551966Y30967058D01*
X31547770Y30969559D01*
X31547710Y30969595D01*
X31547515Y30969729D01*
X31547362Y30969830D01*
X31543432Y30972729D01*
X31543375Y30972770D01*
X31543166Y30972946D01*
X31543054Y30973037D01*
X31539423Y30976305D01*
X31539371Y30976351D01*
X31539198Y30976528D01*
X31539075Y30976650D01*
X31535782Y30980257D01*
X31535735Y30980309D01*
X31535599Y30980478D01*
X31535470Y30980634D01*
X31532545Y30984544D01*
X31532503Y30984600D01*
X31532362Y30984816D01*
X31532271Y30984951D01*
X31529741Y30989129D01*
X31529705Y30989189D01*
X31529602Y30989387D01*
X31529509Y30989558D01*
X31527398Y30993963D01*
X31527368Y30994027D01*
X31527270Y30994269D01*
X31527209Y30994414D01*
X31527188Y30994471D01*
X31527185Y30994479D01*
X31527184Y30994484D01*
X31525537Y30999005D01*
X31525513Y30999071D01*
X31525441Y30999317D01*
X31525393Y30999471D01*
X31524178Y31004203D01*
X31524161Y31004271D01*
X31524122Y31004474D01*
X31524080Y31004681D01*
X31523333Y31009509D01*
X31523322Y31009578D01*
X31523298Y31009839D01*
X31523282Y31009995D01*
X31523278Y31010060D01*
X31523278Y31010066D01*
X31523009Y31014872D01*
X31523005Y31014942D01*
X31523006Y31015043D01*
X31523001Y31015137D01*
X31523000Y31015486D01*
X31523000Y31678070D01*
X31523006Y31678164D01*
G37*
G36*
X28198006Y35003164D02*
G01*
X28198006Y35003243D01*
X28198245Y35008122D01*
X28198248Y35008192D01*
X28198279Y35008468D01*
X28198293Y35008607D01*
X28198302Y35008668D01*
X28198303Y35008677D01*
X28198304Y35008682D01*
X28199005Y35013439D01*
X28199016Y35013509D01*
X28199072Y35013773D01*
X28199101Y35013920D01*
X28199114Y35013974D01*
X28199117Y35013986D01*
X28199119Y35013993D01*
X28200279Y35018644D01*
X28200282Y35018659D01*
X28200285Y35018671D01*
X28200299Y35018728D01*
X28200370Y35018951D01*
X28200423Y35019127D01*
X28202062Y35023729D01*
X28202085Y35023795D01*
X28202178Y35024011D01*
X28202248Y35024181D01*
X28204328Y35028601D01*
X28204358Y35028664D01*
X28204475Y35028877D01*
X28204558Y35029033D01*
X28207059Y35033228D01*
X28207095Y35033289D01*
X28207236Y35033494D01*
X28207329Y35033634D01*
X28210227Y35037567D01*
X28210269Y35037623D01*
X28210412Y35037794D01*
X28210536Y35037945D01*
X28213805Y35041577D01*
X28213852Y35041629D01*
X28214011Y35041784D01*
X28214149Y35041923D01*
X28217756Y35045217D01*
X28217808Y35045264D01*
X28217984Y35045405D01*
X28218133Y35045529D01*
X28222045Y35048455D01*
X28222101Y35048497D01*
X28222303Y35048629D01*
X28222449Y35048727D01*
X28226627Y35051259D01*
X28226687Y35051295D01*
X28226907Y35051410D01*
X28227058Y35051491D01*
X28231464Y35053602D01*
X28231527Y35053633D01*
X28231769Y35053730D01*
X28231914Y35053791D01*
X28236504Y35055462D01*
X28236570Y35055486D01*
X28236795Y35055552D01*
X28236971Y35055607D01*
X28241702Y35056822D01*
X28241770Y35056839D01*
X28241987Y35056880D01*
X28242181Y35056920D01*
X28247008Y35057667D01*
X28247077Y35057678D01*
X28247292Y35057697D01*
X28247494Y35057718D01*
X28252372Y35057991D01*
X28252442Y35057995D01*
X28252543Y35057994D01*
X28252637Y35057999D01*
X28252986Y35058000D01*
X28548000Y35058000D01*
X28548000Y35440570D01*
X28548006Y35440664D01*
X28548006Y35440745D01*
X28548245Y35445624D01*
X28548248Y35445694D01*
X28548279Y35445970D01*
X28548293Y35446109D01*
X28548302Y35446170D01*
X28548303Y35446179D01*
X28548304Y35446184D01*
X28549005Y35450941D01*
X28549016Y35451011D01*
X28549072Y35451275D01*
X28549101Y35451422D01*
X28549114Y35451476D01*
X28549117Y35451488D01*
X28549119Y35451495D01*
X28550283Y35456162D01*
X28550299Y35456230D01*
X28550383Y35456494D01*
X28550424Y35456630D01*
X28552063Y35461231D01*
X28552086Y35461297D01*
X28552183Y35461524D01*
X28552249Y35461683D01*
X28554329Y35466103D01*
X28554359Y35466166D01*
X28554473Y35466373D01*
X28554558Y35466534D01*
X28557059Y35470730D01*
X28557095Y35470790D01*
X28557209Y35470956D01*
X28557330Y35471138D01*
X28560229Y35475068D01*
X28560270Y35475125D01*
X28560438Y35475324D01*
X28560537Y35475446D01*
X28563805Y35479077D01*
X28563851Y35479129D01*
X28564028Y35479302D01*
X28564150Y35479425D01*
X28567757Y35482718D01*
X28567809Y35482765D01*
X28567971Y35482895D01*
X28568134Y35483030D01*
X28572044Y35485955D01*
X28572100Y35485997D01*
X28572305Y35486131D01*
X28572451Y35486229D01*
X28576629Y35488759D01*
X28576689Y35488795D01*
X28576887Y35488898D01*
X28577058Y35488991D01*
X28581463Y35491102D01*
X28581527Y35491132D01*
X28581761Y35491227D01*
X28581914Y35491291D01*
X28586505Y35492963D01*
X28586571Y35492987D01*
X28586813Y35493058D01*
X28586971Y35493107D01*
X28591703Y35494322D01*
X28591771Y35494339D01*
X28591931Y35494369D01*
X28592181Y35494420D01*
X28597009Y35495167D01*
X28597078Y35495178D01*
X28597339Y35495202D01*
X28597495Y35495218D01*
X28602372Y35495491D01*
X28602442Y35495495D01*
X28602543Y35495494D01*
X28602637Y35495499D01*
X28602986Y35495500D01*
X28728070Y35495500D01*
X28728158Y35495494D01*
X28728244Y35495494D01*
X28733124Y35495255D01*
X28733194Y35495252D01*
X28733464Y35495221D01*
X28733609Y35495207D01*
X28738442Y35494494D01*
X28738511Y35494484D01*
X28738751Y35494433D01*
X28738922Y35494399D01*
X28743662Y35493217D01*
X28743730Y35493200D01*
X28743961Y35493127D01*
X28744130Y35493076D01*
X28748732Y35491437D01*
X28748797Y35491414D01*
X28749021Y35491318D01*
X28749183Y35491251D01*
X28753603Y35489171D01*
X28753666Y35489141D01*
X28753863Y35489033D01*
X28754034Y35488942D01*
X28758230Y35486441D01*
X28758290Y35486405D01*
X28758483Y35486273D01*
X28758638Y35486170D01*
X28762569Y35483271D01*
X28762625Y35483230D01*
X28762843Y35483047D01*
X28762946Y35482963D01*
X28762987Y35482926D01*
X28762999Y35482916D01*
X28763005Y35482910D01*
X28766577Y35479695D01*
X28766629Y35479649D01*
X28766800Y35479474D01*
X28766925Y35479350D01*
X28770219Y35475742D01*
X28770266Y35475691D01*
X28770421Y35475497D01*
X28770530Y35475366D01*
X28773456Y35471455D01*
X28773497Y35471399D01*
X28773610Y35471226D01*
X28773729Y35471049D01*
X28776259Y35466870D01*
X28776295Y35466811D01*
X28776398Y35466613D01*
X28776491Y35466442D01*
X28778602Y35462037D01*
X28778632Y35461974D01*
X28778728Y35461736D01*
X28778791Y35461586D01*
X28778812Y35461530D01*
X28778815Y35461521D01*
X28778816Y35461516D01*
X28780459Y35457002D01*
X28780462Y35456996D01*
X28780464Y35456989D01*
X28780486Y35456929D01*
X28780546Y35456724D01*
X28780607Y35456529D01*
X28781822Y35451798D01*
X28781839Y35451730D01*
X28781882Y35451505D01*
X28781920Y35451318D01*
X28782666Y35446495D01*
X28782667Y35446492D01*
X28782667Y35446489D01*
X28782678Y35446421D01*
X28782700Y35446175D01*
X28782718Y35446006D01*
X28782991Y35441128D01*
X28782995Y35441059D01*
X28782994Y35440957D01*
X28782999Y35440863D01*
X28783000Y35440514D01*
X28783000Y34702930D01*
X28782994Y34702836D01*
X28782994Y34702756D01*
X28782755Y34697876D01*
X28782752Y34697806D01*
X28782721Y34697536D01*
X28782707Y34697391D01*
X28782698Y34697327D01*
X28782697Y34697322D01*
X28782696Y34697319D01*
X28781994Y34692560D01*
X28781994Y34692557D01*
X28781993Y34692554D01*
X28781984Y34692489D01*
X28781929Y34692229D01*
X28781899Y34692078D01*
X28781886Y34692024D01*
X28781883Y34692012D01*
X28781881Y34692005D01*
X28780717Y34687338D01*
X28780700Y34687270D01*
X28780626Y34687035D01*
X28780576Y34686870D01*
X28778937Y34682268D01*
X28778914Y34682203D01*
X28778815Y34681973D01*
X28778751Y34681817D01*
X28776671Y34677397D01*
X28776641Y34677334D01*
X28776521Y34677115D01*
X28776442Y34676966D01*
X28773941Y34672770D01*
X28773905Y34672710D01*
X28773764Y34672504D01*
X28773670Y34672362D01*
X28770771Y34668431D01*
X28770730Y34668375D01*
X28770547Y34668157D01*
X28770463Y34668054D01*
X28770426Y34668013D01*
X28770416Y34668001D01*
X28770410Y34667995D01*
X28767195Y34664423D01*
X28767149Y34664371D01*
X28766956Y34664182D01*
X28766850Y34664075D01*
X28763242Y34660781D01*
X28763191Y34660734D01*
X28762988Y34660571D01*
X28762866Y34660470D01*
X28758955Y34657544D01*
X28758899Y34657503D01*
X28758693Y34657368D01*
X28758549Y34657271D01*
X28754371Y34654742D01*
X28754369Y34654740D01*
X28754311Y34654705D01*
X28754113Y34654602D01*
X28753942Y34654509D01*
X28749537Y34652398D01*
X28749474Y34652368D01*
X28749236Y34652272D01*
X28749086Y34652209D01*
X28744495Y34650538D01*
X28744494Y34650538D01*
X28744489Y34650536D01*
X28744429Y34650514D01*
X28744195Y34650445D01*
X28744029Y34650393D01*
X28739298Y34649178D01*
X28739230Y34649161D01*
X28738988Y34649115D01*
X28738818Y34649080D01*
X28733991Y34648333D01*
X28733921Y34648322D01*
X28733667Y34648299D01*
X28733506Y34648282D01*
X28728628Y34648009D01*
X28728559Y34648005D01*
X28728457Y34648006D01*
X28728363Y34648001D01*
X28728014Y34648000D01*
X28252930Y34648000D01*
X28252844Y34648005D01*
X28252756Y34648005D01*
X28247877Y34648244D01*
X28247807Y34648247D01*
X28247494Y34648282D01*
X28247392Y34648292D01*
X28242560Y34649004D01*
X28242490Y34649015D01*
X28242181Y34649080D01*
X28242079Y34649100D01*
X28237339Y34650282D01*
X28237271Y34650298D01*
X28237007Y34650382D01*
X28236871Y34650423D01*
X28232270Y34652062D01*
X28232204Y34652085D01*
X28231977Y34652182D01*
X28231818Y34652248D01*
X28227398Y34654328D01*
X28227335Y34654358D01*
X28227120Y34654476D01*
X28226967Y34654557D01*
X28222771Y34657058D01*
X28222711Y34657094D01*
X28222503Y34657236D01*
X28222364Y34657329D01*
X28218432Y34660227D01*
X28218376Y34660269D01*
X28218167Y34660444D01*
X28218053Y34660537D01*
X28214423Y34663806D01*
X28214371Y34663852D01*
X28214198Y34664029D01*
X28214077Y34664149D01*
X28210783Y34667756D01*
X28210736Y34667808D01*
X28210585Y34667996D01*
X28210472Y34668133D01*
X28207544Y34672045D01*
X28207503Y34672101D01*
X28207395Y34672266D01*
X28207271Y34672450D01*
X28204741Y34676628D01*
X28204705Y34676688D01*
X28204589Y34676909D01*
X28204509Y34677058D01*
X28204482Y34677114D01*
X28204477Y34677124D01*
X28202402Y34681455D01*
X28202398Y34681463D01*
X28202395Y34681470D01*
X28202367Y34681527D01*
X28202268Y34681773D01*
X28202209Y34681914D01*
X28200538Y34686504D01*
X28200514Y34686570D01*
X28200447Y34686797D01*
X28200393Y34686971D01*
X28199178Y34691702D01*
X28199161Y34691770D01*
X28199120Y34691987D01*
X28199080Y34692181D01*
X28198333Y34697008D01*
X28198322Y34697077D01*
X28198298Y34697338D01*
X28198282Y34697494D01*
X28198278Y34697559D01*
X28198278Y34697565D01*
X28198009Y34702372D01*
X28198005Y34702442D01*
X28198006Y34702543D01*
X28198001Y34702637D01*
X28198000Y34702986D01*
X28198000Y35003070D01*
X28198006Y35003164D01*
G37*
%TD*%
%TO.C,Q2*%
G36*
G01*
X14798000Y36082878D02*
X14798000Y36273122D01*
G75*
G02*
X14847878Y36323000I49878J0D01*
G01*
X15448122Y36323000D01*
G75*
G02*
X15498000Y36273122I0J-49878D01*
G01*
X15498000Y36082878D01*
G75*
G02*
X15448122Y36033000I-49878J0D01*
G01*
X14847878Y36033000D01*
G75*
G02*
X14798000Y36082878I0J49878D01*
G01*
G37*
G36*
G01*
X14603000Y36772880D02*
X14603000Y37533120D01*
G75*
G02*
X14652880Y37583000I49880J0D01*
G01*
X15453120Y37583000D01*
G75*
G02*
X15503000Y37533120I0J-49880D01*
G01*
X15503000Y36772880D01*
G75*
G02*
X15453120Y36723000I-49880J0D01*
G01*
X14652880Y36723000D01*
G75*
G02*
X14603000Y36772880I0J49880D01*
G01*
G37*
G36*
G01*
X13853000Y37378100D02*
X13853000Y37577900D01*
G75*
G02*
X13903100Y37628000I50100J0D01*
G01*
X14252900Y37628000D01*
G75*
G02*
X14303000Y37577900I0J-50100D01*
G01*
X14303000Y37378100D01*
G75*
G02*
X14252900Y37328000I-50100J0D01*
G01*
X13903100Y37328000D01*
G75*
G02*
X13853000Y37378100I0J50100D01*
G01*
G37*
G36*
G01*
X13853000Y36728100D02*
X13853000Y36927900D01*
G75*
G02*
X13903100Y36978000I50100J0D01*
G01*
X14252900Y36978000D01*
G75*
G02*
X14303000Y36927900I0J-50100D01*
G01*
X14303000Y36728100D01*
G75*
G02*
X14252900Y36678000I-50100J0D01*
G01*
X13903100Y36678000D01*
G75*
G02*
X13853000Y36728100I0J50100D01*
G01*
G37*
G36*
G01*
X13853000Y36078100D02*
X13853000Y36277900D01*
G75*
G02*
X13903100Y36328000I50100J0D01*
G01*
X14252900Y36328000D01*
G75*
G02*
X14303000Y36277900I0J-50100D01*
G01*
X14303000Y36078100D01*
G75*
G02*
X14252900Y36028000I-50100J0D01*
G01*
X13903100Y36028000D01*
G75*
G02*
X13853000Y36078100I0J50100D01*
G01*
G37*
G36*
G01*
X15803000Y36078100D02*
X15803000Y36277900D01*
G75*
G02*
X15853100Y36328000I50100J0D01*
G01*
X16202900Y36328000D01*
G75*
G02*
X16253000Y36277900I0J-50100D01*
G01*
X16253000Y36078100D01*
G75*
G02*
X16202900Y36028000I-50100J0D01*
G01*
X15853100Y36028000D01*
G75*
G02*
X15803000Y36078100I0J50100D01*
G01*
G37*
G36*
G01*
X15803000Y36728100D02*
X15803000Y36927900D01*
G75*
G02*
X15853100Y36978000I50100J0D01*
G01*
X16202900Y36978000D01*
G75*
G02*
X16253000Y36927900I0J-50100D01*
G01*
X16253000Y36728100D01*
G75*
G02*
X16202900Y36678000I-50100J0D01*
G01*
X15853100Y36678000D01*
G75*
G02*
X15803000Y36728100I0J50100D01*
G01*
G37*
G36*
G01*
X15803000Y37378100D02*
X15803000Y37577900D01*
G75*
G02*
X15853100Y37628000I50100J0D01*
G01*
X16202900Y37628000D01*
G75*
G02*
X16253000Y37577900I0J-50100D01*
G01*
X16253000Y37378100D01*
G75*
G02*
X16202900Y37328000I-50100J0D01*
G01*
X15853100Y37328000D01*
G75*
G02*
X15803000Y37378100I0J50100D01*
G01*
G37*
%TD*%
%TO.C,R11*%
G36*
G01*
X37078001Y38228000D02*
X35827999Y38228000D01*
G75*
G02*
X35578000Y38477999I0J249999D01*
G01*
X35578000Y39278001D01*
G75*
G02*
X35827999Y39528000I249999J0D01*
G01*
X37078001Y39528000D01*
G75*
G02*
X37328000Y39278001I0J-249999D01*
G01*
X37328000Y38477999D01*
G75*
G02*
X37078001Y38228000I-249999J0D01*
G01*
G37*
G36*
G01*
X37078001Y35128000D02*
X35827999Y35128000D01*
G75*
G02*
X35578000Y35377999I0J249999D01*
G01*
X35578000Y36178001D01*
G75*
G02*
X35827999Y36428000I249999J0D01*
G01*
X37078001Y36428000D01*
G75*
G02*
X37328000Y36178001I0J-249999D01*
G01*
X37328000Y35377999D01*
G75*
G02*
X37078001Y35128000I-249999J0D01*
G01*
G37*
%TD*%
%TO.C,R10*%
G36*
G01*
X29178001Y48028000D02*
X27927999Y48028000D01*
G75*
G02*
X27678000Y48277999I0J249999D01*
G01*
X27678000Y49078001D01*
G75*
G02*
X27927999Y49328000I249999J0D01*
G01*
X29178001Y49328000D01*
G75*
G02*
X29428000Y49078001I0J-249999D01*
G01*
X29428000Y48277999D01*
G75*
G02*
X29178001Y48028000I-249999J0D01*
G01*
G37*
G36*
G01*
X29178001Y44928000D02*
X27927999Y44928000D01*
G75*
G02*
X27678000Y45177999I0J249999D01*
G01*
X27678000Y45978001D01*
G75*
G02*
X27927999Y46228000I249999J0D01*
G01*
X29178001Y46228000D01*
G75*
G02*
X29428000Y45978001I0J-249999D01*
G01*
X29428000Y45177999D01*
G75*
G02*
X29178001Y44928000I-249999J0D01*
G01*
G37*
%TD*%
%TO.C,R9*%
G36*
G01*
X32478001Y42828000D02*
X31227999Y42828000D01*
G75*
G02*
X30978000Y43077999I0J249999D01*
G01*
X30978000Y43878001D01*
G75*
G02*
X31227999Y44128000I249999J0D01*
G01*
X32478001Y44128000D01*
G75*
G02*
X32728000Y43878001I0J-249999D01*
G01*
X32728000Y43077999D01*
G75*
G02*
X32478001Y42828000I-249999J0D01*
G01*
G37*
G36*
G01*
X32478001Y39728000D02*
X31227999Y39728000D01*
G75*
G02*
X30978000Y39977999I0J249999D01*
G01*
X30978000Y40778001D01*
G75*
G02*
X31227999Y41028000I249999J0D01*
G01*
X32478001Y41028000D01*
G75*
G02*
X32728000Y40778001I0J-249999D01*
G01*
X32728000Y39977999D01*
G75*
G02*
X32478001Y39728000I-249999J0D01*
G01*
G37*
%TD*%
%TO.C,R8*%
G36*
G01*
X35827999Y22928000D02*
X37078001Y22928000D01*
G75*
G02*
X37328000Y22678001I0J-249999D01*
G01*
X37328000Y21877999D01*
G75*
G02*
X37078001Y21628000I-249999J0D01*
G01*
X35827999Y21628000D01*
G75*
G02*
X35578000Y21877999I0J249999D01*
G01*
X35578000Y22678001D01*
G75*
G02*
X35827999Y22928000I249999J0D01*
G01*
G37*
G36*
G01*
X35827999Y26028000D02*
X37078001Y26028000D01*
G75*
G02*
X37328000Y25778001I0J-249999D01*
G01*
X37328000Y24977999D01*
G75*
G02*
X37078001Y24728000I-249999J0D01*
G01*
X35827999Y24728000D01*
G75*
G02*
X35578000Y24977999I0J249999D01*
G01*
X35578000Y25778001D01*
G75*
G02*
X35827999Y26028000I249999J0D01*
G01*
G37*
%TD*%
%TO.C,R7*%
G36*
G01*
X24553000Y27602999D02*
X24553000Y28853001D01*
G75*
G02*
X24802999Y29103000I249999J0D01*
G01*
X25603001Y29103000D01*
G75*
G02*
X25853000Y28853001I0J-249999D01*
G01*
X25853000Y27602999D01*
G75*
G02*
X25603001Y27353000I-249999J0D01*
G01*
X24802999Y27353000D01*
G75*
G02*
X24553000Y27602999I0J249999D01*
G01*
G37*
G36*
G01*
X21453000Y27602999D02*
X21453000Y28853001D01*
G75*
G02*
X21702999Y29103000I249999J0D01*
G01*
X22503001Y29103000D01*
G75*
G02*
X22753000Y28853001I0J-249999D01*
G01*
X22753000Y27602999D01*
G75*
G02*
X22503001Y27353000I-249999J0D01*
G01*
X21702999Y27353000D01*
G75*
G02*
X21453000Y27602999I0J249999D01*
G01*
G37*
%TD*%
%TO.C,R6*%
G36*
G01*
X32142000Y17408999D02*
X32142000Y18659001D01*
G75*
G02*
X32391999Y18909000I249999J0D01*
G01*
X33192001Y18909000D01*
G75*
G02*
X33442000Y18659001I0J-249999D01*
G01*
X33442000Y17408999D01*
G75*
G02*
X33192001Y17159000I-249999J0D01*
G01*
X32391999Y17159000D01*
G75*
G02*
X32142000Y17408999I0J249999D01*
G01*
G37*
G36*
G01*
X29042000Y17408999D02*
X29042000Y18659001D01*
G75*
G02*
X29291999Y18909000I249999J0D01*
G01*
X30092001Y18909000D01*
G75*
G02*
X30342000Y18659001I0J-249999D01*
G01*
X30342000Y17408999D01*
G75*
G02*
X30092001Y17159000I-249999J0D01*
G01*
X29291999Y17159000D01*
G75*
G02*
X29042000Y17408999I0J249999D01*
G01*
G37*
%TD*%
%TO.C,R5*%
G36*
G01*
X24501001Y20458000D02*
X23250999Y20458000D01*
G75*
G02*
X23001000Y20707999I0J249999D01*
G01*
X23001000Y21508001D01*
G75*
G02*
X23250999Y21758000I249999J0D01*
G01*
X24501001Y21758000D01*
G75*
G02*
X24751000Y21508001I0J-249999D01*
G01*
X24751000Y20707999D01*
G75*
G02*
X24501001Y20458000I-249999J0D01*
G01*
G37*
G36*
G01*
X24501001Y17358000D02*
X23250999Y17358000D01*
G75*
G02*
X23001000Y17607999I0J249999D01*
G01*
X23001000Y18408001D01*
G75*
G02*
X23250999Y18658000I249999J0D01*
G01*
X24501001Y18658000D01*
G75*
G02*
X24751000Y18408001I0J-249999D01*
G01*
X24751000Y17607999D01*
G75*
G02*
X24501001Y17358000I-249999J0D01*
G01*
G37*
%TD*%
%TO.C,R4*%
G36*
G01*
X24453000Y23702999D02*
X24453000Y24953001D01*
G75*
G02*
X24702999Y25203000I249999J0D01*
G01*
X25503001Y25203000D01*
G75*
G02*
X25753000Y24953001I0J-249999D01*
G01*
X25753000Y23702999D01*
G75*
G02*
X25503001Y23453000I-249999J0D01*
G01*
X24702999Y23453000D01*
G75*
G02*
X24453000Y23702999I0J249999D01*
G01*
G37*
G36*
G01*
X21353000Y23702999D02*
X21353000Y24953001D01*
G75*
G02*
X21602999Y25203000I249999J0D01*
G01*
X22403001Y25203000D01*
G75*
G02*
X22653000Y24953001I0J-249999D01*
G01*
X22653000Y23702999D01*
G75*
G02*
X22403001Y23453000I-249999J0D01*
G01*
X21602999Y23453000D01*
G75*
G02*
X21353000Y23702999I0J249999D01*
G01*
G37*
%TD*%
%TO.C,R3*%
G36*
G01*
X31074999Y22928000D02*
X32325001Y22928000D01*
G75*
G02*
X32575000Y22678001I0J-249999D01*
G01*
X32575000Y21877999D01*
G75*
G02*
X32325001Y21628000I-249999J0D01*
G01*
X31074999Y21628000D01*
G75*
G02*
X30825000Y21877999I0J249999D01*
G01*
X30825000Y22678001D01*
G75*
G02*
X31074999Y22928000I249999J0D01*
G01*
G37*
G36*
G01*
X31074999Y26028000D02*
X32325001Y26028000D01*
G75*
G02*
X32575000Y25778001I0J-249999D01*
G01*
X32575000Y24977999D01*
G75*
G02*
X32325001Y24728000I-249999J0D01*
G01*
X31074999Y24728000D01*
G75*
G02*
X30825000Y24977999I0J249999D01*
G01*
X30825000Y25778001D01*
G75*
G02*
X31074999Y26028000I249999J0D01*
G01*
G37*
%TD*%
%TO.C,R2*%
G36*
G01*
X29778001Y24728000D02*
X28527999Y24728000D01*
G75*
G02*
X28278000Y24977999I0J249999D01*
G01*
X28278000Y25778001D01*
G75*
G02*
X28527999Y26028000I249999J0D01*
G01*
X29778001Y26028000D01*
G75*
G02*
X30028000Y25778001I0J-249999D01*
G01*
X30028000Y24977999D01*
G75*
G02*
X29778001Y24728000I-249999J0D01*
G01*
G37*
G36*
G01*
X29778001Y21628000D02*
X28527999Y21628000D01*
G75*
G02*
X28278000Y21877999I0J249999D01*
G01*
X28278000Y22678001D01*
G75*
G02*
X28527999Y22928000I249999J0D01*
G01*
X29778001Y22928000D01*
G75*
G02*
X30028000Y22678001I0J-249999D01*
G01*
X30028000Y21877999D01*
G75*
G02*
X29778001Y21628000I-249999J0D01*
G01*
G37*
%TD*%
%TO.C,Q3*%
G36*
G01*
X16702900Y34578000D02*
X16503100Y34578000D01*
G75*
G02*
X16453000Y34628100I0J50100D01*
G01*
X16453000Y34977900D01*
G75*
G02*
X16503100Y35028000I50100J0D01*
G01*
X16702900Y35028000D01*
G75*
G02*
X16753000Y34977900I0J-50100D01*
G01*
X16753000Y34628100D01*
G75*
G02*
X16702900Y34578000I-50100J0D01*
G01*
G37*
G36*
G01*
X17352900Y34578000D02*
X17153100Y34578000D01*
G75*
G02*
X17103000Y34628100I0J50100D01*
G01*
X17103000Y34977900D01*
G75*
G02*
X17153100Y35028000I50100J0D01*
G01*
X17352900Y35028000D01*
G75*
G02*
X17403000Y34977900I0J-50100D01*
G01*
X17403000Y34628100D01*
G75*
G02*
X17352900Y34578000I-50100J0D01*
G01*
G37*
G36*
G01*
X18002900Y34578000D02*
X17803100Y34578000D01*
G75*
G02*
X17753000Y34628100I0J50100D01*
G01*
X17753000Y34977900D01*
G75*
G02*
X17803100Y35028000I50100J0D01*
G01*
X18002900Y35028000D01*
G75*
G02*
X18053000Y34977900I0J-50100D01*
G01*
X18053000Y34628100D01*
G75*
G02*
X18002900Y34578000I-50100J0D01*
G01*
G37*
G36*
G01*
X18002900Y32628000D02*
X17803100Y32628000D01*
G75*
G02*
X17753000Y32678100I0J50100D01*
G01*
X17753000Y33027900D01*
G75*
G02*
X17803100Y33078000I50100J0D01*
G01*
X18002900Y33078000D01*
G75*
G02*
X18053000Y33027900I0J-50100D01*
G01*
X18053000Y32678100D01*
G75*
G02*
X18002900Y32628000I-50100J0D01*
G01*
G37*
G36*
G01*
X17352900Y32628000D02*
X17153100Y32628000D01*
G75*
G02*
X17103000Y32678100I0J50100D01*
G01*
X17103000Y33027900D01*
G75*
G02*
X17153100Y33078000I50100J0D01*
G01*
X17352900Y33078000D01*
G75*
G02*
X17403000Y33027900I0J-50100D01*
G01*
X17403000Y32678100D01*
G75*
G02*
X17352900Y32628000I-50100J0D01*
G01*
G37*
G36*
G01*
X16702900Y32628000D02*
X16503100Y32628000D01*
G75*
G02*
X16453000Y32678100I0J50100D01*
G01*
X16453000Y33027900D01*
G75*
G02*
X16503100Y33078000I50100J0D01*
G01*
X16702900Y33078000D01*
G75*
G02*
X16753000Y33027900I0J-50100D01*
G01*
X16753000Y32678100D01*
G75*
G02*
X16702900Y32628000I-50100J0D01*
G01*
G37*
G36*
G01*
X17308120Y33378000D02*
X16547880Y33378000D01*
G75*
G02*
X16498000Y33427880I0J49880D01*
G01*
X16498000Y34228120D01*
G75*
G02*
X16547880Y34278000I49880J0D01*
G01*
X17308120Y34278000D01*
G75*
G02*
X17358000Y34228120I0J-49880D01*
G01*
X17358000Y33427880D01*
G75*
G02*
X17308120Y33378000I-49880J0D01*
G01*
G37*
G36*
G01*
X17998122Y33573000D02*
X17807878Y33573000D01*
G75*
G02*
X17758000Y33622878I0J49878D01*
G01*
X17758000Y34223122D01*
G75*
G02*
X17807878Y34273000I49878J0D01*
G01*
X17998122Y34273000D01*
G75*
G02*
X18048000Y34223122I0J-49878D01*
G01*
X18048000Y33622878D01*
G75*
G02*
X17998122Y33573000I-49878J0D01*
G01*
G37*
%TD*%
D12*
%TO.C,L1*%
X18703000Y37428000D03*
X21403000Y37428000D03*
%TD*%
%TO.C,C10*%
G36*
G01*
X37103003Y33128000D02*
X35802997Y33128000D01*
G75*
G02*
X35553000Y33377997I0J249997D01*
G01*
X35553000Y34203003D01*
G75*
G02*
X35802997Y34453000I249997J0D01*
G01*
X37103003Y34453000D01*
G75*
G02*
X37353000Y34203003I0J-249997D01*
G01*
X37353000Y33377997D01*
G75*
G02*
X37103003Y33128000I-249997J0D01*
G01*
G37*
G36*
G01*
X37103003Y30003000D02*
X35802997Y30003000D01*
G75*
G02*
X35553000Y30252997I0J249997D01*
G01*
X35553000Y31078003D01*
G75*
G02*
X35802997Y31328000I249997J0D01*
G01*
X37103003Y31328000D01*
G75*
G02*
X37353000Y31078003I0J-249997D01*
G01*
X37353000Y30252997D01*
G75*
G02*
X37103003Y30003000I-249997J0D01*
G01*
G37*
%TD*%
%TO.C,C9*%
G36*
G01*
X24753000Y38078003D02*
X24753000Y36777997D01*
G75*
G02*
X24503003Y36528000I-249997J0D01*
G01*
X23677997Y36528000D01*
G75*
G02*
X23428000Y36777997I0J249997D01*
G01*
X23428000Y38078003D01*
G75*
G02*
X23677997Y38328000I249997J0D01*
G01*
X24503003Y38328000D01*
G75*
G02*
X24753000Y38078003I0J-249997D01*
G01*
G37*
G36*
G01*
X27878000Y38078003D02*
X27878000Y36777997D01*
G75*
G02*
X27628003Y36528000I-249997J0D01*
G01*
X26802997Y36528000D01*
G75*
G02*
X26553000Y36777997I0J249997D01*
G01*
X26553000Y38078003D01*
G75*
G02*
X26802997Y38328000I249997J0D01*
G01*
X27628003Y38328000D01*
G75*
G02*
X27878000Y38078003I0J-249997D01*
G01*
G37*
%TD*%
%TO.C,C8*%
G36*
G01*
X41603003Y33128000D02*
X40302997Y33128000D01*
G75*
G02*
X40053000Y33377997I0J249997D01*
G01*
X40053000Y34203003D01*
G75*
G02*
X40302997Y34453000I249997J0D01*
G01*
X41603003Y34453000D01*
G75*
G02*
X41853000Y34203003I0J-249997D01*
G01*
X41853000Y33377997D01*
G75*
G02*
X41603003Y33128000I-249997J0D01*
G01*
G37*
G36*
G01*
X41603003Y30003000D02*
X40302997Y30003000D01*
G75*
G02*
X40053000Y30252997I0J249997D01*
G01*
X40053000Y31078003D01*
G75*
G02*
X40302997Y31328000I249997J0D01*
G01*
X41603003Y31328000D01*
G75*
G02*
X41853000Y31078003I0J-249997D01*
G01*
X41853000Y30252997D01*
G75*
G02*
X41603003Y30003000I-249997J0D01*
G01*
G37*
%TD*%
%TO.C,C7*%
G36*
G01*
X29203003Y42928000D02*
X27902997Y42928000D01*
G75*
G02*
X27653000Y43177997I0J249997D01*
G01*
X27653000Y44003003D01*
G75*
G02*
X27902997Y44253000I249997J0D01*
G01*
X29203003Y44253000D01*
G75*
G02*
X29453000Y44003003I0J-249997D01*
G01*
X29453000Y43177997D01*
G75*
G02*
X29203003Y42928000I-249997J0D01*
G01*
G37*
G36*
G01*
X29203003Y39803000D02*
X27902997Y39803000D01*
G75*
G02*
X27653000Y40052997I0J249997D01*
G01*
X27653000Y40878003D01*
G75*
G02*
X27902997Y41128000I249997J0D01*
G01*
X29203003Y41128000D01*
G75*
G02*
X29453000Y40878003I0J-249997D01*
G01*
X29453000Y40052997D01*
G75*
G02*
X29203003Y39803000I-249997J0D01*
G01*
G37*
%TD*%
%TO.C,C4*%
G36*
G01*
X25003003Y34528000D02*
X23702997Y34528000D01*
G75*
G02*
X23453000Y34777997I0J249997D01*
G01*
X23453000Y35603003D01*
G75*
G02*
X23702997Y35853000I249997J0D01*
G01*
X25003003Y35853000D01*
G75*
G02*
X25253000Y35603003I0J-249997D01*
G01*
X25253000Y34777997D01*
G75*
G02*
X25003003Y34528000I-249997J0D01*
G01*
G37*
G36*
G01*
X25003003Y31403000D02*
X23702997Y31403000D01*
G75*
G02*
X23453000Y31652997I0J249997D01*
G01*
X23453000Y32478003D01*
G75*
G02*
X23702997Y32728000I249997J0D01*
G01*
X25003003Y32728000D01*
G75*
G02*
X25253000Y32478003I0J-249997D01*
G01*
X25253000Y31652997D01*
G75*
G02*
X25003003Y31403000I-249997J0D01*
G01*
G37*
%TD*%
%TO.C,C3*%
G36*
G01*
X24202997Y41128000D02*
X25503003Y41128000D01*
G75*
G02*
X25753000Y40878003I0J-249997D01*
G01*
X25753000Y40052997D01*
G75*
G02*
X25503003Y39803000I-249997J0D01*
G01*
X24202997Y39803000D01*
G75*
G02*
X23953000Y40052997I0J249997D01*
G01*
X23953000Y40878003D01*
G75*
G02*
X24202997Y41128000I249997J0D01*
G01*
G37*
G36*
G01*
X24202997Y44253000D02*
X25503003Y44253000D01*
G75*
G02*
X25753000Y44003003I0J-249997D01*
G01*
X25753000Y43177997D01*
G75*
G02*
X25503003Y42928000I-249997J0D01*
G01*
X24202997Y42928000D01*
G75*
G02*
X23953000Y43177997I0J249997D01*
G01*
X23953000Y44003003D01*
G75*
G02*
X24202997Y44253000I249997J0D01*
G01*
G37*
%TD*%
%TO.C,C2*%
G36*
G01*
X16013000Y40497997D02*
X16013000Y41798003D01*
G75*
G02*
X16262997Y42048000I249997J0D01*
G01*
X17088003Y42048000D01*
G75*
G02*
X17338000Y41798003I0J-249997D01*
G01*
X17338000Y40497997D01*
G75*
G02*
X17088003Y40248000I-249997J0D01*
G01*
X16262997Y40248000D01*
G75*
G02*
X16013000Y40497997I0J249997D01*
G01*
G37*
G36*
G01*
X12888000Y40497997D02*
X12888000Y41798003D01*
G75*
G02*
X13137997Y42048000I249997J0D01*
G01*
X13963003Y42048000D01*
G75*
G02*
X14213000Y41798003I0J-249997D01*
G01*
X14213000Y40497997D01*
G75*
G02*
X13963003Y40248000I-249997J0D01*
G01*
X13137997Y40248000D01*
G75*
G02*
X12888000Y40497997I0J249997D01*
G01*
G37*
%TD*%
%TO.C,C1*%
G36*
G01*
X14108000Y28940997D02*
X14108000Y30241003D01*
G75*
G02*
X14357997Y30491000I249997J0D01*
G01*
X15183003Y30491000D01*
G75*
G02*
X15433000Y30241003I0J-249997D01*
G01*
X15433000Y28940997D01*
G75*
G02*
X15183003Y28691000I-249997J0D01*
G01*
X14357997Y28691000D01*
G75*
G02*
X14108000Y28940997I0J249997D01*
G01*
G37*
G36*
G01*
X10983000Y28940997D02*
X10983000Y30241003D01*
G75*
G02*
X11232997Y30491000I249997J0D01*
G01*
X12058003Y30491000D01*
G75*
G02*
X12308000Y30241003I0J-249997D01*
G01*
X12308000Y28940997D01*
G75*
G02*
X12058003Y28691000I-249997J0D01*
G01*
X11232997Y28691000D01*
G75*
G02*
X10983000Y28940997I0J249997D01*
G01*
G37*
%TD*%
%TO.C,C5*%
G36*
G01*
X75913000Y16557500D02*
X74963000Y16557500D01*
G75*
G02*
X74713000Y16807500I0J250000D01*
G01*
X74713000Y17482500D01*
G75*
G02*
X74963000Y17732500I250000J0D01*
G01*
X75913000Y17732500D01*
G75*
G02*
X76163000Y17482500I0J-250000D01*
G01*
X76163000Y16807500D01*
G75*
G02*
X75913000Y16557500I-250000J0D01*
G01*
G37*
G36*
G01*
X75913000Y18632500D02*
X74963000Y18632500D01*
G75*
G02*
X74713000Y18882500I0J250000D01*
G01*
X74713000Y19557500D01*
G75*
G02*
X74963000Y19807500I250000J0D01*
G01*
X75913000Y19807500D01*
G75*
G02*
X76163000Y19557500I0J-250000D01*
G01*
X76163000Y18882500D01*
G75*
G02*
X75913000Y18632500I-250000J0D01*
G01*
G37*
%TD*%
%TO.C,C6*%
G36*
G01*
X79342000Y18611000D02*
X78392000Y18611000D01*
G75*
G02*
X78142000Y18861000I0J250000D01*
G01*
X78142000Y19536000D01*
G75*
G02*
X78392000Y19786000I250000J0D01*
G01*
X79342000Y19786000D01*
G75*
G02*
X79592000Y19536000I0J-250000D01*
G01*
X79592000Y18861000D01*
G75*
G02*
X79342000Y18611000I-250000J0D01*
G01*
G37*
G36*
G01*
X79342000Y16536000D02*
X78392000Y16536000D01*
G75*
G02*
X78142000Y16786000I0J250000D01*
G01*
X78142000Y17461000D01*
G75*
G02*
X78392000Y17711000I250000J0D01*
G01*
X79342000Y17711000D01*
G75*
G02*
X79592000Y17461000I0J-250000D01*
G01*
X79592000Y16786000D01*
G75*
G02*
X79342000Y16536000I-250000J0D01*
G01*
G37*
%TD*%
M02*
