%TF.GenerationSoftware,KiCad,Pcbnew,(5.1.9)-1*%
%TF.CreationDate,2021-03-22T02:41:59-07:00*%
%TF.ProjectId,CapstoneBoard,43617073-746f-46e6-9542-6f6172642e6b,3*%
%TF.SameCoordinates,PX4c4b400PY6bc3e40*%
%TF.FileFunction,Legend,Top*%
%TF.FilePolarity,Positive*%
%FSLAX46Y46*%
G04 Gerber Fmt 4.6, Leading zero omitted, Abs format (unit mm)*
G04 Created by KiCad (PCBNEW (5.1.9)-1) date 2021-03-22 02:41:59*
%MOMM*%
%LPD*%
G01*
G04 APERTURE LIST*
%ADD10C,0.120000*%
%ADD11C,0.150000*%
G04 APERTURE END LIST*
D10*
%TO.C,J9*%
X40463000Y51853000D02*
X40463000Y53183000D01*
X41793000Y51853000D02*
X40463000Y51853000D01*
X40463000Y54453000D02*
X40463000Y57053000D01*
X43063000Y54453000D02*
X40463000Y54453000D01*
X43063000Y51853000D02*
X43063000Y54453000D01*
X40463000Y57053000D02*
X91383000Y57053000D01*
X43063000Y51853000D02*
X91383000Y51853000D01*
X91383000Y51853000D02*
X91383000Y57053000D01*
%TO.C,J6*%
X50987000Y3840000D02*
X50987000Y2510000D01*
X49657000Y3840000D02*
X50987000Y3840000D01*
X48387000Y3840000D02*
X48387000Y1180000D01*
X48387000Y1180000D02*
X33087000Y1180000D01*
X48387000Y3840000D02*
X33087000Y3840000D01*
X33087000Y3840000D02*
X33087000Y1180000D01*
%TO.C,J8*%
X67688000Y42739000D02*
X67688000Y45399000D01*
X49848000Y42739000D02*
X67688000Y42739000D01*
X49848000Y45399000D02*
X67688000Y45399000D01*
X49848000Y42739000D02*
X49848000Y45399000D01*
X48578000Y42739000D02*
X47248000Y42739000D01*
X47248000Y42739000D02*
X47248000Y44069000D01*
%TO.C,U2*%
X78323000Y9799700D02*
X78323000Y13508300D01*
X69373000Y8129000D02*
X69373000Y13512600D01*
%TO.C,J1*%
X9140000Y13840000D02*
X9140000Y4840000D01*
X13740000Y13840000D02*
X13740000Y4840000D01*
X21240000Y13840000D02*
X21240000Y4840000D01*
X16640000Y13840000D02*
X16640000Y4840000D01*
%TO.C,J10*%
X80595000Y13753000D02*
X80595000Y15083000D01*
X81925000Y13753000D02*
X80595000Y13753000D01*
X80595000Y16353000D02*
X80595000Y18953000D01*
X83195000Y16353000D02*
X80595000Y16353000D01*
X83195000Y13753000D02*
X83195000Y16353000D01*
X80595000Y18953000D02*
X90875000Y18953000D01*
X83195000Y13753000D02*
X90875000Y13753000D01*
X90875000Y13753000D02*
X90875000Y18953000D01*
%TO.C,J7*%
X10237000Y54513000D02*
X10237000Y51853000D01*
X22997000Y54513000D02*
X10237000Y54513000D01*
X22997000Y51853000D02*
X10237000Y51853000D01*
X22997000Y54513000D02*
X22997000Y51853000D01*
X24267000Y54513000D02*
X25597000Y54513000D01*
X25597000Y54513000D02*
X25597000Y53183000D01*
%TO.C,J5*%
X67688000Y15116500D02*
X67688000Y17776500D01*
X49848000Y15116500D02*
X67688000Y15116500D01*
X49848000Y17776500D02*
X67688000Y17776500D01*
X49848000Y15116500D02*
X49848000Y17776500D01*
X48578000Y15116500D02*
X47248000Y15116500D01*
X47248000Y15116500D02*
X47248000Y16446500D01*
%TO.C,J3*%
X72490000Y31065000D02*
X71160000Y31065000D01*
X71160000Y31065000D02*
X71160000Y32395000D01*
X71160000Y33665000D02*
X71160000Y41345000D01*
X73820000Y41345000D02*
X71160000Y41345000D01*
X73820000Y33665000D02*
X73820000Y41345000D01*
X73820000Y33665000D02*
X71160000Y33665000D01*
%TO.C,J2*%
X90270000Y28525000D02*
X88940000Y28525000D01*
X88940000Y28525000D02*
X88940000Y29855000D01*
X88940000Y31125000D02*
X88940000Y43885000D01*
X91600000Y43885000D02*
X88940000Y43885000D01*
X91600000Y31125000D02*
X91600000Y43885000D01*
X91600000Y31125000D02*
X88940000Y31125000D01*
%TO.C,J12*%
X65345000Y29755000D02*
X68005000Y29755000D01*
X65345000Y32355000D02*
X65345000Y29755000D01*
X68005000Y32355000D02*
X68005000Y29755000D01*
X65345000Y32355000D02*
X68005000Y32355000D01*
X65345000Y33625000D02*
X65345000Y34955000D01*
X65345000Y34955000D02*
X66675000Y34955000D01*
%TO.C,U1*%
X32248500Y35641000D02*
X31867500Y35641000D01*
X32248500Y35260000D02*
X32248500Y35641000D01*
X31867500Y30815000D02*
X32248500Y30815000D01*
X32248500Y30815000D02*
X32248500Y31196000D01*
X28057500Y31196000D02*
X28057500Y30815000D01*
X28057500Y30815000D02*
X28438500Y30815000D01*
X28438500Y35641000D02*
X28057500Y35641000D01*
X28057500Y35641000D02*
X28057500Y35260000D01*
X27889612Y30561000D02*
G75*
G03*
X27889612Y30561000I-88900J0D01*
G01*
X27813714Y30561000D02*
G75*
G03*
X27813714Y30561000I-13002J0D01*
G01*
%TO.C,Q2*%
X16894000Y35116000D02*
X19154000Y35116000D01*
X16934000Y32896000D02*
X19154000Y32896000D01*
X16934000Y33076000D02*
X16934000Y32896000D01*
X19154000Y35116000D02*
X19154000Y34936000D01*
X19154000Y33076000D02*
X19154000Y32896000D01*
%TO.C,R11*%
X37363000Y36600936D02*
X37363000Y38055064D01*
X35543000Y36600936D02*
X35543000Y38055064D01*
%TO.C,R10*%
X29381936Y45288000D02*
X30836064Y45288000D01*
X29381936Y47108000D02*
X30836064Y47108000D01*
%TO.C,R9*%
X32763000Y41200936D02*
X32763000Y42655064D01*
X30943000Y41200936D02*
X30943000Y42655064D01*
%TO.C,R8*%
X38080936Y27127000D02*
X39535064Y27127000D01*
X38080936Y28947000D02*
X39535064Y28947000D01*
%TO.C,R7*%
X25063936Y26428500D02*
X26518064Y26428500D01*
X25063936Y28248500D02*
X26518064Y28248500D01*
%TO.C,R6*%
X30514936Y17124000D02*
X31969064Y17124000D01*
X30514936Y18944000D02*
X31969064Y18944000D01*
%TO.C,R5*%
X24786000Y18830936D02*
X24786000Y20285064D01*
X22966000Y18830936D02*
X22966000Y20285064D01*
%TO.C,R4*%
X26460936Y23825000D02*
X27915064Y23825000D01*
X26460936Y25645000D02*
X27915064Y25645000D01*
%TO.C,R3*%
X32692000Y24555064D02*
X32692000Y23100936D01*
X34512000Y24555064D02*
X34512000Y23100936D01*
%TO.C,R2*%
X31844000Y23100936D02*
X31844000Y24555064D01*
X30024000Y23100936D02*
X30024000Y24555064D01*
%TO.C,Q3*%
X19255600Y30485200D02*
X19255600Y30305200D01*
X19255600Y32525200D02*
X19255600Y32345200D01*
X17035600Y30485200D02*
X17035600Y30305200D01*
X17035600Y30305200D02*
X19255600Y30305200D01*
X16995600Y32525200D02*
X19255600Y32525200D01*
%TO.C,L1*%
X22008000Y34398000D02*
X22008000Y35122000D01*
X22008000Y35122000D02*
X25256000Y35122000D01*
X25256000Y35122000D02*
X25256000Y34398000D01*
X22008000Y32598000D02*
X22008000Y31874000D01*
X22008000Y31874000D02*
X25256000Y31874000D01*
X25256000Y31874000D02*
X25256000Y32598000D01*
%TO.C,C10*%
X37363000Y31516748D02*
X37363000Y32939252D01*
X35543000Y31516748D02*
X35543000Y32939252D01*
%TO.C,C9*%
X26364252Y38338000D02*
X24941748Y38338000D01*
X26364252Y36518000D02*
X24941748Y36518000D01*
%TO.C,C8*%
X41863000Y31516748D02*
X41863000Y32939252D01*
X40043000Y31516748D02*
X40043000Y32939252D01*
%TO.C,C7*%
X29463000Y41316748D02*
X29463000Y42739252D01*
X27643000Y41316748D02*
X27643000Y42739252D01*
%TO.C,C4*%
X22920748Y29540000D02*
X24343252Y29540000D01*
X22920748Y31360000D02*
X24343252Y31360000D01*
%TO.C,C3*%
X23943000Y42739252D02*
X23943000Y41316748D01*
X25763000Y42739252D02*
X25763000Y41316748D01*
%TO.C,C2*%
X16350500Y35390248D02*
X16350500Y36812752D01*
X14530500Y35390248D02*
X14530500Y36812752D01*
%TO.C,C1*%
X10538752Y32693500D02*
X9116248Y32693500D01*
X10538752Y30873500D02*
X9116248Y30873500D01*
%TO.C,J4*%
X55693000Y1180000D02*
X55693000Y2510000D01*
X57023000Y1180000D02*
X55693000Y1180000D01*
X58293000Y1180000D02*
X58293000Y3840000D01*
X58293000Y3840000D02*
X91373000Y3840000D01*
X58293000Y1180000D02*
X91373000Y1180000D01*
X91373000Y1180000D02*
X91373000Y3840000D01*
%TO.C,C5*%
X74459000Y17921248D02*
X74459000Y18443752D01*
X75929000Y17921248D02*
X75929000Y18443752D01*
%TO.C,C6*%
X78088000Y17899748D02*
X78088000Y18422252D01*
X76618000Y17899748D02*
X76618000Y18422252D01*
%TO.C,J9*%
D11*
X38475380Y51579667D02*
X39189666Y51579667D01*
X39332523Y51532048D01*
X39427761Y51436810D01*
X39475380Y51293953D01*
X39475380Y51198715D01*
X39475380Y52103477D02*
X39475380Y52293953D01*
X39427761Y52389191D01*
X39380142Y52436810D01*
X39237285Y52532048D01*
X39046809Y52579667D01*
X38665857Y52579667D01*
X38570619Y52532048D01*
X38523000Y52484429D01*
X38475380Y52389191D01*
X38475380Y52198715D01*
X38523000Y52103477D01*
X38570619Y52055858D01*
X38665857Y52008239D01*
X38903952Y52008239D01*
X38999190Y52055858D01*
X39046809Y52103477D01*
X39094428Y52198715D01*
X39094428Y52389191D01*
X39046809Y52484429D01*
X38999190Y52532048D01*
X38903952Y52579667D01*
%TO.C,J6*%
X51439380Y2176667D02*
X52153666Y2176667D01*
X52296523Y2129048D01*
X52391761Y2033810D01*
X52439380Y1890953D01*
X52439380Y1795715D01*
X51439380Y3081429D02*
X51439380Y2890953D01*
X51487000Y2795715D01*
X51534619Y2748096D01*
X51677476Y2652858D01*
X51867952Y2605239D01*
X52248904Y2605239D01*
X52344142Y2652858D01*
X52391761Y2700477D01*
X52439380Y2795715D01*
X52439380Y2986191D01*
X52391761Y3081429D01*
X52344142Y3129048D01*
X52248904Y3176667D01*
X52010809Y3176667D01*
X51915571Y3129048D01*
X51867952Y3081429D01*
X51820333Y2986191D01*
X51820333Y2795715D01*
X51867952Y2700477D01*
X51915571Y2652858D01*
X52010809Y2605239D01*
%TO.C,J8*%
X45700380Y43735667D02*
X46414666Y43735667D01*
X46557523Y43688048D01*
X46652761Y43592810D01*
X46700380Y43449953D01*
X46700380Y43354715D01*
X46128952Y44354715D02*
X46081333Y44259477D01*
X46033714Y44211858D01*
X45938476Y44164239D01*
X45890857Y44164239D01*
X45795619Y44211858D01*
X45748000Y44259477D01*
X45700380Y44354715D01*
X45700380Y44545191D01*
X45748000Y44640429D01*
X45795619Y44688048D01*
X45890857Y44735667D01*
X45938476Y44735667D01*
X46033714Y44688048D01*
X46081333Y44640429D01*
X46128952Y44545191D01*
X46128952Y44354715D01*
X46176571Y44259477D01*
X46224190Y44211858D01*
X46319428Y44164239D01*
X46509904Y44164239D01*
X46605142Y44211858D01*
X46652761Y44259477D01*
X46700380Y44354715D01*
X46700380Y44545191D01*
X46652761Y44640429D01*
X46605142Y44688048D01*
X46509904Y44735667D01*
X46319428Y44735667D01*
X46224190Y44688048D01*
X46176571Y44640429D01*
X46128952Y44545191D01*
%TO.C,U2*%
X68050380Y10892096D02*
X68859904Y10892096D01*
X68955142Y10939715D01*
X69002761Y10987334D01*
X69050380Y11082572D01*
X69050380Y11273048D01*
X69002761Y11368286D01*
X68955142Y11415905D01*
X68859904Y11463524D01*
X68050380Y11463524D01*
X68145619Y11892096D02*
X68098000Y11939715D01*
X68050380Y12034953D01*
X68050380Y12273048D01*
X68098000Y12368286D01*
X68145619Y12415905D01*
X68240857Y12463524D01*
X68336095Y12463524D01*
X68478952Y12415905D01*
X69050380Y11844477D01*
X69050380Y12463524D01*
%TO.C,J1*%
X16306666Y16737620D02*
X16306666Y16023334D01*
X16259047Y15880477D01*
X16163809Y15785239D01*
X16020952Y15737620D01*
X15925714Y15737620D01*
X17306666Y15737620D02*
X16735238Y15737620D01*
X17020952Y15737620D02*
X17020952Y16737620D01*
X16925714Y16594762D01*
X16830476Y16499524D01*
X16735238Y16451905D01*
%TO.C,J10*%
X79047380Y15543477D02*
X79761666Y15543477D01*
X79904523Y15495858D01*
X79999761Y15400620D01*
X80047380Y15257762D01*
X80047380Y15162524D01*
X80047380Y16543477D02*
X80047380Y15972048D01*
X80047380Y16257762D02*
X79047380Y16257762D01*
X79190238Y16162524D01*
X79285476Y16067286D01*
X79333095Y15972048D01*
X79047380Y17162524D02*
X79047380Y17257762D01*
X79095000Y17353000D01*
X79142619Y17400620D01*
X79237857Y17448239D01*
X79428333Y17495858D01*
X79666428Y17495858D01*
X79856904Y17448239D01*
X79952142Y17400620D01*
X79999761Y17353000D01*
X80047380Y17257762D01*
X80047380Y17162524D01*
X79999761Y17067286D01*
X79952142Y17019667D01*
X79856904Y16972048D01*
X79666428Y16924429D01*
X79428333Y16924429D01*
X79237857Y16972048D01*
X79142619Y17019667D01*
X79095000Y17067286D01*
X79047380Y17162524D01*
%TO.C,J7*%
X26049380Y52849667D02*
X26763666Y52849667D01*
X26906523Y52802048D01*
X27001761Y52706810D01*
X27049380Y52563953D01*
X27049380Y52468715D01*
X26049380Y53230620D02*
X26049380Y53897286D01*
X27049380Y53468715D01*
%TO.C,J5*%
X45700380Y16113167D02*
X46414666Y16113167D01*
X46557523Y16065548D01*
X46652761Y15970310D01*
X46700380Y15827453D01*
X46700380Y15732215D01*
X45700380Y17065548D02*
X45700380Y16589358D01*
X46176571Y16541739D01*
X46128952Y16589358D01*
X46081333Y16684596D01*
X46081333Y16922691D01*
X46128952Y17017929D01*
X46176571Y17065548D01*
X46271809Y17113167D01*
X46509904Y17113167D01*
X46605142Y17065548D01*
X46652761Y17017929D01*
X46700380Y16922691D01*
X46700380Y16684596D01*
X46652761Y16589358D01*
X46605142Y16541739D01*
%TO.C,J3*%
X69860666Y36909620D02*
X69860666Y36195334D01*
X69813047Y36052477D01*
X69717809Y35957239D01*
X69574952Y35909620D01*
X69479714Y35909620D01*
X70241619Y36909620D02*
X70860666Y36909620D01*
X70527333Y36528667D01*
X70670190Y36528667D01*
X70765428Y36481048D01*
X70813047Y36433429D01*
X70860666Y36338191D01*
X70860666Y36100096D01*
X70813047Y36004858D01*
X70765428Y35957239D01*
X70670190Y35909620D01*
X70384476Y35909620D01*
X70289238Y35957239D01*
X70241619Y36004858D01*
%TO.C,J2*%
X92403166Y36909620D02*
X92403166Y36195334D01*
X92355547Y36052477D01*
X92260309Y35957239D01*
X92117452Y35909620D01*
X92022214Y35909620D01*
X92831738Y36814381D02*
X92879357Y36862000D01*
X92974595Y36909620D01*
X93212690Y36909620D01*
X93307928Y36862000D01*
X93355547Y36814381D01*
X93403166Y36719143D01*
X93403166Y36623905D01*
X93355547Y36481048D01*
X92784119Y35909620D01*
X93403166Y35909620D01*
%TO.C,J12*%
X65865476Y36502620D02*
X65865476Y35788334D01*
X65817857Y35645477D01*
X65722619Y35550239D01*
X65579761Y35502620D01*
X65484523Y35502620D01*
X66865476Y35502620D02*
X66294047Y35502620D01*
X66579761Y35502620D02*
X66579761Y36502620D01*
X66484523Y36359762D01*
X66389285Y36264524D01*
X66294047Y36216905D01*
X67246428Y36407381D02*
X67294047Y36455000D01*
X67389285Y36502620D01*
X67627380Y36502620D01*
X67722619Y36455000D01*
X67770238Y36407381D01*
X67817857Y36312143D01*
X67817857Y36216905D01*
X67770238Y36074048D01*
X67198809Y35502620D01*
X67817857Y35502620D01*
%TO.C,U1*%
X33005380Y32566096D02*
X33814904Y32566096D01*
X33910142Y32613715D01*
X33957761Y32661334D01*
X34005380Y32756572D01*
X34005380Y32947048D01*
X33957761Y33042286D01*
X33910142Y33089905D01*
X33814904Y33137524D01*
X33005380Y33137524D01*
X34005380Y34137524D02*
X34005380Y33566096D01*
X34005380Y33851810D02*
X33005380Y33851810D01*
X33148238Y33756572D01*
X33243476Y33661334D01*
X33291095Y33566096D01*
%TO.C,Q2*%
X17948761Y35358381D02*
X17853523Y35406000D01*
X17758285Y35501239D01*
X17615428Y35644096D01*
X17520190Y35691715D01*
X17424952Y35691715D01*
X17472571Y35453620D02*
X17377333Y35501239D01*
X17282095Y35596477D01*
X17234476Y35786953D01*
X17234476Y36120286D01*
X17282095Y36310762D01*
X17377333Y36406000D01*
X17472571Y36453620D01*
X17663047Y36453620D01*
X17758285Y36406000D01*
X17853523Y36310762D01*
X17901142Y36120286D01*
X17901142Y35786953D01*
X17853523Y35596477D01*
X17758285Y35501239D01*
X17663047Y35453620D01*
X17472571Y35453620D01*
X18282095Y36358381D02*
X18329714Y36406000D01*
X18424952Y36453620D01*
X18663047Y36453620D01*
X18758285Y36406000D01*
X18805904Y36358381D01*
X18853523Y36263143D01*
X18853523Y36167905D01*
X18805904Y36025048D01*
X18234476Y35453620D01*
X18853523Y35453620D01*
%TO.C,R11*%
X35085380Y36685143D02*
X34609190Y36351810D01*
X35085380Y36113715D02*
X34085380Y36113715D01*
X34085380Y36494667D01*
X34133000Y36589905D01*
X34180619Y36637524D01*
X34275857Y36685143D01*
X34418714Y36685143D01*
X34513952Y36637524D01*
X34561571Y36589905D01*
X34609190Y36494667D01*
X34609190Y36113715D01*
X35085380Y37637524D02*
X35085380Y37066096D01*
X35085380Y37351810D02*
X34085380Y37351810D01*
X34228238Y37256572D01*
X34323476Y37161334D01*
X34371095Y37066096D01*
X35085380Y38589905D02*
X35085380Y38018477D01*
X35085380Y38304191D02*
X34085380Y38304191D01*
X34228238Y38208953D01*
X34323476Y38113715D01*
X34371095Y38018477D01*
%TO.C,R10*%
X29466142Y47565620D02*
X29132809Y48041810D01*
X28894714Y47565620D02*
X28894714Y48565620D01*
X29275666Y48565620D01*
X29370904Y48518000D01*
X29418523Y48470381D01*
X29466142Y48375143D01*
X29466142Y48232286D01*
X29418523Y48137048D01*
X29370904Y48089429D01*
X29275666Y48041810D01*
X28894714Y48041810D01*
X30418523Y47565620D02*
X29847095Y47565620D01*
X30132809Y47565620D02*
X30132809Y48565620D01*
X30037571Y48422762D01*
X29942333Y48327524D01*
X29847095Y48279905D01*
X31037571Y48565620D02*
X31132809Y48565620D01*
X31228047Y48518000D01*
X31275666Y48470381D01*
X31323285Y48375143D01*
X31370904Y48184667D01*
X31370904Y47946572D01*
X31323285Y47756096D01*
X31275666Y47660858D01*
X31228047Y47613239D01*
X31132809Y47565620D01*
X31037571Y47565620D01*
X30942333Y47613239D01*
X30894714Y47660858D01*
X30847095Y47756096D01*
X30799476Y47946572D01*
X30799476Y48184667D01*
X30847095Y48375143D01*
X30894714Y48470381D01*
X30942333Y48518000D01*
X31037571Y48565620D01*
%TO.C,R9*%
X30485380Y41761334D02*
X30009190Y41428000D01*
X30485380Y41189905D02*
X29485380Y41189905D01*
X29485380Y41570858D01*
X29533000Y41666096D01*
X29580619Y41713715D01*
X29675857Y41761334D01*
X29818714Y41761334D01*
X29913952Y41713715D01*
X29961571Y41666096D01*
X30009190Y41570858D01*
X30009190Y41189905D01*
X30485380Y42237524D02*
X30485380Y42428000D01*
X30437761Y42523239D01*
X30390142Y42570858D01*
X30247285Y42666096D01*
X30056809Y42713715D01*
X29675857Y42713715D01*
X29580619Y42666096D01*
X29533000Y42618477D01*
X29485380Y42523239D01*
X29485380Y42332762D01*
X29533000Y42237524D01*
X29580619Y42189905D01*
X29675857Y42142286D01*
X29913952Y42142286D01*
X30009190Y42189905D01*
X30056809Y42237524D01*
X30104428Y42332762D01*
X30104428Y42523239D01*
X30056809Y42618477D01*
X30009190Y42666096D01*
X29913952Y42713715D01*
%TO.C,R8*%
X38641333Y25806620D02*
X38308000Y26282810D01*
X38069904Y25806620D02*
X38069904Y26806620D01*
X38450857Y26806620D01*
X38546095Y26759000D01*
X38593714Y26711381D01*
X38641333Y26616143D01*
X38641333Y26473286D01*
X38593714Y26378048D01*
X38546095Y26330429D01*
X38450857Y26282810D01*
X38069904Y26282810D01*
X39212761Y26378048D02*
X39117523Y26425667D01*
X39069904Y26473286D01*
X39022285Y26568524D01*
X39022285Y26616143D01*
X39069904Y26711381D01*
X39117523Y26759000D01*
X39212761Y26806620D01*
X39403238Y26806620D01*
X39498476Y26759000D01*
X39546095Y26711381D01*
X39593714Y26616143D01*
X39593714Y26568524D01*
X39546095Y26473286D01*
X39498476Y26425667D01*
X39403238Y26378048D01*
X39212761Y26378048D01*
X39117523Y26330429D01*
X39069904Y26282810D01*
X39022285Y26187572D01*
X39022285Y25997096D01*
X39069904Y25901858D01*
X39117523Y25854239D01*
X39212761Y25806620D01*
X39403238Y25806620D01*
X39498476Y25854239D01*
X39546095Y25901858D01*
X39593714Y25997096D01*
X39593714Y26187572D01*
X39546095Y26282810D01*
X39498476Y26330429D01*
X39403238Y26378048D01*
%TO.C,R7*%
X25624333Y28706120D02*
X25291000Y29182310D01*
X25052904Y28706120D02*
X25052904Y29706120D01*
X25433857Y29706120D01*
X25529095Y29658500D01*
X25576714Y29610881D01*
X25624333Y29515643D01*
X25624333Y29372786D01*
X25576714Y29277548D01*
X25529095Y29229929D01*
X25433857Y29182310D01*
X25052904Y29182310D01*
X25957666Y29706120D02*
X26624333Y29706120D01*
X26195761Y28706120D01*
%TO.C,R6*%
X31075333Y19401620D02*
X30742000Y19877810D01*
X30503904Y19401620D02*
X30503904Y20401620D01*
X30884857Y20401620D01*
X30980095Y20354000D01*
X31027714Y20306381D01*
X31075333Y20211143D01*
X31075333Y20068286D01*
X31027714Y19973048D01*
X30980095Y19925429D01*
X30884857Y19877810D01*
X30503904Y19877810D01*
X31932476Y20401620D02*
X31742000Y20401620D01*
X31646761Y20354000D01*
X31599142Y20306381D01*
X31503904Y20163524D01*
X31456285Y19973048D01*
X31456285Y19592096D01*
X31503904Y19496858D01*
X31551523Y19449239D01*
X31646761Y19401620D01*
X31837238Y19401620D01*
X31932476Y19449239D01*
X31980095Y19496858D01*
X32027714Y19592096D01*
X32027714Y19830191D01*
X31980095Y19925429D01*
X31932476Y19973048D01*
X31837238Y20020667D01*
X31646761Y20020667D01*
X31551523Y19973048D01*
X31503904Y19925429D01*
X31456285Y19830191D01*
%TO.C,R5*%
X22508380Y19391334D02*
X22032190Y19058000D01*
X22508380Y18819905D02*
X21508380Y18819905D01*
X21508380Y19200858D01*
X21556000Y19296096D01*
X21603619Y19343715D01*
X21698857Y19391334D01*
X21841714Y19391334D01*
X21936952Y19343715D01*
X21984571Y19296096D01*
X22032190Y19200858D01*
X22032190Y18819905D01*
X21508380Y20296096D02*
X21508380Y19819905D01*
X21984571Y19772286D01*
X21936952Y19819905D01*
X21889333Y19915143D01*
X21889333Y20153239D01*
X21936952Y20248477D01*
X21984571Y20296096D01*
X22079809Y20343715D01*
X22317904Y20343715D01*
X22413142Y20296096D01*
X22460761Y20248477D01*
X22508380Y20153239D01*
X22508380Y19915143D01*
X22460761Y19819905D01*
X22413142Y19772286D01*
%TO.C,R4*%
X27021333Y26102620D02*
X26688000Y26578810D01*
X26449904Y26102620D02*
X26449904Y27102620D01*
X26830857Y27102620D01*
X26926095Y27055000D01*
X26973714Y27007381D01*
X27021333Y26912143D01*
X27021333Y26769286D01*
X26973714Y26674048D01*
X26926095Y26626429D01*
X26830857Y26578810D01*
X26449904Y26578810D01*
X27878476Y26769286D02*
X27878476Y26102620D01*
X27640380Y27150239D02*
X27402285Y26435953D01*
X28021333Y26435953D01*
%TO.C,R3*%
X35874380Y23661334D02*
X35398190Y23328000D01*
X35874380Y23089905D02*
X34874380Y23089905D01*
X34874380Y23470858D01*
X34922000Y23566096D01*
X34969619Y23613715D01*
X35064857Y23661334D01*
X35207714Y23661334D01*
X35302952Y23613715D01*
X35350571Y23566096D01*
X35398190Y23470858D01*
X35398190Y23089905D01*
X34874380Y23994667D02*
X34874380Y24613715D01*
X35255333Y24280381D01*
X35255333Y24423239D01*
X35302952Y24518477D01*
X35350571Y24566096D01*
X35445809Y24613715D01*
X35683904Y24613715D01*
X35779142Y24566096D01*
X35826761Y24518477D01*
X35874380Y24423239D01*
X35874380Y24137524D01*
X35826761Y24042286D01*
X35779142Y23994667D01*
%TO.C,R2*%
X29566380Y23661334D02*
X29090190Y23328000D01*
X29566380Y23089905D02*
X28566380Y23089905D01*
X28566380Y23470858D01*
X28614000Y23566096D01*
X28661619Y23613715D01*
X28756857Y23661334D01*
X28899714Y23661334D01*
X28994952Y23613715D01*
X29042571Y23566096D01*
X29090190Y23470858D01*
X29090190Y23089905D01*
X28661619Y24042286D02*
X28614000Y24089905D01*
X28566380Y24185143D01*
X28566380Y24423239D01*
X28614000Y24518477D01*
X28661619Y24566096D01*
X28756857Y24613715D01*
X28852095Y24613715D01*
X28994952Y24566096D01*
X29566380Y23994667D01*
X29566380Y24613715D01*
%TO.C,Q3*%
X18050361Y28886381D02*
X17955123Y28934000D01*
X17859885Y29029239D01*
X17717028Y29172096D01*
X17621790Y29219715D01*
X17526552Y29219715D01*
X17574171Y28981620D02*
X17478933Y29029239D01*
X17383695Y29124477D01*
X17336076Y29314953D01*
X17336076Y29648286D01*
X17383695Y29838762D01*
X17478933Y29934000D01*
X17574171Y29981620D01*
X17764647Y29981620D01*
X17859885Y29934000D01*
X17955123Y29838762D01*
X18002742Y29648286D01*
X18002742Y29314953D01*
X17955123Y29124477D01*
X17859885Y29029239D01*
X17764647Y28981620D01*
X17574171Y28981620D01*
X18336076Y29981620D02*
X18955123Y29981620D01*
X18621790Y29600667D01*
X18764647Y29600667D01*
X18859885Y29553048D01*
X18907504Y29505429D01*
X18955123Y29410191D01*
X18955123Y29172096D01*
X18907504Y29076858D01*
X18859885Y29029239D01*
X18764647Y28981620D01*
X18478933Y28981620D01*
X18383695Y29029239D01*
X18336076Y29076858D01*
%TO.C,L1*%
X23465333Y35569620D02*
X22989142Y35569620D01*
X22989142Y36569620D01*
X24322476Y35569620D02*
X23751047Y35569620D01*
X24036761Y35569620D02*
X24036761Y36569620D01*
X23941523Y36426762D01*
X23846285Y36331524D01*
X23751047Y36283905D01*
%TO.C,C10*%
X34960142Y31585143D02*
X35007761Y31537524D01*
X35055380Y31394667D01*
X35055380Y31299429D01*
X35007761Y31156572D01*
X34912523Y31061334D01*
X34817285Y31013715D01*
X34626809Y30966096D01*
X34483952Y30966096D01*
X34293476Y31013715D01*
X34198238Y31061334D01*
X34103000Y31156572D01*
X34055380Y31299429D01*
X34055380Y31394667D01*
X34103000Y31537524D01*
X34150619Y31585143D01*
X35055380Y32537524D02*
X35055380Y31966096D01*
X35055380Y32251810D02*
X34055380Y32251810D01*
X34198238Y32156572D01*
X34293476Y32061334D01*
X34341095Y31966096D01*
X34055380Y33156572D02*
X34055380Y33251810D01*
X34103000Y33347048D01*
X34150619Y33394667D01*
X34245857Y33442286D01*
X34436333Y33489905D01*
X34674428Y33489905D01*
X34864904Y33442286D01*
X34960142Y33394667D01*
X35007761Y33347048D01*
X35055380Y33251810D01*
X35055380Y33156572D01*
X35007761Y33061334D01*
X34960142Y33013715D01*
X34864904Y32966096D01*
X34674428Y32918477D01*
X34436333Y32918477D01*
X34245857Y32966096D01*
X34150619Y33013715D01*
X34103000Y33061334D01*
X34055380Y33156572D01*
%TO.C,C9*%
X25486333Y35220858D02*
X25438714Y35173239D01*
X25295857Y35125620D01*
X25200619Y35125620D01*
X25057761Y35173239D01*
X24962523Y35268477D01*
X24914904Y35363715D01*
X24867285Y35554191D01*
X24867285Y35697048D01*
X24914904Y35887524D01*
X24962523Y35982762D01*
X25057761Y36078000D01*
X25200619Y36125620D01*
X25295857Y36125620D01*
X25438714Y36078000D01*
X25486333Y36030381D01*
X25962523Y35125620D02*
X26153000Y35125620D01*
X26248238Y35173239D01*
X26295857Y35220858D01*
X26391095Y35363715D01*
X26438714Y35554191D01*
X26438714Y35935143D01*
X26391095Y36030381D01*
X26343476Y36078000D01*
X26248238Y36125620D01*
X26057761Y36125620D01*
X25962523Y36078000D01*
X25914904Y36030381D01*
X25867285Y35935143D01*
X25867285Y35697048D01*
X25914904Y35601810D01*
X25962523Y35554191D01*
X26057761Y35506572D01*
X26248238Y35506572D01*
X26343476Y35554191D01*
X26391095Y35601810D01*
X26438714Y35697048D01*
%TO.C,C8*%
X39460142Y32061334D02*
X39507761Y32013715D01*
X39555380Y31870858D01*
X39555380Y31775620D01*
X39507761Y31632762D01*
X39412523Y31537524D01*
X39317285Y31489905D01*
X39126809Y31442286D01*
X38983952Y31442286D01*
X38793476Y31489905D01*
X38698238Y31537524D01*
X38603000Y31632762D01*
X38555380Y31775620D01*
X38555380Y31870858D01*
X38603000Y32013715D01*
X38650619Y32061334D01*
X38983952Y32632762D02*
X38936333Y32537524D01*
X38888714Y32489905D01*
X38793476Y32442286D01*
X38745857Y32442286D01*
X38650619Y32489905D01*
X38603000Y32537524D01*
X38555380Y32632762D01*
X38555380Y32823239D01*
X38603000Y32918477D01*
X38650619Y32966096D01*
X38745857Y33013715D01*
X38793476Y33013715D01*
X38888714Y32966096D01*
X38936333Y32918477D01*
X38983952Y32823239D01*
X38983952Y32632762D01*
X39031571Y32537524D01*
X39079190Y32489905D01*
X39174428Y32442286D01*
X39364904Y32442286D01*
X39460142Y32489905D01*
X39507761Y32537524D01*
X39555380Y32632762D01*
X39555380Y32823239D01*
X39507761Y32918477D01*
X39460142Y32966096D01*
X39364904Y33013715D01*
X39174428Y33013715D01*
X39079190Y32966096D01*
X39031571Y32918477D01*
X38983952Y32823239D01*
%TO.C,C7*%
X27060142Y41861334D02*
X27107761Y41813715D01*
X27155380Y41670858D01*
X27155380Y41575620D01*
X27107761Y41432762D01*
X27012523Y41337524D01*
X26917285Y41289905D01*
X26726809Y41242286D01*
X26583952Y41242286D01*
X26393476Y41289905D01*
X26298238Y41337524D01*
X26203000Y41432762D01*
X26155380Y41575620D01*
X26155380Y41670858D01*
X26203000Y41813715D01*
X26250619Y41861334D01*
X26155380Y42194667D02*
X26155380Y42861334D01*
X27155380Y42432762D01*
%TO.C,C4*%
X23465333Y31942858D02*
X23417714Y31895239D01*
X23274857Y31847620D01*
X23179619Y31847620D01*
X23036761Y31895239D01*
X22941523Y31990477D01*
X22893904Y32085715D01*
X22846285Y32276191D01*
X22846285Y32419048D01*
X22893904Y32609524D01*
X22941523Y32704762D01*
X23036761Y32800000D01*
X23179619Y32847620D01*
X23274857Y32847620D01*
X23417714Y32800000D01*
X23465333Y32752381D01*
X24322476Y32514286D02*
X24322476Y31847620D01*
X24084380Y32895239D02*
X23846285Y32180953D01*
X24465333Y32180953D01*
%TO.C,C3*%
X27060142Y41861334D02*
X27107761Y41813715D01*
X27155380Y41670858D01*
X27155380Y41575620D01*
X27107761Y41432762D01*
X27012523Y41337524D01*
X26917285Y41289905D01*
X26726809Y41242286D01*
X26583952Y41242286D01*
X26393476Y41289905D01*
X26298238Y41337524D01*
X26203000Y41432762D01*
X26155380Y41575620D01*
X26155380Y41670858D01*
X26203000Y41813715D01*
X26250619Y41861334D01*
X26155380Y42194667D02*
X26155380Y42813715D01*
X26536333Y42480381D01*
X26536333Y42623239D01*
X26583952Y42718477D01*
X26631571Y42766096D01*
X26726809Y42813715D01*
X26964904Y42813715D01*
X27060142Y42766096D01*
X27107761Y42718477D01*
X27155380Y42623239D01*
X27155380Y42337524D01*
X27107761Y42242286D01*
X27060142Y42194667D01*
%TO.C,C2*%
X13947642Y35934834D02*
X13995261Y35887215D01*
X14042880Y35744358D01*
X14042880Y35649120D01*
X13995261Y35506262D01*
X13900023Y35411024D01*
X13804785Y35363405D01*
X13614309Y35315786D01*
X13471452Y35315786D01*
X13280976Y35363405D01*
X13185738Y35411024D01*
X13090500Y35506262D01*
X13042880Y35649120D01*
X13042880Y35744358D01*
X13090500Y35887215D01*
X13138119Y35934834D01*
X13138119Y36315786D02*
X13090500Y36363405D01*
X13042880Y36458643D01*
X13042880Y36696739D01*
X13090500Y36791977D01*
X13138119Y36839596D01*
X13233357Y36887215D01*
X13328595Y36887215D01*
X13471452Y36839596D01*
X14042880Y36268167D01*
X14042880Y36887215D01*
%TO.C,C1*%
X9660833Y29576358D02*
X9613214Y29528739D01*
X9470357Y29481120D01*
X9375119Y29481120D01*
X9232261Y29528739D01*
X9137023Y29623977D01*
X9089404Y29719215D01*
X9041785Y29909691D01*
X9041785Y30052548D01*
X9089404Y30243024D01*
X9137023Y30338262D01*
X9232261Y30433500D01*
X9375119Y30481120D01*
X9470357Y30481120D01*
X9613214Y30433500D01*
X9660833Y30385881D01*
X10613214Y29481120D02*
X10041785Y29481120D01*
X10327500Y29481120D02*
X10327500Y30481120D01*
X10232261Y30338262D01*
X10137023Y30243024D01*
X10041785Y30195405D01*
%TO.C,J4*%
X54145380Y2176667D02*
X54859666Y2176667D01*
X55002523Y2129048D01*
X55097761Y2033810D01*
X55145380Y1890953D01*
X55145380Y1795715D01*
X54478714Y3081429D02*
X55145380Y3081429D01*
X54097761Y2843334D02*
X54812047Y2605239D01*
X54812047Y3224286D01*
%TO.C,H7*%
X88238095Y12763620D02*
X88238095Y13763620D01*
X88238095Y13287429D02*
X88809523Y13287429D01*
X88809523Y12763620D02*
X88809523Y13763620D01*
X89190476Y13763620D02*
X89857142Y13763620D01*
X89428571Y12763620D01*
%TO.C,H6*%
X4238095Y58047620D02*
X4238095Y59047620D01*
X4238095Y58571429D02*
X4809523Y58571429D01*
X4809523Y58047620D02*
X4809523Y59047620D01*
X5714285Y59047620D02*
X5523809Y59047620D01*
X5428571Y59000000D01*
X5380952Y58952381D01*
X5285714Y58809524D01*
X5238095Y58619048D01*
X5238095Y58238096D01*
X5285714Y58142858D01*
X5333333Y58095239D01*
X5428571Y58047620D01*
X5619047Y58047620D01*
X5714285Y58095239D01*
X5761904Y58142858D01*
X5809523Y58238096D01*
X5809523Y58476191D01*
X5761904Y58571429D01*
X5714285Y58619048D01*
X5619047Y58666667D01*
X5428571Y58666667D01*
X5333333Y58619048D01*
X5285714Y58571429D01*
X5238095Y58476191D01*
%TO.C,C5*%
X73871142Y18015834D02*
X73918761Y17968215D01*
X73966380Y17825358D01*
X73966380Y17730120D01*
X73918761Y17587262D01*
X73823523Y17492024D01*
X73728285Y17444405D01*
X73537809Y17396786D01*
X73394952Y17396786D01*
X73204476Y17444405D01*
X73109238Y17492024D01*
X73014000Y17587262D01*
X72966380Y17730120D01*
X72966380Y17825358D01*
X73014000Y17968215D01*
X73061619Y18015834D01*
X72966380Y18920596D02*
X72966380Y18444405D01*
X73442571Y18396786D01*
X73394952Y18444405D01*
X73347333Y18539643D01*
X73347333Y18777739D01*
X73394952Y18872977D01*
X73442571Y18920596D01*
X73537809Y18968215D01*
X73775904Y18968215D01*
X73871142Y18920596D01*
X73918761Y18872977D01*
X73966380Y18777739D01*
X73966380Y18539643D01*
X73918761Y18444405D01*
X73871142Y18396786D01*
%TO.C,C6*%
X79488142Y18099834D02*
X79535761Y18052215D01*
X79583380Y17909358D01*
X79583380Y17814120D01*
X79535761Y17671262D01*
X79440523Y17576024D01*
X79345285Y17528405D01*
X79154809Y17480786D01*
X79011952Y17480786D01*
X78821476Y17528405D01*
X78726238Y17576024D01*
X78631000Y17671262D01*
X78583380Y17814120D01*
X78583380Y17909358D01*
X78631000Y18052215D01*
X78678619Y18099834D01*
X78583380Y18956977D02*
X78583380Y18766500D01*
X78631000Y18671262D01*
X78678619Y18623643D01*
X78821476Y18528405D01*
X79011952Y18480786D01*
X79392904Y18480786D01*
X79488142Y18528405D01*
X79535761Y18576024D01*
X79583380Y18671262D01*
X79583380Y18861739D01*
X79535761Y18956977D01*
X79488142Y19004596D01*
X79392904Y19052215D01*
X79154809Y19052215D01*
X79059571Y19004596D01*
X79011952Y18956977D01*
X78964333Y18861739D01*
X78964333Y18671262D01*
X79011952Y18576024D01*
X79059571Y18528405D01*
X79154809Y18480786D01*
%TO.C,H5*%
X4238095Y13047620D02*
X4238095Y14047620D01*
X4238095Y13571429D02*
X4809523Y13571429D01*
X4809523Y13047620D02*
X4809523Y14047620D01*
X5761904Y14047620D02*
X5285714Y14047620D01*
X5238095Y13571429D01*
X5285714Y13619048D01*
X5380952Y13666667D01*
X5619047Y13666667D01*
X5714285Y13619048D01*
X5761904Y13571429D01*
X5809523Y13476191D01*
X5809523Y13238096D01*
X5761904Y13142858D01*
X5714285Y13095239D01*
X5619047Y13047620D01*
X5380952Y13047620D01*
X5285714Y13095239D01*
X5238095Y13142858D01*
%TD*%
M02*
