M48
; DRILL file {KiCad (5.1.9)-1} date 02/26/21 10:07:15
; FORMAT={-:-/ absolute / inch / decimal}
; #@! TF.CreationDate,2021-02-26T10:07:15-07:00
; #@! TF.GenerationSoftware,Kicad,Pcbnew,(5.1.9)-1
; #@! TF.FileFunction,Plated,1,2,PTH
FMAT,2
INCH
T1C0.0300
T2C0.0394
T3C0.0500
T4C0.0984
T5C0.1772
%
G90
G05
T1
X1.345Y1.855
X1.37Y0.745
X1.51Y1.1
X1.69Y0.51
X1.73Y0.93
X1.845Y0.95
X2.1025Y1.505
X2.1075Y1.4275
X2.86Y0.77
X3.091Y1.919
X3.1475Y1.8
T2
X0.4554Y2.2688
X0.5554Y2.2688
X0.6554Y2.2688
X0.7554Y2.2688
X0.8554Y2.2688
X0.9554Y2.2688
X1.355Y0.08
X1.455Y0.08
X1.555Y0.08
X1.6454Y2.27
X1.6454Y2.17
X1.655Y0.08
X1.7454Y2.27
X1.7454Y2.17
X1.755Y0.08
X1.8454Y2.27
X1.8454Y2.17
X1.855Y0.08
X1.9125Y1.735
X1.9125Y0.6475
X1.9454Y2.27
X1.9454Y2.17
X1.955Y0.08
X2.0125Y1.735
X2.0125Y0.6475
X2.0454Y2.27
X2.0454Y2.17
X2.1125Y1.735
X2.1125Y0.6475
X2.1454Y2.27
X2.1454Y2.17
X2.2125Y1.735
X2.2125Y0.6475
X2.245Y0.0788
X2.2454Y2.27
X2.2454Y2.17
X2.3125Y1.735
X2.3125Y0.6475
X2.345Y0.0788
X2.3454Y2.27
X2.3454Y2.17
X2.4125Y1.735
X2.4125Y0.6475
X2.445Y0.0788
X2.4454Y2.27
X2.4454Y2.17
X2.5125Y1.735
X2.5125Y0.6475
X2.545Y0.0788
X2.5454Y2.27
X2.5454Y2.17
X2.6125Y1.735
X2.6125Y0.6475
X2.625Y1.5275
X2.625Y1.4275
X2.645Y0.0788
X2.6454Y2.27
X2.6454Y2.17
X2.745Y0.0788
X2.7454Y2.27
X2.7454Y2.17
X2.845Y0.0788
X2.8454Y2.27
X2.8454Y2.17
X2.8539Y1.5754
X2.8539Y1.4754
X2.8539Y1.3754
X2.8539Y1.2754
X2.945Y0.0788
X2.9454Y2.27
X2.9454Y2.17
X3.045Y2.025
X3.045Y0.0788
X3.0454Y2.27
X3.0454Y2.17
X3.145Y2.025
X3.145Y0.0788
X3.1454Y2.27
X3.1454Y2.17
X3.245Y2.025
X3.245Y0.0788
X3.2454Y2.27
X3.2454Y2.17
X3.345Y2.025
X3.345Y0.0788
X3.3454Y2.27
X3.3454Y2.17
X3.445Y2.025
X3.445Y0.0788
X3.4454Y2.27
X3.4454Y2.17
X3.545Y2.025
X3.545Y0.0788
X3.5454Y2.27
X3.5454Y2.17
X3.5539Y1.6754
X3.5539Y1.5754
X3.5539Y1.4754
X3.5539Y1.3754
X3.5539Y1.2754
X3.5539Y1.1754
T3
X1.52Y1.655
T4
X0.1969Y2.1654
X0.1969Y0.3937
X2.9039Y1.8504
X2.9039Y1.0004
X3.5039Y1.8504
X3.5039Y1.0004
X3.5039Y0.3825
T5
X0.56Y0.23
X0.8435Y0.23
T0
M30
