%TF.GenerationSoftware,KiCad,Pcbnew,(5.1.9)-1*%
%TF.CreationDate,2021-02-26T10:07:17-07:00*%
%TF.ProjectId,CapstoneBoard,43617073-746f-46e6-9542-6f6172642e6b,3*%
%TF.SameCoordinates,PX4c4b400PY6bc3e40*%
%TF.FileFunction,Soldermask,Top*%
%TF.FilePolarity,Negative*%
%FSLAX46Y46*%
G04 Gerber Fmt 4.6, Leading zero omitted, Abs format (unit mm)*
G04 Created by KiCad (PCBNEW (5.1.9)-1) date 2021-02-26 10:07:17*
%MOMM*%
%LPD*%
G01*
G04 APERTURE LIST*
%ADD10R,1.700000X1.700000*%
%ADD11O,1.700000X1.700000*%
%ADD12R,1.500000X1.000000*%
%ADD13R,0.410000X1.600000*%
%ADD14C,0.100000*%
%ADD15R,1.500000X1.200000*%
%ADD16C,5.000000*%
%ADD17C,6.000000*%
%ADD18C,1.270000*%
%ADD19C,2.540000*%
G04 APERTURE END LIST*
D10*
%TO.C,J3*%
X72490000Y32395000D03*
D11*
X72490000Y34935000D03*
X72490000Y37475000D03*
X72490000Y40015000D03*
%TD*%
D10*
%TO.C,J2*%
X90270000Y29855000D03*
D11*
X90270000Y32395000D03*
X90270000Y34935000D03*
X90270000Y37475000D03*
X90270000Y40015000D03*
X90270000Y42555000D03*
%TD*%
%TO.C,J11*%
X77343000Y51435000D03*
X79883000Y51435000D03*
X82423000Y51435000D03*
X84963000Y51435000D03*
X87503000Y51435000D03*
D10*
X90043000Y51435000D03*
%TD*%
D11*
%TO.C,J12*%
X66675000Y36258500D03*
D10*
X66675000Y38798500D03*
%TD*%
%TO.C,U3*%
G36*
G01*
X80506600Y31258800D02*
X80306600Y31258800D01*
G75*
G02*
X80206600Y31358800I0J100000D01*
G01*
X80206600Y32633800D01*
G75*
G02*
X80306600Y32733800I100000J0D01*
G01*
X80506600Y32733800D01*
G75*
G02*
X80606600Y32633800I0J-100000D01*
G01*
X80606600Y31358800D01*
G75*
G02*
X80506600Y31258800I-100000J0D01*
G01*
G37*
G36*
G01*
X81156600Y31258800D02*
X80956600Y31258800D01*
G75*
G02*
X80856600Y31358800I0J100000D01*
G01*
X80856600Y32633800D01*
G75*
G02*
X80956600Y32733800I100000J0D01*
G01*
X81156600Y32733800D01*
G75*
G02*
X81256600Y32633800I0J-100000D01*
G01*
X81256600Y31358800D01*
G75*
G02*
X81156600Y31258800I-100000J0D01*
G01*
G37*
G36*
G01*
X81806600Y31258800D02*
X81606600Y31258800D01*
G75*
G02*
X81506600Y31358800I0J100000D01*
G01*
X81506600Y32633800D01*
G75*
G02*
X81606600Y32733800I100000J0D01*
G01*
X81806600Y32733800D01*
G75*
G02*
X81906600Y32633800I0J-100000D01*
G01*
X81906600Y31358800D01*
G75*
G02*
X81806600Y31258800I-100000J0D01*
G01*
G37*
G36*
G01*
X82456600Y31258800D02*
X82256600Y31258800D01*
G75*
G02*
X82156600Y31358800I0J100000D01*
G01*
X82156600Y32633800D01*
G75*
G02*
X82256600Y32733800I100000J0D01*
G01*
X82456600Y32733800D01*
G75*
G02*
X82556600Y32633800I0J-100000D01*
G01*
X82556600Y31358800D01*
G75*
G02*
X82456600Y31258800I-100000J0D01*
G01*
G37*
G36*
G01*
X82456600Y25533800D02*
X82256600Y25533800D01*
G75*
G02*
X82156600Y25633800I0J100000D01*
G01*
X82156600Y26908800D01*
G75*
G02*
X82256600Y27008800I100000J0D01*
G01*
X82456600Y27008800D01*
G75*
G02*
X82556600Y26908800I0J-100000D01*
G01*
X82556600Y25633800D01*
G75*
G02*
X82456600Y25533800I-100000J0D01*
G01*
G37*
G36*
G01*
X81806600Y25533800D02*
X81606600Y25533800D01*
G75*
G02*
X81506600Y25633800I0J100000D01*
G01*
X81506600Y26908800D01*
G75*
G02*
X81606600Y27008800I100000J0D01*
G01*
X81806600Y27008800D01*
G75*
G02*
X81906600Y26908800I0J-100000D01*
G01*
X81906600Y25633800D01*
G75*
G02*
X81806600Y25533800I-100000J0D01*
G01*
G37*
G36*
G01*
X81156600Y25533800D02*
X80956600Y25533800D01*
G75*
G02*
X80856600Y25633800I0J100000D01*
G01*
X80856600Y26908800D01*
G75*
G02*
X80956600Y27008800I100000J0D01*
G01*
X81156600Y27008800D01*
G75*
G02*
X81256600Y26908800I0J-100000D01*
G01*
X81256600Y25633800D01*
G75*
G02*
X81156600Y25533800I-100000J0D01*
G01*
G37*
G36*
G01*
X80506600Y25533800D02*
X80306600Y25533800D01*
G75*
G02*
X80206600Y25633800I0J100000D01*
G01*
X80206600Y26908800D01*
G75*
G02*
X80306600Y27008800I100000J0D01*
G01*
X80506600Y27008800D01*
G75*
G02*
X80606600Y26908800I0J-100000D01*
G01*
X80606600Y25633800D01*
G75*
G02*
X80506600Y25533800I-100000J0D01*
G01*
G37*
%TD*%
%TO.C,R13*%
G36*
G01*
X81850000Y38125001D02*
X81850000Y36874999D01*
G75*
G02*
X81600001Y36625000I-249999J0D01*
G01*
X80799999Y36625000D01*
G75*
G02*
X80550000Y36874999I0J249999D01*
G01*
X80550000Y38125001D01*
G75*
G02*
X80799999Y38375000I249999J0D01*
G01*
X81600001Y38375000D01*
G75*
G02*
X81850000Y38125001I0J-249999D01*
G01*
G37*
G36*
G01*
X84950000Y38125001D02*
X84950000Y36874999D01*
G75*
G02*
X84700001Y36625000I-249999J0D01*
G01*
X83899999Y36625000D01*
G75*
G02*
X83650000Y36874999I0J249999D01*
G01*
X83650000Y38125001D01*
G75*
G02*
X83899999Y38375000I249999J0D01*
G01*
X84700001Y38375000D01*
G75*
G02*
X84950000Y38125001I0J-249999D01*
G01*
G37*
%TD*%
%TO.C,R12*%
G36*
G01*
X81497000Y35423001D02*
X81497000Y34172999D01*
G75*
G02*
X81247001Y33923000I-249999J0D01*
G01*
X80446999Y33923000D01*
G75*
G02*
X80197000Y34172999I0J249999D01*
G01*
X80197000Y35423001D01*
G75*
G02*
X80446999Y35673000I249999J0D01*
G01*
X81247001Y35673000D01*
G75*
G02*
X81497000Y35423001I0J-249999D01*
G01*
G37*
G36*
G01*
X84597000Y35423001D02*
X84597000Y34172999D01*
G75*
G02*
X84347001Y33923000I-249999J0D01*
G01*
X83546999Y33923000D01*
G75*
G02*
X83297000Y34172999I0J249999D01*
G01*
X83297000Y35423001D01*
G75*
G02*
X83546999Y35673000I249999J0D01*
G01*
X84347001Y35673000D01*
G75*
G02*
X84597000Y35423001I0J-249999D01*
G01*
G37*
%TD*%
%TO.C,R1*%
G36*
G01*
X86527801Y31507000D02*
X85277799Y31507000D01*
G75*
G02*
X85027800Y31756999I0J249999D01*
G01*
X85027800Y32557001D01*
G75*
G02*
X85277799Y32807000I249999J0D01*
G01*
X86527801Y32807000D01*
G75*
G02*
X86777800Y32557001I0J-249999D01*
G01*
X86777800Y31756999D01*
G75*
G02*
X86527801Y31507000I-249999J0D01*
G01*
G37*
G36*
G01*
X86527801Y28407000D02*
X85277799Y28407000D01*
G75*
G02*
X85027800Y28656999I0J249999D01*
G01*
X85027800Y29457001D01*
G75*
G02*
X85277799Y29707000I249999J0D01*
G01*
X86527801Y29707000D01*
G75*
G02*
X86777800Y29457001I0J-249999D01*
G01*
X86777800Y28656999D01*
G75*
G02*
X86527801Y28407000I-249999J0D01*
G01*
G37*
%TD*%
D12*
%TO.C,JP1*%
X78250000Y32019000D03*
X78250000Y30719000D03*
%TD*%
%TO.C,C11*%
G36*
G01*
X81300000Y22850003D02*
X81300000Y21549997D01*
G75*
G02*
X81050003Y21300000I-249997J0D01*
G01*
X80224997Y21300000D01*
G75*
G02*
X79975000Y21549997I0J249997D01*
G01*
X79975000Y22850003D01*
G75*
G02*
X80224997Y23100000I249997J0D01*
G01*
X81050003Y23100000D01*
G75*
G02*
X81300000Y22850003I0J-249997D01*
G01*
G37*
G36*
G01*
X84425000Y22850003D02*
X84425000Y21549997D01*
G75*
G02*
X84175003Y21300000I-249997J0D01*
G01*
X83349997Y21300000D01*
G75*
G02*
X83100000Y21549997I0J249997D01*
G01*
X83100000Y22850003D01*
G75*
G02*
X83349997Y23100000I249997J0D01*
G01*
X84175003Y23100000D01*
G75*
G02*
X84425000Y22850003I0J-249997D01*
G01*
G37*
%TD*%
D10*
%TO.C,J5*%
X48577500Y16446500D03*
D11*
X51117500Y16446500D03*
X53657500Y16446500D03*
X56197500Y16446500D03*
X58737500Y16446500D03*
X61277500Y16446500D03*
X63817500Y16446500D03*
X66357500Y16446500D03*
%TD*%
D13*
%TO.C,U2*%
X75438000Y14308300D03*
X74803000Y14308300D03*
X75438000Y8999700D03*
X74803000Y8999700D03*
X73533000Y14308300D03*
X74168000Y14308300D03*
X74168000Y8999700D03*
X73533000Y8999700D03*
X70993000Y8999700D03*
X71628000Y8999700D03*
X72263000Y8999700D03*
X72898000Y8999700D03*
X76073000Y8999700D03*
X76708000Y8999700D03*
X77343000Y8999700D03*
X77978000Y8999700D03*
X77978000Y14308300D03*
X77343000Y14308300D03*
X76708000Y14308300D03*
X76073000Y14308300D03*
X72898000Y14308300D03*
X72263000Y14308300D03*
X71628000Y14308300D03*
X70993000Y14308300D03*
%TD*%
D11*
%TO.C,J8*%
X66357500Y44069000D03*
X63817500Y44069000D03*
X61277500Y44069000D03*
X58737500Y44069000D03*
X56197500Y44069000D03*
X53657500Y44069000D03*
X51117500Y44069000D03*
D10*
X48577500Y44069000D03*
%TD*%
%TO.C,U1*%
G36*
G01*
X28858000Y34103000D02*
X28223000Y34103000D01*
G75*
G02*
X28153000Y34173000I0J70000D01*
G01*
X28153000Y34383000D01*
G75*
G02*
X28223000Y34453000I70000J0D01*
G01*
X28858000Y34453000D01*
G75*
G02*
X28928000Y34383000I0J-70000D01*
G01*
X28928000Y34173000D01*
G75*
G02*
X28858000Y34103000I-70000J0D01*
G01*
G37*
G36*
G01*
X28795500Y33303000D02*
X28210500Y33303000D01*
G75*
G02*
X28140500Y33373000I0J70000D01*
G01*
X28140500Y33583000D01*
G75*
G02*
X28210500Y33653000I70000J0D01*
G01*
X28795500Y33653000D01*
G75*
G02*
X28865500Y33583000I0J-70000D01*
G01*
X28865500Y33373000D01*
G75*
G02*
X28795500Y33303000I-70000J0D01*
G01*
G37*
G36*
G01*
X31258000Y34778000D02*
X31048000Y34778000D01*
G75*
G02*
X30978000Y34848000I0J70000D01*
G01*
X30978000Y35408000D01*
G75*
G02*
X31048000Y35478000I70000J0D01*
G01*
X31258000Y35478000D01*
G75*
G02*
X31328000Y35408000I0J-70000D01*
G01*
X31328000Y34848000D01*
G75*
G02*
X31258000Y34778000I-70000J0D01*
G01*
G37*
G36*
G01*
X30758000Y34653000D02*
X30548000Y34653000D01*
G75*
G02*
X30478000Y34723000I0J70000D01*
G01*
X30478000Y35408000D01*
G75*
G02*
X30548000Y35478000I70000J0D01*
G01*
X30758000Y35478000D01*
G75*
G02*
X30828000Y35408000I0J-70000D01*
G01*
X30828000Y34723000D01*
G75*
G02*
X30758000Y34653000I-70000J0D01*
G01*
G37*
G36*
G01*
X28795500Y32803000D02*
X28210500Y32803000D01*
G75*
G02*
X28140500Y32873000I0J70000D01*
G01*
X28140500Y33083000D01*
G75*
G02*
X28210500Y33153000I70000J0D01*
G01*
X28795500Y33153000D01*
G75*
G02*
X28865500Y33083000I0J-70000D01*
G01*
X28865500Y32873000D01*
G75*
G02*
X28795500Y32803000I-70000J0D01*
G01*
G37*
G36*
G01*
X28858000Y32003000D02*
X28223000Y32003000D01*
G75*
G02*
X28153000Y32073000I0J70000D01*
G01*
X28153000Y32283000D01*
G75*
G02*
X28223000Y32353000I70000J0D01*
G01*
X28858000Y32353000D01*
G75*
G02*
X28928000Y32283000I0J-70000D01*
G01*
X28928000Y32073000D01*
G75*
G02*
X28858000Y32003000I-70000J0D01*
G01*
G37*
G36*
G01*
X30820500Y32990500D02*
X29485500Y32990500D01*
G75*
G02*
X29390500Y33085500I0J95000D01*
G01*
X29390500Y33370500D01*
G75*
G02*
X29485500Y33465500I95000J0D01*
G01*
X30820500Y33465500D01*
G75*
G02*
X30915500Y33370500I0J-95000D01*
G01*
X30915500Y33085500D01*
G75*
G02*
X30820500Y32990500I-95000J0D01*
G01*
G37*
G36*
G01*
X30820500Y32365500D02*
X29485500Y32365500D01*
G75*
G02*
X29390500Y32460500I0J95000D01*
G01*
X29390500Y32745500D01*
G75*
G02*
X29485500Y32840500I95000J0D01*
G01*
X30820500Y32840500D01*
G75*
G02*
X30915500Y32745500I0J-95000D01*
G01*
X30915500Y32460500D01*
G75*
G02*
X30820500Y32365500I-95000J0D01*
G01*
G37*
G36*
G01*
X30820500Y33615500D02*
X29485500Y33615500D01*
G75*
G02*
X29390500Y33710500I0J95000D01*
G01*
X29390500Y33995500D01*
G75*
G02*
X29485500Y34090500I95000J0D01*
G01*
X30820500Y34090500D01*
G75*
G02*
X30915500Y33995500I0J-95000D01*
G01*
X30915500Y33710500D01*
G75*
G02*
X30820500Y33615500I-95000J0D01*
G01*
G37*
G36*
G01*
X30258000Y34653000D02*
X30048000Y34653000D01*
G75*
G02*
X29978000Y34723000I0J70000D01*
G01*
X29978000Y35408000D01*
G75*
G02*
X30048000Y35478000I70000J0D01*
G01*
X30258000Y35478000D01*
G75*
G02*
X30328000Y35408000I0J-70000D01*
G01*
X30328000Y34723000D01*
G75*
G02*
X30258000Y34653000I-70000J0D01*
G01*
G37*
G36*
G01*
X29758000Y34653000D02*
X29548000Y34653000D01*
G75*
G02*
X29478000Y34723000I0J70000D01*
G01*
X29478000Y35408000D01*
G75*
G02*
X29548000Y35478000I70000J0D01*
G01*
X29758000Y35478000D01*
G75*
G02*
X29828000Y35408000I0J-70000D01*
G01*
X29828000Y34723000D01*
G75*
G02*
X29758000Y34653000I-70000J0D01*
G01*
G37*
G36*
G01*
X29258000Y34778000D02*
X29048000Y34778000D01*
G75*
G02*
X28978000Y34848000I0J70000D01*
G01*
X28978000Y35408000D01*
G75*
G02*
X29048000Y35478000I70000J0D01*
G01*
X29258000Y35478000D01*
G75*
G02*
X29328000Y35408000I0J-70000D01*
G01*
X29328000Y34848000D01*
G75*
G02*
X29258000Y34778000I-70000J0D01*
G01*
G37*
G36*
G01*
X29258000Y31003000D02*
X29048000Y31003000D01*
G75*
G02*
X28978000Y31073000I0J70000D01*
G01*
X28978000Y31633000D01*
G75*
G02*
X29048000Y31703000I70000J0D01*
G01*
X29258000Y31703000D01*
G75*
G02*
X29328000Y31633000I0J-70000D01*
G01*
X29328000Y31073000D01*
G75*
G02*
X29258000Y31003000I-70000J0D01*
G01*
G37*
G36*
G01*
X29758000Y30978000D02*
X29548000Y30978000D01*
G75*
G02*
X29478000Y31048000I0J70000D01*
G01*
X29478000Y31733000D01*
G75*
G02*
X29548000Y31803000I70000J0D01*
G01*
X29758000Y31803000D01*
G75*
G02*
X29828000Y31733000I0J-70000D01*
G01*
X29828000Y31048000D01*
G75*
G02*
X29758000Y30978000I-70000J0D01*
G01*
G37*
G36*
G01*
X30258000Y30978000D02*
X30048000Y30978000D01*
G75*
G02*
X29978000Y31048000I0J70000D01*
G01*
X29978000Y31733000D01*
G75*
G02*
X30048000Y31803000I70000J0D01*
G01*
X30258000Y31803000D01*
G75*
G02*
X30328000Y31733000I0J-70000D01*
G01*
X30328000Y31048000D01*
G75*
G02*
X30258000Y30978000I-70000J0D01*
G01*
G37*
G36*
G01*
X30758000Y30978000D02*
X30548000Y30978000D01*
G75*
G02*
X30478000Y31048000I0J70000D01*
G01*
X30478000Y31733000D01*
G75*
G02*
X30548000Y31803000I70000J0D01*
G01*
X30758000Y31803000D01*
G75*
G02*
X30828000Y31733000I0J-70000D01*
G01*
X30828000Y31048000D01*
G75*
G02*
X30758000Y30978000I-70000J0D01*
G01*
G37*
G36*
G01*
X31258000Y31003000D02*
X31048000Y31003000D01*
G75*
G02*
X30978000Y31073000I0J70000D01*
G01*
X30978000Y31633000D01*
G75*
G02*
X31048000Y31703000I70000J0D01*
G01*
X31258000Y31703000D01*
G75*
G02*
X31328000Y31633000I0J-70000D01*
G01*
X31328000Y31073000D01*
G75*
G02*
X31258000Y31003000I-70000J0D01*
G01*
G37*
G36*
G01*
X32083000Y32928000D02*
X31498000Y32928000D01*
G75*
G02*
X31428000Y32998000I0J70000D01*
G01*
X31428000Y33208000D01*
G75*
G02*
X31498000Y33278000I70000J0D01*
G01*
X32083000Y33278000D01*
G75*
G02*
X32153000Y33208000I0J-70000D01*
G01*
X32153000Y32998000D01*
G75*
G02*
X32083000Y32928000I-70000J0D01*
G01*
G37*
G36*
G01*
X32083000Y32428000D02*
X31498000Y32428000D01*
G75*
G02*
X31428000Y32498000I0J70000D01*
G01*
X31428000Y32708000D01*
G75*
G02*
X31498000Y32778000I70000J0D01*
G01*
X32083000Y32778000D01*
G75*
G02*
X32153000Y32708000I0J-70000D01*
G01*
X32153000Y32498000D01*
G75*
G02*
X32083000Y32428000I-70000J0D01*
G01*
G37*
G36*
G01*
X32083000Y31928000D02*
X31498000Y31928000D01*
G75*
G02*
X31428000Y31998000I0J70000D01*
G01*
X31428000Y32208000D01*
G75*
G02*
X31498000Y32278000I70000J0D01*
G01*
X32083000Y32278000D01*
G75*
G02*
X32153000Y32208000I0J-70000D01*
G01*
X32153000Y31998000D01*
G75*
G02*
X32083000Y31928000I-70000J0D01*
G01*
G37*
G36*
G01*
X32083000Y33678000D02*
X31498000Y33678000D01*
G75*
G02*
X31428000Y33748000I0J70000D01*
G01*
X31428000Y33958000D01*
G75*
G02*
X31498000Y34028000I70000J0D01*
G01*
X32083000Y34028000D01*
G75*
G02*
X32153000Y33958000I0J-70000D01*
G01*
X32153000Y33748000D01*
G75*
G02*
X32083000Y33678000I-70000J0D01*
G01*
G37*
G36*
G01*
X32083000Y34178000D02*
X31498000Y34178000D01*
G75*
G02*
X31428000Y34248000I0J70000D01*
G01*
X31428000Y34458000D01*
G75*
G02*
X31498000Y34528000I70000J0D01*
G01*
X32083000Y34528000D01*
G75*
G02*
X32153000Y34458000I0J-70000D01*
G01*
X32153000Y34248000D01*
G75*
G02*
X32083000Y34178000I-70000J0D01*
G01*
G37*
D14*
G36*
X28148012Y31753445D02*
G01*
X28148067Y31755690D01*
X28148306Y31760569D01*
X28148313Y31760569D01*
X28148538Y31763479D01*
X28148532Y31763480D01*
X28148546Y31763619D01*
X28148554Y31763684D01*
X28148561Y31763774D01*
X28148592Y31764050D01*
X28148599Y31764049D01*
X28148617Y31764190D01*
X28148609Y31764191D01*
X28148610Y31764200D01*
X28148649Y31764451D01*
X28148829Y31765906D01*
X28148838Y31765967D01*
X28148883Y31765960D01*
X28148884Y31765965D01*
X28148839Y31765972D01*
X28149540Y31770729D01*
X28149612Y31771202D01*
X28149623Y31771272D01*
X28150025Y31773450D01*
X28150018Y31773451D01*
X28150047Y31773598D01*
X28150079Y31773744D01*
X28150105Y31773885D01*
X28150161Y31774149D01*
X28150167Y31774148D01*
X28150491Y31775624D01*
X28150504Y31775678D01*
X28150606Y31776094D01*
X28151729Y31780598D01*
X28151743Y31780655D01*
X28151748Y31780672D01*
X28151766Y31780745D01*
X28151767Y31780745D01*
X28151776Y31780787D01*
X28151779Y31780799D01*
X28151783Y31780798D01*
X28152507Y31783365D01*
X28152495Y31783369D01*
X28152548Y31783545D01*
X28152615Y31783750D01*
X28152657Y31783898D01*
X28152728Y31784121D01*
X28152736Y31784118D01*
X28153322Y31785903D01*
X28154961Y31790505D01*
X28154969Y31790502D01*
X28155958Y31793044D01*
X28155945Y31793049D01*
X28156015Y31793219D01*
X28156107Y31793429D01*
X28156162Y31793569D01*
X28156255Y31793785D01*
X28156263Y31793782D01*
X28157008Y31795472D01*
X28159088Y31799892D01*
X28159186Y31800099D01*
X28159216Y31800162D01*
X28160320Y31802318D01*
X28160312Y31802322D01*
X28160405Y31802497D01*
X28160483Y31802635D01*
X28160534Y31802735D01*
X28160640Y31802928D01*
X28160646Y31802925D01*
X28161609Y31804633D01*
X28164110Y31808829D01*
X28164184Y31808954D01*
X28164220Y31809014D01*
X28165595Y31811154D01*
X28165587Y31811159D01*
X28165684Y31811305D01*
X28165788Y31811453D01*
X28165875Y31811589D01*
X28166013Y31811790D01*
X28166020Y31811785D01*
X28167081Y31813301D01*
X28169979Y31817233D01*
X28170228Y31817568D01*
X28170270Y31817624D01*
X28171736Y31819474D01*
X28171732Y31819477D01*
X28171840Y31819609D01*
X28171886Y31819662D01*
X28171941Y31819732D01*
X28172101Y31819923D01*
X28172106Y31819919D01*
X28173383Y31821407D01*
X28176652Y31825037D01*
X28176661Y31825029D01*
X28178540Y31827000D01*
X28178529Y31827011D01*
X28178668Y31827151D01*
X28178847Y31827323D01*
X28178954Y31827435D01*
X28179112Y31827589D01*
X28179118Y31827583D01*
X28180433Y31828844D01*
X28184040Y31832138D01*
X28184230Y31832311D01*
X28184282Y31832358D01*
X28186009Y31833828D01*
X28186001Y31833837D01*
X28186150Y31833961D01*
X28186359Y31834126D01*
X28186547Y31834286D01*
X28186723Y31834427D01*
X28186730Y31834419D01*
X28188186Y31835568D01*
X28192046Y31838455D01*
X28192102Y31838497D01*
X28194443Y31840137D01*
X28194438Y31840144D01*
X28194584Y31840242D01*
X28194680Y31840303D01*
X28194751Y31840353D01*
X28194953Y31840485D01*
X28194957Y31840480D01*
X28196536Y31841487D01*
X28200714Y31844019D01*
X28200903Y31844134D01*
X28200963Y31844170D01*
X28203155Y31845398D01*
X28203151Y31845405D01*
X28203301Y31845486D01*
X28203410Y31845542D01*
X28203525Y31845606D01*
X28203745Y31845721D01*
X28203749Y31845714D01*
X28205450Y31846581D01*
X28209855Y31848692D01*
X28210241Y31848875D01*
X28210305Y31848905D01*
X28212383Y31849811D01*
X28212380Y31849818D01*
X28212537Y31849884D01*
X28212666Y31849934D01*
X28212784Y31849986D01*
X28213014Y31850079D01*
X28213017Y31850072D01*
X28214804Y31850772D01*
X28219395Y31852444D01*
X28219418Y31852453D01*
X28219484Y31852477D01*
X28221964Y31853289D01*
X28221960Y31853301D01*
X28222124Y31853352D01*
X28222357Y31853418D01*
X28222540Y31853478D01*
X28222776Y31853547D01*
X28222779Y31853538D01*
X28224536Y31854036D01*
X28229268Y31855251D01*
X28229576Y31855329D01*
X28229644Y31855346D01*
X28231939Y31855848D01*
X28231937Y31855860D01*
X28232187Y31855911D01*
X28232413Y31855951D01*
X28232557Y31855983D01*
X28232717Y31856013D01*
X28232718Y31856006D01*
X28234536Y31856332D01*
X28239364Y31857079D01*
X28239365Y31857074D01*
X28242124Y31857416D01*
X28242123Y31857429D01*
X28242325Y31857450D01*
X28242544Y31857467D01*
X28242677Y31857484D01*
X28242892Y31857503D01*
X28242893Y31857495D01*
X28244701Y31857640D01*
X28249520Y31857910D01*
X28249590Y31857914D01*
X28249887Y31857921D01*
X28249887Y31857923D01*
X28249981Y31857928D01*
X28252494Y31857999D01*
X28252843Y31858000D01*
X28728070Y31858000D01*
X28728244Y31857994D01*
X28730690Y31857934D01*
X28735570Y31857695D01*
X28735570Y31857688D01*
X28738268Y31857475D01*
X28738269Y31857490D01*
X28738414Y31857476D01*
X28738691Y31857442D01*
X28738897Y31857426D01*
X28739167Y31857395D01*
X28739166Y31857384D01*
X28740906Y31857172D01*
X28745739Y31856459D01*
X28745739Y31856457D01*
X28748500Y31855964D01*
X28748502Y31855973D01*
X28748673Y31855939D01*
X28748800Y31855911D01*
X28748904Y31855892D01*
X28749144Y31855841D01*
X28749142Y31855834D01*
X28751020Y31855413D01*
X28755760Y31854231D01*
X28755789Y31854224D01*
X28755857Y31854207D01*
X28758404Y31853487D01*
X28758406Y31853495D01*
X28758575Y31853444D01*
X28758693Y31853405D01*
X28758796Y31853376D01*
X28759027Y31853303D01*
X28759025Y31853296D01*
X28760905Y31852678D01*
X28765507Y31851039D01*
X28765507Y31851038D01*
X28768127Y31850014D01*
X28768130Y31850022D01*
X28768292Y31849955D01*
X28768399Y31849908D01*
X28768493Y31849871D01*
X28768717Y31849775D01*
X28768714Y31849769D01*
X28770473Y31848992D01*
X28774893Y31846912D01*
X28775100Y31846814D01*
X28775163Y31846784D01*
X28777349Y31845666D01*
X28777352Y31845672D01*
X28777523Y31845581D01*
X28777608Y31845533D01*
X28777702Y31845485D01*
X28777899Y31845377D01*
X28777896Y31845371D01*
X28779634Y31844391D01*
X28783830Y31841890D01*
X28783955Y31841816D01*
X28784015Y31841780D01*
X28786152Y31840410D01*
X28786156Y31840417D01*
X28786311Y31840314D01*
X28786411Y31840244D01*
X28786517Y31840176D01*
X28786710Y31840044D01*
X28786706Y31840038D01*
X28788314Y31838911D01*
X28792245Y31836012D01*
X28792243Y31836009D01*
X28794438Y31834288D01*
X28794443Y31834295D01*
X28794546Y31834211D01*
X28794652Y31834120D01*
X28794772Y31834026D01*
X28794990Y31833843D01*
X28794984Y31833836D01*
X28794990Y31833830D01*
X28794996Y31833837D01*
X28795008Y31833827D01*
X28795229Y31833625D01*
X28796444Y31832583D01*
X28796485Y31832546D01*
X28800026Y31829359D01*
X28800019Y31829351D01*
X28802004Y31827462D01*
X28802013Y31827471D01*
X28802138Y31827347D01*
X28802284Y31827195D01*
X28802391Y31827093D01*
X28802562Y31826918D01*
X28802556Y31826912D01*
X28803851Y31825562D01*
X28807145Y31821954D01*
X28807141Y31821950D01*
X28808844Y31819967D01*
X28808856Y31819977D01*
X28808965Y31819846D01*
X28809171Y31819585D01*
X28809329Y31819401D01*
X28809484Y31819207D01*
X28809475Y31819200D01*
X28810566Y31817818D01*
X28813492Y31813907D01*
X28813799Y31813492D01*
X28813840Y31813436D01*
X28815097Y31811619D01*
X28815104Y31811623D01*
X28815223Y31811446D01*
X28815296Y31811331D01*
X28815358Y31811242D01*
X28815471Y31811069D01*
X28815466Y31811066D01*
X28816501Y31809444D01*
X28819031Y31805265D01*
X28819028Y31805263D01*
X28820309Y31802995D01*
X28820322Y31803002D01*
X28820415Y31802831D01*
X28820551Y31802565D01*
X28820652Y31802386D01*
X28820755Y31802188D01*
X28820746Y31802183D01*
X28821581Y31800550D01*
X28823692Y31796145D01*
X28823745Y31796034D01*
X28823775Y31795971D01*
X28824819Y31793595D01*
X28824827Y31793598D01*
X28824890Y31793448D01*
X28824952Y31793292D01*
X28825002Y31793178D01*
X28825098Y31792940D01*
X28825093Y31792938D01*
X28825607Y31791642D01*
X28825628Y31791586D01*
X28825795Y31791115D01*
X28825801Y31791117D01*
X28827408Y31786702D01*
X28827430Y31786642D01*
X28827432Y31786636D01*
X28827444Y31786603D01*
X28827443Y31786603D01*
X28828251Y31784147D01*
X28828266Y31784152D01*
X28828327Y31783957D01*
X28828409Y31783668D01*
X28828473Y31783474D01*
X28828533Y31783269D01*
X28828525Y31783267D01*
X28828538Y31783232D01*
X28828540Y31783225D01*
X28828535Y31783224D01*
X28829035Y31781466D01*
X28830250Y31776735D01*
X28830329Y31776425D01*
X28830346Y31776357D01*
X28830874Y31773961D01*
X28830881Y31773962D01*
X28830919Y31773775D01*
X28830936Y31773679D01*
X28830950Y31773616D01*
X28830993Y31773391D01*
X28830988Y31773390D01*
X28831332Y31771461D01*
X28832078Y31766638D01*
X28832070Y31766637D01*
X28832207Y31765539D01*
X28832274Y31765246D01*
X28832304Y31764770D01*
X28832405Y31763968D01*
X28832419Y31763970D01*
X28832437Y31763801D01*
X28832458Y31763542D01*
X28832479Y31763375D01*
X28832501Y31763129D01*
X28832492Y31763128D01*
X28832640Y31761300D01*
X28832913Y31756422D01*
X28832912Y31756422D01*
X28832919Y31756113D01*
X28832923Y31756113D01*
X28832928Y31756019D01*
X28832999Y31753506D01*
X28833000Y31753157D01*
X28833000Y31015430D01*
X28832993Y31015199D01*
X28832934Y31012810D01*
X28832695Y31007930D01*
X28832688Y31007930D01*
X28832475Y31005232D01*
X28832490Y31005231D01*
X28832476Y31005086D01*
X28832440Y31004785D01*
X28832426Y31004603D01*
X28832395Y31004333D01*
X28832387Y31004334D01*
X28832220Y31002928D01*
X28832211Y31002864D01*
X28832153Y31002523D01*
X28832161Y31002522D01*
X28831459Y30997763D01*
X28831447Y30997765D01*
X28831054Y30995518D01*
X28831033Y30995302D01*
X28830985Y30995120D01*
X28830962Y30994988D01*
X28830970Y30994986D01*
X28830940Y30994835D01*
X28830915Y30994721D01*
X28830901Y30994641D01*
X28830846Y30994381D01*
X28830841Y30994382D01*
X28830510Y30992875D01*
X28830497Y30992821D01*
X28830393Y30992397D01*
X28830390Y30992385D01*
X28830390Y30992386D01*
X28829231Y30987738D01*
X28829224Y30987711D01*
X28829207Y30987643D01*
X28828471Y30985037D01*
X28828477Y30985035D01*
X28828427Y30984870D01*
X28828408Y30984813D01*
X28828391Y30984752D01*
X28828317Y30984517D01*
X28828311Y30984519D01*
X28827678Y30982595D01*
X28826039Y30977993D01*
X28826038Y30977993D01*
X28825061Y30975500D01*
X28825073Y30975495D01*
X28825009Y30975339D01*
X28824911Y30975116D01*
X28824840Y30974935D01*
X28824741Y30974705D01*
X28824732Y30974709D01*
X28823992Y30973027D01*
X28821912Y30968607D01*
X28821814Y30968400D01*
X28821784Y30968337D01*
X28820689Y30966197D01*
X28820696Y30966193D01*
X28820617Y30966044D01*
X28820554Y30965932D01*
X28820490Y30965807D01*
X28820370Y30965588D01*
X28820363Y30965592D01*
X28819391Y30963866D01*
X28816890Y30959670D01*
X28816816Y30959545D01*
X28816780Y30959485D01*
X28815448Y30957411D01*
X28815457Y30957405D01*
X28815363Y30957263D01*
X28815250Y30957101D01*
X28815165Y30956969D01*
X28815024Y30956763D01*
X28815017Y30956768D01*
X28813911Y30955186D01*
X28811012Y30951255D01*
X28811009Y30951257D01*
X28809288Y30949062D01*
X28809295Y30949057D01*
X28809211Y30948954D01*
X28809120Y30948848D01*
X28809026Y30948728D01*
X28808843Y30948510D01*
X28808836Y30948516D01*
X28808830Y30948510D01*
X28808837Y30948504D01*
X28808827Y30948492D01*
X28808625Y30948271D01*
X28807583Y30947056D01*
X28807546Y30947015D01*
X28804359Y30943474D01*
X28804351Y30943481D01*
X28802469Y30941501D01*
X28802477Y30941493D01*
X28802371Y30941386D01*
X28802236Y30941256D01*
X28802132Y30941147D01*
X28801939Y30940958D01*
X28801932Y30940965D01*
X28800562Y30939649D01*
X28796954Y30936355D01*
X28796950Y30936359D01*
X28794866Y30934565D01*
X28794873Y30934557D01*
X28794751Y30934456D01*
X28794609Y30934344D01*
X28794496Y30934247D01*
X28794293Y30934084D01*
X28794287Y30934091D01*
X28792818Y30932934D01*
X28788907Y30930008D01*
X28788492Y30929701D01*
X28788436Y30929660D01*
X28786624Y30928404D01*
X28786627Y30928399D01*
X28786483Y30928302D01*
X28786402Y30928250D01*
X28786305Y30928183D01*
X28786099Y30928048D01*
X28786095Y30928054D01*
X28784441Y30926997D01*
X28780263Y30924468D01*
X28780259Y30924475D01*
X28780202Y30924431D01*
X28780144Y30924396D01*
X28777995Y30923190D01*
X28778002Y30923178D01*
X28777831Y30923085D01*
X28777576Y30922955D01*
X28777386Y30922848D01*
X28777188Y30922745D01*
X28777183Y30922754D01*
X28775550Y30921919D01*
X28771145Y30919808D01*
X28771034Y30919755D01*
X28770971Y30919725D01*
X28768595Y30918681D01*
X28768598Y30918673D01*
X28768448Y30918610D01*
X28768309Y30918555D01*
X28768178Y30918498D01*
X28767940Y30918402D01*
X28767937Y30918410D01*
X28766187Y30917724D01*
X28761596Y30916053D01*
X28761572Y30916047D01*
X28759137Y30915243D01*
X28759141Y30915231D01*
X28758975Y30915179D01*
X28758747Y30915114D01*
X28758571Y30915056D01*
X28758337Y30914987D01*
X28758334Y30914997D01*
X28756466Y30914465D01*
X28751735Y30913250D01*
X28751425Y30913171D01*
X28751357Y30913154D01*
X28749069Y30912651D01*
X28749071Y30912642D01*
X28748901Y30912607D01*
X28748714Y30912573D01*
X28748567Y30912541D01*
X28748325Y30912495D01*
X28748323Y30912503D01*
X28746465Y30912168D01*
X28741638Y30911421D01*
X28741638Y30911422D01*
X28738916Y30911086D01*
X28738917Y30911075D01*
X28738756Y30911058D01*
X28738563Y30911042D01*
X28738430Y30911026D01*
X28738176Y30911003D01*
X28738175Y30911011D01*
X28736300Y30910860D01*
X28731422Y30910587D01*
X28731422Y30910588D01*
X28731113Y30910581D01*
X28731113Y30910577D01*
X28731019Y30910572D01*
X28728506Y30910501D01*
X28728157Y30910500D01*
X28602930Y30910500D01*
X28602702Y30910507D01*
X28600309Y30910566D01*
X28595430Y30910805D01*
X28595430Y30910812D01*
X28592520Y30911037D01*
X28592519Y30911031D01*
X28592380Y30911045D01*
X28592315Y30911053D01*
X28592225Y30911060D01*
X28591949Y30911091D01*
X28591950Y30911098D01*
X28590102Y30911327D01*
X28585270Y30912039D01*
X28584797Y30912111D01*
X28584727Y30912122D01*
X28582549Y30912524D01*
X28582548Y30912517D01*
X28582401Y30912546D01*
X28582269Y30912575D01*
X28582114Y30912604D01*
X28581850Y30912660D01*
X28581852Y30912669D01*
X28579980Y30913087D01*
X28575240Y30914269D01*
X28575244Y30914286D01*
X28572606Y30915013D01*
X28572603Y30915003D01*
X28572503Y30915033D01*
X28572337Y30915087D01*
X28572175Y30915132D01*
X28571875Y30915227D01*
X28571878Y30915238D01*
X28570091Y30915823D01*
X28565490Y30917462D01*
X28565493Y30917470D01*
X28562810Y30918510D01*
X28562807Y30918503D01*
X28562648Y30918569D01*
X28562587Y30918596D01*
X28562556Y30918608D01*
X28562329Y30918705D01*
X28562331Y30918709D01*
X28560527Y30919508D01*
X28556107Y30921588D01*
X28555900Y30921686D01*
X28555837Y30921716D01*
X28553788Y30922767D01*
X28553783Y30922757D01*
X28553622Y30922842D01*
X28553403Y30922965D01*
X28553214Y30923062D01*
X28553007Y30923176D01*
X28553012Y30923185D01*
X28551366Y30924109D01*
X28547170Y30926610D01*
X28547045Y30926684D01*
X28546985Y30926720D01*
X28544848Y30928090D01*
X28544844Y30928083D01*
X28544689Y30928186D01*
X28544589Y30928256D01*
X28544483Y30928324D01*
X28544290Y30928456D01*
X28544294Y30928462D01*
X28542681Y30929593D01*
X28538751Y30932492D01*
X28538761Y30932505D01*
X28536646Y30934152D01*
X28536636Y30934140D01*
X28536524Y30934231D01*
X28536318Y30934407D01*
X28536168Y30934524D01*
X28535959Y30934700D01*
X28535966Y30934708D01*
X28534605Y30935873D01*
X28530974Y30939141D01*
X28530981Y30939149D01*
X28528996Y30941038D01*
X28528987Y30941029D01*
X28528864Y30941151D01*
X28528719Y30941302D01*
X28528614Y30941402D01*
X28528441Y30941579D01*
X28528447Y30941585D01*
X28527149Y30942938D01*
X28523856Y30946545D01*
X28523688Y30946730D01*
X28523641Y30946782D01*
X28522073Y30948620D01*
X28522067Y30948615D01*
X28521938Y30948771D01*
X28521856Y30948876D01*
X28521782Y30948962D01*
X28521646Y30949131D01*
X28521651Y30949135D01*
X28520433Y30950683D01*
X28517508Y30954593D01*
X28517503Y30954600D01*
X28515910Y30956875D01*
X28515902Y30956869D01*
X28515811Y30957004D01*
X28515721Y30957145D01*
X28515634Y30957269D01*
X28515493Y30957485D01*
X28515500Y30957490D01*
X28514501Y30959052D01*
X28511971Y30963230D01*
X28511866Y30963404D01*
X28511830Y30963464D01*
X28510689Y30965504D01*
X28510678Y30965498D01*
X28510585Y30965669D01*
X28510459Y30965916D01*
X28510348Y30966114D01*
X28510245Y30966312D01*
X28510254Y30966317D01*
X28509419Y30967950D01*
X28507308Y30972355D01*
X28507125Y30972741D01*
X28507095Y30972805D01*
X28506189Y30974883D01*
X28506182Y30974880D01*
X28506121Y30975025D01*
X28506070Y30975156D01*
X28506024Y30975260D01*
X28505926Y30975502D01*
X28505932Y30975504D01*
X28505376Y30976916D01*
X28505372Y30976915D01*
X28505369Y30976923D01*
X28505358Y30976961D01*
X28505292Y30977129D01*
X28505271Y30977186D01*
X28505292Y30977194D01*
X28505238Y30977381D01*
X28505204Y30977369D01*
X28503557Y30981890D01*
X28503547Y30981918D01*
X28503523Y30981984D01*
X28502717Y30984443D01*
X28502706Y30984439D01*
X28502658Y30984593D01*
X28502594Y30984820D01*
X28502526Y30985026D01*
X28502454Y30985272D01*
X28502464Y30985275D01*
X28501964Y30987036D01*
X28500749Y30991768D01*
X28500671Y30992076D01*
X28500654Y30992144D01*
X28500126Y30994533D01*
X28500120Y30994532D01*
X28500078Y30994739D01*
X28500066Y30994807D01*
X28500059Y30994838D01*
X28500020Y30995041D01*
X28500024Y30995042D01*
X28499668Y30997036D01*
X28498921Y31001864D01*
X28498926Y31001865D01*
X28498565Y31004739D01*
X28498559Y31004738D01*
X28498543Y31004894D01*
X28498539Y31004947D01*
X28498532Y31005000D01*
X28498508Y31005261D01*
X28498513Y31005261D01*
X28498376Y31006924D01*
X28498372Y31006989D01*
X28498363Y31007272D01*
X28498356Y31007272D01*
X28498090Y31012020D01*
X28498086Y31012090D01*
X28498079Y31012387D01*
X28498077Y31012387D01*
X28498072Y31012481D01*
X28498001Y31014994D01*
X28498000Y31015343D01*
X28498000Y31348000D01*
X28252930Y31348000D01*
X28252696Y31348008D01*
X28250311Y31348066D01*
X28245432Y31348305D01*
X28245432Y31348312D01*
X28242617Y31348530D01*
X28242616Y31348522D01*
X28242514Y31348532D01*
X28242387Y31348548D01*
X28242252Y31348558D01*
X28241939Y31348593D01*
X28241940Y31348602D01*
X28240104Y31348827D01*
X28235272Y31349539D01*
X28234799Y31349611D01*
X28234729Y31349622D01*
X28232551Y31350024D01*
X28232550Y31350017D01*
X28232403Y31350046D01*
X28232271Y31350075D01*
X28232116Y31350104D01*
X28231852Y31350160D01*
X28231854Y31350169D01*
X28229982Y31350587D01*
X28225403Y31351729D01*
X28225403Y31351728D01*
X28225346Y31351742D01*
X28225313Y31351751D01*
X28225258Y31351765D01*
X28225214Y31351775D01*
X28225202Y31351778D01*
X28225203Y31351782D01*
X28222622Y31352508D01*
X28222619Y31352498D01*
X28222453Y31352548D01*
X28222281Y31352605D01*
X28222137Y31352645D01*
X28221904Y31352719D01*
X28221907Y31352727D01*
X28220098Y31353321D01*
X28215496Y31354960D01*
X28215499Y31354968D01*
X28212916Y31355971D01*
X28212912Y31355960D01*
X28212752Y31356026D01*
X28212595Y31356095D01*
X28212485Y31356138D01*
X28212259Y31356235D01*
X28212262Y31356242D01*
X28210529Y31357007D01*
X28206109Y31359087D01*
X28205902Y31359185D01*
X28205839Y31359215D01*
X28203625Y31360349D01*
X28203621Y31360342D01*
X28203467Y31360424D01*
X28203357Y31360486D01*
X28203279Y31360526D01*
X28203064Y31360644D01*
X28203067Y31360650D01*
X28201363Y31361611D01*
X28197168Y31364112D01*
X28197171Y31364116D01*
X28194928Y31365545D01*
X28194921Y31365534D01*
X28194818Y31365602D01*
X28194611Y31365746D01*
X28194428Y31365863D01*
X28194186Y31366029D01*
X28194193Y31366039D01*
X28192706Y31367076D01*
X28188773Y31369974D01*
X28188433Y31370227D01*
X28188377Y31370269D01*
X28186611Y31371671D01*
X28186606Y31371664D01*
X28186471Y31371774D01*
X28186339Y31371887D01*
X28186227Y31371976D01*
X28186040Y31372133D01*
X28186045Y31372139D01*
X28184606Y31373372D01*
X28180974Y31376641D01*
X28180896Y31376711D01*
X28180844Y31376758D01*
X28178997Y31378534D01*
X28178990Y31378527D01*
X28178869Y31378647D01*
X28178735Y31378786D01*
X28178614Y31378903D01*
X28178441Y31379080D01*
X28178447Y31379086D01*
X28177156Y31380432D01*
X28173862Y31384039D01*
X28173689Y31384229D01*
X28173642Y31384281D01*
X28172134Y31386049D01*
X28172127Y31386043D01*
X28172014Y31386179D01*
X28171895Y31386330D01*
X28171773Y31386473D01*
X28171621Y31386662D01*
X28171628Y31386668D01*
X28170432Y31388185D01*
X28167506Y31392097D01*
X28167503Y31392101D01*
X28165811Y31394511D01*
X28165808Y31394509D01*
X28165719Y31394642D01*
X28165715Y31394648D01*
X28165692Y31394681D01*
X28165551Y31394896D01*
X28165555Y31394899D01*
X28164513Y31396535D01*
X28161981Y31400713D01*
X28161866Y31400902D01*
X28161830Y31400962D01*
X28161075Y31402308D01*
X28161071Y31402306D01*
X28161067Y31402313D01*
X28160958Y31402517D01*
X28160541Y31403261D01*
X28160536Y31403258D01*
X28160464Y31403392D01*
X28160437Y31403446D01*
X28160402Y31403508D01*
X28160278Y31403745D01*
X28160284Y31403748D01*
X28160042Y31404228D01*
X28159758Y31404759D01*
X28159756Y31404763D01*
X28159385Y31405520D01*
X28157310Y31409851D01*
X28157322Y31409857D01*
X28157192Y31410148D01*
X28156441Y31411767D01*
X28156438Y31411774D01*
X28156462Y31411784D01*
X28156153Y31412477D01*
X28156143Y31412473D01*
X28156084Y31412614D01*
X28156029Y31412754D01*
X28155982Y31412860D01*
X28155883Y31413106D01*
X28155891Y31413109D01*
X28155226Y31414810D01*
X28153555Y31419400D01*
X28153548Y31419417D01*
X28153524Y31419483D01*
X28152736Y31421885D01*
X28152724Y31421881D01*
X28152669Y31422057D01*
X28152598Y31422308D01*
X28152536Y31422496D01*
X28152470Y31422721D01*
X28152479Y31422724D01*
X28151965Y31424534D01*
X28150750Y31429265D01*
X28150671Y31429575D01*
X28150654Y31429643D01*
X28150149Y31431938D01*
X28150141Y31431936D01*
X28150103Y31432121D01*
X28150077Y31432264D01*
X28150042Y31432424D01*
X28149999Y31432650D01*
X28150007Y31432652D01*
X28149668Y31434534D01*
X28148921Y31439361D01*
X28148926Y31439362D01*
X28148565Y31442238D01*
X28148559Y31442237D01*
X28148543Y31442393D01*
X28148539Y31442446D01*
X28148532Y31442499D01*
X28148508Y31442760D01*
X28148513Y31442760D01*
X28148376Y31444423D01*
X28148372Y31444488D01*
X28148363Y31444771D01*
X28148356Y31444771D01*
X28148090Y31449520D01*
X28148086Y31449590D01*
X28148079Y31449887D01*
X28148077Y31449887D01*
X28148072Y31449981D01*
X28148001Y31452494D01*
X28148000Y31452843D01*
X28148000Y31753070D01*
X28148012Y31753445D01*
G37*
G36*
X31473007Y35440798D02*
G01*
X31473066Y35443191D01*
X31473305Y35448070D01*
X31473312Y35448070D01*
X31473537Y35450980D01*
X31473531Y35450981D01*
X31473545Y35451120D01*
X31473553Y35451185D01*
X31473560Y35451275D01*
X31473591Y35451551D01*
X31473598Y35451550D01*
X31473616Y35451691D01*
X31473608Y35451692D01*
X31473609Y35451701D01*
X31473648Y35451952D01*
X31473828Y35453407D01*
X31473837Y35453468D01*
X31473882Y35453461D01*
X31473883Y35453466D01*
X31473838Y35453473D01*
X31474539Y35458230D01*
X31474611Y35458703D01*
X31474622Y35458773D01*
X31475024Y35460951D01*
X31475017Y35460952D01*
X31475046Y35461099D01*
X31475078Y35461245D01*
X31475104Y35461386D01*
X31475160Y35461650D01*
X31475166Y35461649D01*
X31475490Y35463125D01*
X31475503Y35463179D01*
X31475605Y35463595D01*
X31476769Y35468262D01*
X31476787Y35468257D01*
X31477524Y35470922D01*
X31477511Y35470926D01*
X31477552Y35471062D01*
X31477617Y35471260D01*
X31477653Y35471390D01*
X31477737Y35471654D01*
X31477746Y35471651D01*
X31478323Y35473409D01*
X31479962Y35478010D01*
X31479970Y35478007D01*
X31481010Y35480690D01*
X31481003Y35480693D01*
X31481069Y35480852D01*
X31481096Y35480913D01*
X31481108Y35480944D01*
X31481205Y35481171D01*
X31481209Y35481169D01*
X31482008Y35482973D01*
X31484088Y35487393D01*
X31484186Y35487600D01*
X31484216Y35487663D01*
X31485320Y35489819D01*
X31485312Y35489823D01*
X31485405Y35489998D01*
X31485483Y35490136D01*
X31485534Y35490236D01*
X31485640Y35490429D01*
X31485646Y35490426D01*
X31486609Y35492134D01*
X31489110Y35496330D01*
X31489184Y35496455D01*
X31489220Y35496515D01*
X31490580Y35498632D01*
X31490571Y35498638D01*
X31490692Y35498820D01*
X31490804Y35498979D01*
X31490878Y35499095D01*
X31490992Y35499261D01*
X31490998Y35499257D01*
X31492093Y35500819D01*
X31494992Y35504749D01*
X31495005Y35504739D01*
X31496741Y35506968D01*
X31496731Y35506976D01*
X31496839Y35507108D01*
X31496951Y35507238D01*
X31497009Y35507313D01*
X31497168Y35507502D01*
X31497173Y35507497D01*
X31498373Y35508895D01*
X31501641Y35512526D01*
X31501649Y35512519D01*
X31503540Y35514502D01*
X31503529Y35514513D01*
X31503668Y35514653D01*
X31503843Y35514821D01*
X31503946Y35514929D01*
X31504106Y35515085D01*
X31504112Y35515079D01*
X31505438Y35516351D01*
X31509045Y35519644D01*
X31509230Y35519812D01*
X31509282Y35519859D01*
X31511085Y35521394D01*
X31511078Y35521403D01*
X31511241Y35521538D01*
X31511415Y35521675D01*
X31511516Y35521761D01*
X31511678Y35521891D01*
X31511682Y35521886D01*
X31513183Y35523067D01*
X31517044Y35525955D01*
X31517100Y35525997D01*
X31519444Y35527639D01*
X31519439Y35527646D01*
X31519585Y35527744D01*
X31519676Y35527802D01*
X31519743Y35527849D01*
X31519948Y35527983D01*
X31519951Y35527978D01*
X31521552Y35528999D01*
X31525730Y35531529D01*
X31525904Y35531634D01*
X31525964Y35531670D01*
X31528004Y35532811D01*
X31527998Y35532822D01*
X31528169Y35532915D01*
X31528416Y35533041D01*
X31528614Y35533152D01*
X31528812Y35533255D01*
X31528817Y35533246D01*
X31530450Y35534081D01*
X31534855Y35536192D01*
X31535241Y35536375D01*
X31535305Y35536405D01*
X31537443Y35537339D01*
X31537441Y35537344D01*
X31537601Y35537411D01*
X31537673Y35537439D01*
X31537746Y35537471D01*
X31537973Y35537563D01*
X31537975Y35537557D01*
X31539804Y35538272D01*
X31544395Y35539944D01*
X31544418Y35539953D01*
X31544484Y35539977D01*
X31546864Y35540754D01*
X31546859Y35540769D01*
X31547025Y35540821D01*
X31547353Y35540914D01*
X31547618Y35541001D01*
X31547852Y35541069D01*
X31547855Y35541057D01*
X31549536Y35541536D01*
X31554268Y35542751D01*
X31554576Y35542829D01*
X31554644Y35542846D01*
X31556939Y35543348D01*
X31556937Y35543360D01*
X31557187Y35543411D01*
X31557413Y35543451D01*
X31557557Y35543483D01*
X31557717Y35543513D01*
X31557718Y35543506D01*
X31559536Y35543832D01*
X31564364Y35544579D01*
X31564365Y35544574D01*
X31567172Y35544922D01*
X31567171Y35544934D01*
X31567375Y35544955D01*
X31567541Y35544968D01*
X31567636Y35544980D01*
X31567849Y35544999D01*
X31567850Y35544993D01*
X31569701Y35545140D01*
X31574520Y35545410D01*
X31574590Y35545414D01*
X31574887Y35545421D01*
X31574887Y35545423D01*
X31574981Y35545428D01*
X31577494Y35545499D01*
X31577843Y35545500D01*
X31703070Y35545500D01*
X31703244Y35545494D01*
X31705690Y35545434D01*
X31710570Y35545195D01*
X31710570Y35545188D01*
X31713268Y35544975D01*
X31713269Y35544990D01*
X31713414Y35544976D01*
X31713691Y35544942D01*
X31713897Y35544926D01*
X31714167Y35544895D01*
X31714166Y35544884D01*
X31715906Y35544672D01*
X31720739Y35543959D01*
X31720739Y35543957D01*
X31723506Y35543464D01*
X31723508Y35543472D01*
X31723669Y35543440D01*
X31723783Y35543415D01*
X31723881Y35543397D01*
X31724131Y35543344D01*
X31724129Y35543337D01*
X31726020Y35542913D01*
X31730760Y35541731D01*
X31730789Y35541724D01*
X31730857Y35541707D01*
X31733463Y35540971D01*
X31733465Y35540977D01*
X31733630Y35540927D01*
X31733687Y35540908D01*
X31733748Y35540891D01*
X31733983Y35540817D01*
X31733981Y35540811D01*
X31735905Y35540178D01*
X31740507Y35538539D01*
X31740507Y35538538D01*
X31743190Y35537491D01*
X31743193Y35537497D01*
X31743352Y35537431D01*
X31743411Y35537405D01*
X31743444Y35537392D01*
X31743671Y35537295D01*
X31743669Y35537291D01*
X31745473Y35536492D01*
X31749893Y35534412D01*
X31750100Y35534314D01*
X31750163Y35534284D01*
X31752212Y35533233D01*
X31752217Y35533243D01*
X31752378Y35533158D01*
X31752597Y35533035D01*
X31752786Y35532938D01*
X31752993Y35532824D01*
X31752988Y35532815D01*
X31754634Y35531891D01*
X31758830Y35529390D01*
X31758955Y35529316D01*
X31759015Y35529280D01*
X31761152Y35527910D01*
X31761156Y35527917D01*
X31761311Y35527814D01*
X31761411Y35527744D01*
X31761517Y35527676D01*
X31761710Y35527544D01*
X31761706Y35527538D01*
X31763314Y35526411D01*
X31767245Y35523512D01*
X31767243Y35523509D01*
X31769438Y35521788D01*
X31769443Y35521795D01*
X31769546Y35521711D01*
X31769652Y35521620D01*
X31769772Y35521526D01*
X31769990Y35521343D01*
X31769984Y35521336D01*
X31769990Y35521330D01*
X31769996Y35521337D01*
X31770008Y35521327D01*
X31770229Y35521125D01*
X31771444Y35520083D01*
X31771485Y35520046D01*
X31775026Y35516859D01*
X31775019Y35516851D01*
X31777004Y35514962D01*
X31777013Y35514971D01*
X31777136Y35514849D01*
X31777281Y35514698D01*
X31777386Y35514598D01*
X31777559Y35514421D01*
X31777553Y35514415D01*
X31778851Y35513062D01*
X31782145Y35509454D01*
X31782141Y35509450D01*
X31783844Y35507467D01*
X31783856Y35507477D01*
X31783965Y35507346D01*
X31784171Y35507085D01*
X31784329Y35506901D01*
X31784484Y35506707D01*
X31784475Y35506700D01*
X31785566Y35505318D01*
X31788492Y35501407D01*
X31788799Y35500992D01*
X31788840Y35500936D01*
X31790097Y35499119D01*
X31790104Y35499123D01*
X31790223Y35498946D01*
X31790296Y35498831D01*
X31790358Y35498742D01*
X31790471Y35498569D01*
X31790466Y35498566D01*
X31791501Y35496944D01*
X31794031Y35492765D01*
X31794028Y35492763D01*
X31795309Y35490495D01*
X31795322Y35490502D01*
X31795415Y35490331D01*
X31795551Y35490065D01*
X31795652Y35489886D01*
X31795755Y35489688D01*
X31795746Y35489683D01*
X31796581Y35488050D01*
X31798692Y35483645D01*
X31798745Y35483534D01*
X31798775Y35483471D01*
X31799819Y35481095D01*
X31799827Y35481098D01*
X31799890Y35480948D01*
X31799952Y35480792D01*
X31800002Y35480678D01*
X31800098Y35480440D01*
X31800093Y35480438D01*
X31800607Y35479142D01*
X31800628Y35479086D01*
X31800795Y35478615D01*
X31800801Y35478617D01*
X31802408Y35474202D01*
X31802430Y35474142D01*
X31802432Y35474136D01*
X31802444Y35474103D01*
X31802443Y35474103D01*
X31803251Y35471647D01*
X31803266Y35471652D01*
X31803327Y35471457D01*
X31803409Y35471168D01*
X31803473Y35470974D01*
X31803533Y35470769D01*
X31803525Y35470767D01*
X31803538Y35470732D01*
X31803540Y35470725D01*
X31803535Y35470724D01*
X31804035Y35468966D01*
X31805250Y35464235D01*
X31805329Y35463925D01*
X31805346Y35463857D01*
X31805874Y35461461D01*
X31805881Y35461462D01*
X31805919Y35461275D01*
X31805936Y35461179D01*
X31805950Y35461116D01*
X31805993Y35460891D01*
X31805988Y35460890D01*
X31806332Y35458961D01*
X31807078Y35454138D01*
X31807070Y35454137D01*
X31807207Y35453039D01*
X31807274Y35452746D01*
X31807304Y35452270D01*
X31807405Y35451468D01*
X31807419Y35451470D01*
X31807437Y35451301D01*
X31807458Y35451042D01*
X31807479Y35450875D01*
X31807501Y35450629D01*
X31807492Y35450628D01*
X31807640Y35448800D01*
X31807913Y35443922D01*
X31807912Y35443922D01*
X31807919Y35443613D01*
X31807923Y35443613D01*
X31807928Y35443519D01*
X31807999Y35441006D01*
X31808000Y35440657D01*
X31808000Y35133000D01*
X32053090Y35133000D01*
X32053248Y35132995D01*
X32053263Y35132995D01*
X32055709Y35132935D01*
X32060589Y35132696D01*
X32060589Y35132689D01*
X32063287Y35132476D01*
X32063288Y35132491D01*
X32063433Y35132477D01*
X32063710Y35132443D01*
X32063916Y35132427D01*
X32064186Y35132396D01*
X32064185Y35132385D01*
X32065925Y35132173D01*
X32070758Y35131460D01*
X32070758Y35131458D01*
X32073576Y35130957D01*
X32073577Y35130963D01*
X32073747Y35130929D01*
X32073811Y35130915D01*
X32073882Y35130902D01*
X32074123Y35130851D01*
X32074122Y35130845D01*
X32076039Y35130414D01*
X32080779Y35129232D01*
X32080808Y35129225D01*
X32080876Y35129208D01*
X32083504Y35128467D01*
X32083505Y35128472D01*
X32083673Y35128421D01*
X32083703Y35128411D01*
X32083756Y35128396D01*
X32083988Y35128323D01*
X32083986Y35128318D01*
X32085924Y35127679D01*
X32090526Y35126040D01*
X32090526Y35126039D01*
X32093001Y35125069D01*
X32093006Y35125082D01*
X32093167Y35125016D01*
X32093424Y35124903D01*
X32093610Y35124830D01*
X32093835Y35124733D01*
X32093831Y35124724D01*
X32095492Y35123993D01*
X32099912Y35121913D01*
X32100119Y35121815D01*
X32100182Y35121785D01*
X32102258Y35120720D01*
X32102264Y35120730D01*
X32102436Y35120639D01*
X32102649Y35120519D01*
X32102815Y35120434D01*
X32103011Y35120326D01*
X32103007Y35120318D01*
X32104653Y35119392D01*
X32108849Y35116891D01*
X32108974Y35116817D01*
X32109034Y35116781D01*
X32111170Y35115407D01*
X32111176Y35115417D01*
X32111328Y35115316D01*
X32111507Y35115190D01*
X32111626Y35115114D01*
X32111821Y35114980D01*
X32111817Y35114974D01*
X32113327Y35113915D01*
X32117259Y35111016D01*
X32117257Y35111014D01*
X32119456Y35109287D01*
X32119464Y35109296D01*
X32119629Y35109161D01*
X32119765Y35109044D01*
X32119843Y35108983D01*
X32120001Y35108850D01*
X32119997Y35108845D01*
X32121427Y35107618D01*
X32125057Y35104349D01*
X32125049Y35104340D01*
X32127021Y35102462D01*
X32127031Y35102472D01*
X32127156Y35102348D01*
X32127316Y35102181D01*
X32127415Y35102087D01*
X32127584Y35101914D01*
X32127578Y35101908D01*
X32128864Y35100568D01*
X32132158Y35096961D01*
X32132331Y35096771D01*
X32132378Y35096719D01*
X32133967Y35094856D01*
X32133973Y35094861D01*
X32134101Y35094706D01*
X32134177Y35094610D01*
X32134237Y35094539D01*
X32134373Y35094370D01*
X32134368Y35094366D01*
X32135582Y35092822D01*
X32138500Y35088922D01*
X32138491Y35088915D01*
X32138586Y35088785D01*
X32138597Y35088793D01*
X32138629Y35088750D01*
X32139014Y35088199D01*
X32139586Y35087415D01*
X32139595Y35087402D01*
X32139578Y35087390D01*
X32140080Y35086672D01*
X32140088Y35086677D01*
X32140212Y35086493D01*
X32140292Y35086369D01*
X32140352Y35086282D01*
X32140460Y35086117D01*
X32140455Y35086114D01*
X32141519Y35084449D01*
X32144049Y35080271D01*
X32144154Y35080097D01*
X32144190Y35080037D01*
X32145331Y35077997D01*
X32145342Y35078003D01*
X32145435Y35077832D01*
X32145560Y35077586D01*
X32145672Y35077387D01*
X32145775Y35077189D01*
X32145766Y35077184D01*
X32146603Y35075546D01*
X32148710Y35071148D01*
X32148706Y35071146D01*
X32148976Y35070585D01*
X32149002Y35070529D01*
X32149789Y35068713D01*
X32149797Y35068716D01*
X32149873Y35068536D01*
X32149945Y35068353D01*
X32150029Y35068159D01*
X32150112Y35067953D01*
X32150104Y35067950D01*
X32150796Y35066188D01*
X32152467Y35061597D01*
X32152462Y35061595D01*
X32153302Y35059057D01*
X32153314Y35059061D01*
X32153366Y35058894D01*
X32153425Y35058686D01*
X32153481Y35058517D01*
X32153550Y35058282D01*
X32153541Y35058279D01*
X32154056Y35056464D01*
X32155271Y35051732D01*
X32155306Y35051594D01*
X32155323Y35051527D01*
X32155905Y35048913D01*
X32155910Y35048914D01*
X32155949Y35048721D01*
X32155955Y35048688D01*
X32155964Y35048647D01*
X32156006Y35048428D01*
X32156001Y35048427D01*
X32156352Y35046462D01*
X32157098Y35041640D01*
X32157090Y35041639D01*
X32157227Y35040540D01*
X32157294Y35040247D01*
X32157324Y35039771D01*
X32157425Y35038969D01*
X32157439Y35038971D01*
X32157457Y35038802D01*
X32157478Y35038544D01*
X32157499Y35038376D01*
X32157521Y35038130D01*
X32157512Y35038129D01*
X32157660Y35036300D01*
X32157930Y35031480D01*
X32157934Y35031410D01*
X32157941Y35031113D01*
X32157943Y35031113D01*
X32157948Y35031019D01*
X32158019Y35028506D01*
X32158020Y35028157D01*
X32158020Y34777930D01*
X32158008Y34777551D01*
X32157953Y34775311D01*
X32157714Y34770431D01*
X32157707Y34770431D01*
X32157494Y34767733D01*
X32157509Y34767732D01*
X32157495Y34767587D01*
X32157459Y34767286D01*
X32157445Y34767104D01*
X32157414Y34766834D01*
X32157406Y34766835D01*
X32157239Y34765429D01*
X32157230Y34765365D01*
X32157172Y34765024D01*
X32157180Y34765023D01*
X32156478Y34760264D01*
X32156466Y34760266D01*
X32156073Y34758019D01*
X32156052Y34757803D01*
X32156004Y34757621D01*
X32155981Y34757489D01*
X32155989Y34757487D01*
X32155959Y34757336D01*
X32155934Y34757222D01*
X32155920Y34757142D01*
X32155865Y34756882D01*
X32155860Y34756883D01*
X32155529Y34755376D01*
X32155516Y34755322D01*
X32155412Y34754898D01*
X32155409Y34754886D01*
X32155409Y34754887D01*
X32154254Y34750255D01*
X32154216Y34750265D01*
X32154152Y34750001D01*
X32154188Y34749992D01*
X32154174Y34749937D01*
X32153923Y34749058D01*
X32153813Y34748604D01*
X32153809Y34748590D01*
X32153791Y34748595D01*
X32153518Y34747641D01*
X32153527Y34747638D01*
X32153467Y34747439D01*
X32153421Y34747298D01*
X32153387Y34747180D01*
X32153324Y34746981D01*
X32153317Y34746983D01*
X32152702Y34745110D01*
X32151064Y34740507D01*
X32150948Y34740183D01*
X32150924Y34740117D01*
X32150066Y34737949D01*
X32150073Y34737946D01*
X32150020Y34737817D01*
X32149957Y34737673D01*
X32149900Y34737530D01*
X32149790Y34737273D01*
X32149782Y34737276D01*
X32149012Y34735528D01*
X32146932Y34731108D01*
X32146834Y34730901D01*
X32146804Y34730838D01*
X32145709Y34728698D01*
X32145716Y34728694D01*
X32145637Y34728545D01*
X32145574Y34728433D01*
X32145510Y34728308D01*
X32145390Y34728089D01*
X32145383Y34728093D01*
X32144411Y34726367D01*
X32141910Y34722171D01*
X32141836Y34722046D01*
X32141800Y34721986D01*
X32140336Y34719701D01*
X32140339Y34719699D01*
X32140246Y34719560D01*
X32140242Y34719554D01*
X32140220Y34719520D01*
X32140078Y34719312D01*
X32140074Y34719315D01*
X32138934Y34717693D01*
X32136134Y34713895D01*
X32136093Y34713839D01*
X32136085Y34713828D01*
X32136035Y34713761D01*
X32136033Y34713762D01*
X32134356Y34711623D01*
X32134364Y34711617D01*
X32134268Y34711499D01*
X32134156Y34711368D01*
X32134054Y34711238D01*
X32133882Y34711033D01*
X32133875Y34711039D01*
X32132637Y34709593D01*
X32129368Y34705963D01*
X32129359Y34705971D01*
X32127488Y34704004D01*
X32127497Y34703995D01*
X32127391Y34703888D01*
X32127242Y34703745D01*
X32127146Y34703644D01*
X32126955Y34703457D01*
X32126949Y34703463D01*
X32125587Y34702156D01*
X32121980Y34698862D01*
X32121790Y34698689D01*
X32121738Y34698642D01*
X32119888Y34697063D01*
X32119893Y34697058D01*
X32119743Y34696934D01*
X32119664Y34696872D01*
X32119581Y34696801D01*
X32119406Y34696660D01*
X32119402Y34696665D01*
X32117834Y34695432D01*
X32113922Y34692506D01*
X32113918Y34692503D01*
X32111508Y34690811D01*
X32111510Y34690808D01*
X32111377Y34690719D01*
X32111371Y34690715D01*
X32111338Y34690692D01*
X32111123Y34690551D01*
X32111120Y34690555D01*
X32109477Y34689508D01*
X32105299Y34686977D01*
X32105294Y34686985D01*
X32102791Y34685560D01*
X32102794Y34685554D01*
X32102649Y34685476D01*
X32102598Y34685450D01*
X32102554Y34685425D01*
X32102329Y34685307D01*
X32102326Y34685312D01*
X32100570Y34684419D01*
X32096165Y34682308D01*
X32096054Y34682255D01*
X32095991Y34682225D01*
X32093615Y34681181D01*
X32093618Y34681173D01*
X32093468Y34681110D01*
X32093329Y34681055D01*
X32093198Y34680998D01*
X32092960Y34680902D01*
X32092957Y34680910D01*
X32091207Y34680224D01*
X32086616Y34678553D01*
X32086602Y34678548D01*
X32086536Y34678524D01*
X32084168Y34677748D01*
X32084172Y34677734D01*
X32083977Y34677673D01*
X32083694Y34677593D01*
X32083494Y34677527D01*
X32083289Y34677467D01*
X32083286Y34677477D01*
X32081486Y34676965D01*
X32076755Y34675750D01*
X32076445Y34675671D01*
X32076377Y34675654D01*
X32074145Y34675164D01*
X32074147Y34675154D01*
X32073978Y34675119D01*
X32073771Y34675082D01*
X32073550Y34675033D01*
X32073307Y34674987D01*
X32073305Y34674997D01*
X32071485Y34674668D01*
X32066658Y34673921D01*
X32066658Y34673922D01*
X32063968Y34673590D01*
X32063969Y34673579D01*
X32063809Y34673562D01*
X32063610Y34673546D01*
X32063433Y34673524D01*
X32063178Y34673501D01*
X32063177Y34673511D01*
X32061320Y34673360D01*
X32056442Y34673087D01*
X32056442Y34673088D01*
X32056133Y34673081D01*
X32056133Y34673077D01*
X32056039Y34673072D01*
X32053526Y34673001D01*
X32053177Y34673000D01*
X31577930Y34673000D01*
X31577702Y34673007D01*
X31575309Y34673066D01*
X31570430Y34673305D01*
X31570430Y34673312D01*
X31567710Y34673523D01*
X31567709Y34673513D01*
X31567605Y34673523D01*
X31567408Y34673547D01*
X31567214Y34673562D01*
X31566903Y34673597D01*
X31566904Y34673608D01*
X31565102Y34673827D01*
X31560270Y34674539D01*
X31559797Y34674611D01*
X31559727Y34674622D01*
X31557651Y34675004D01*
X31557650Y34674998D01*
X31557547Y34675018D01*
X31557401Y34675050D01*
X31557164Y34675094D01*
X31556856Y34675159D01*
X31556858Y34675171D01*
X31554980Y34675587D01*
X31550240Y34676769D01*
X31550244Y34676786D01*
X31547562Y34677527D01*
X31547559Y34677516D01*
X31547433Y34677554D01*
X31547264Y34677609D01*
X31547139Y34677644D01*
X31546865Y34677731D01*
X31546868Y34677740D01*
X31545091Y34678323D01*
X31540490Y34679962D01*
X31540493Y34679970D01*
X31537810Y34681010D01*
X31537807Y34681003D01*
X31537648Y34681069D01*
X31537587Y34681096D01*
X31537556Y34681108D01*
X31537329Y34681205D01*
X31537331Y34681209D01*
X31535527Y34682008D01*
X31531107Y34684088D01*
X31530900Y34684186D01*
X31530837Y34684216D01*
X31528640Y34685339D01*
X31528637Y34685334D01*
X31528481Y34685417D01*
X31528417Y34685453D01*
X31528333Y34685496D01*
X31528121Y34685612D01*
X31528124Y34685618D01*
X31526366Y34686609D01*
X31522170Y34689110D01*
X31522045Y34689184D01*
X31521985Y34689220D01*
X31519976Y34690512D01*
X31519969Y34690501D01*
X31519816Y34690602D01*
X31519581Y34690766D01*
X31519393Y34690887D01*
X31519198Y34691021D01*
X31519204Y34691030D01*
X31517681Y34692093D01*
X31513751Y34694992D01*
X31513761Y34695005D01*
X31511646Y34696652D01*
X31511636Y34696640D01*
X31511524Y34696731D01*
X31511318Y34696907D01*
X31511168Y34697024D01*
X31510959Y34697200D01*
X31510966Y34697208D01*
X31509605Y34698373D01*
X31505974Y34701641D01*
X31505981Y34701649D01*
X31503996Y34703538D01*
X31503987Y34703529D01*
X31503864Y34703651D01*
X31503719Y34703802D01*
X31503614Y34703902D01*
X31503441Y34704079D01*
X31503447Y34704085D01*
X31502149Y34705438D01*
X31498856Y34709045D01*
X31498688Y34709230D01*
X31498641Y34709282D01*
X31497073Y34711120D01*
X31497067Y34711115D01*
X31496938Y34711271D01*
X31496856Y34711376D01*
X31496782Y34711462D01*
X31496646Y34711631D01*
X31496651Y34711635D01*
X31495433Y34713183D01*
X31492508Y34717093D01*
X31492503Y34717100D01*
X31490910Y34719375D01*
X31490902Y34719369D01*
X31490811Y34719504D01*
X31490721Y34719645D01*
X31490634Y34719769D01*
X31490493Y34719985D01*
X31490500Y34719990D01*
X31489501Y34721552D01*
X31486971Y34725730D01*
X31486866Y34725904D01*
X31486830Y34725964D01*
X31485689Y34728004D01*
X31485678Y34727998D01*
X31485585Y34728169D01*
X31485459Y34728416D01*
X31485348Y34728614D01*
X31485245Y34728812D01*
X31485254Y34728817D01*
X31484419Y34730450D01*
X31482308Y34734855D01*
X31482125Y34735241D01*
X31482095Y34735305D01*
X31481189Y34737383D01*
X31481182Y34737380D01*
X31481121Y34737525D01*
X31481069Y34737657D01*
X31481024Y34737760D01*
X31480926Y34738002D01*
X31480932Y34738004D01*
X31480376Y34739416D01*
X31480372Y34739415D01*
X31480369Y34739423D01*
X31480358Y34739461D01*
X31480292Y34739629D01*
X31480271Y34739686D01*
X31480292Y34739694D01*
X31480238Y34739881D01*
X31480204Y34739869D01*
X31478557Y34744390D01*
X31478547Y34744418D01*
X31478523Y34744484D01*
X31477717Y34746943D01*
X31477706Y34746939D01*
X31477658Y34747093D01*
X31477594Y34747320D01*
X31477526Y34747526D01*
X31477454Y34747772D01*
X31477464Y34747775D01*
X31476964Y34749536D01*
X31475749Y34754268D01*
X31475671Y34754576D01*
X31475654Y34754644D01*
X31475126Y34757033D01*
X31475120Y34757032D01*
X31475078Y34757239D01*
X31475066Y34757307D01*
X31475059Y34757338D01*
X31475020Y34757541D01*
X31475024Y34757542D01*
X31474668Y34759536D01*
X31473921Y34764364D01*
X31473926Y34764365D01*
X31473565Y34767239D01*
X31473559Y34767238D01*
X31473543Y34767394D01*
X31473539Y34767447D01*
X31473532Y34767500D01*
X31473508Y34767761D01*
X31473513Y34767761D01*
X31473376Y34769424D01*
X31473372Y34769489D01*
X31473363Y34769772D01*
X31473356Y34769772D01*
X31473090Y34774520D01*
X31473086Y34774590D01*
X31473079Y34774887D01*
X31473077Y34774887D01*
X31473072Y34774981D01*
X31473001Y34777494D01*
X31473000Y34777843D01*
X31473000Y35440570D01*
X31473007Y35440798D01*
G37*
G36*
X31473007Y31678298D02*
G01*
X31473066Y31680691D01*
X31473305Y31685570D01*
X31473312Y31685570D01*
X31473537Y31688480D01*
X31473531Y31688481D01*
X31473545Y31688620D01*
X31473553Y31688685D01*
X31473560Y31688775D01*
X31473591Y31689051D01*
X31473598Y31689050D01*
X31473616Y31689191D01*
X31473608Y31689192D01*
X31473609Y31689201D01*
X31473648Y31689452D01*
X31473828Y31690907D01*
X31473837Y31690968D01*
X31473882Y31690961D01*
X31473883Y31690966D01*
X31473838Y31690973D01*
X31474539Y31695730D01*
X31474611Y31696203D01*
X31474622Y31696273D01*
X31475024Y31698451D01*
X31475017Y31698452D01*
X31475046Y31698599D01*
X31475078Y31698745D01*
X31475104Y31698886D01*
X31475160Y31699150D01*
X31475166Y31699149D01*
X31475490Y31700625D01*
X31475503Y31700679D01*
X31475605Y31701095D01*
X31476769Y31705762D01*
X31476787Y31705757D01*
X31477524Y31708422D01*
X31477511Y31708426D01*
X31477552Y31708562D01*
X31477617Y31708760D01*
X31477653Y31708890D01*
X31477737Y31709154D01*
X31477746Y31709151D01*
X31478323Y31710909D01*
X31479962Y31715510D01*
X31479970Y31715507D01*
X31481010Y31718190D01*
X31481003Y31718193D01*
X31481069Y31718352D01*
X31481096Y31718413D01*
X31481108Y31718444D01*
X31481205Y31718671D01*
X31481209Y31718669D01*
X31482008Y31720473D01*
X31484088Y31724893D01*
X31484186Y31725100D01*
X31484216Y31725163D01*
X31485320Y31727319D01*
X31485312Y31727323D01*
X31485405Y31727498D01*
X31485483Y31727636D01*
X31485534Y31727736D01*
X31485640Y31727929D01*
X31485646Y31727926D01*
X31486609Y31729634D01*
X31489110Y31733830D01*
X31489184Y31733955D01*
X31489220Y31734015D01*
X31490580Y31736132D01*
X31490571Y31736138D01*
X31490692Y31736320D01*
X31490804Y31736479D01*
X31490878Y31736595D01*
X31490992Y31736761D01*
X31490998Y31736757D01*
X31492093Y31738319D01*
X31494992Y31742249D01*
X31495005Y31742239D01*
X31496741Y31744468D01*
X31496731Y31744476D01*
X31496839Y31744608D01*
X31496951Y31744738D01*
X31497009Y31744813D01*
X31497168Y31745002D01*
X31497173Y31744997D01*
X31498373Y31746395D01*
X31501641Y31750026D01*
X31501649Y31750019D01*
X31503540Y31752002D01*
X31503529Y31752013D01*
X31503668Y31752153D01*
X31503843Y31752321D01*
X31503946Y31752429D01*
X31504106Y31752585D01*
X31504112Y31752579D01*
X31505438Y31753851D01*
X31509045Y31757144D01*
X31509230Y31757312D01*
X31509282Y31757359D01*
X31511085Y31758894D01*
X31511078Y31758903D01*
X31511241Y31759038D01*
X31511415Y31759175D01*
X31511516Y31759261D01*
X31511678Y31759391D01*
X31511682Y31759386D01*
X31513183Y31760567D01*
X31517044Y31763455D01*
X31517100Y31763497D01*
X31519444Y31765139D01*
X31519439Y31765146D01*
X31519585Y31765244D01*
X31519676Y31765302D01*
X31519743Y31765349D01*
X31519948Y31765483D01*
X31519951Y31765478D01*
X31521552Y31766499D01*
X31525730Y31769029D01*
X31525904Y31769134D01*
X31525964Y31769170D01*
X31528004Y31770311D01*
X31527998Y31770322D01*
X31528169Y31770415D01*
X31528416Y31770541D01*
X31528614Y31770652D01*
X31528812Y31770755D01*
X31528817Y31770746D01*
X31530450Y31771581D01*
X31534855Y31773692D01*
X31535241Y31773875D01*
X31535305Y31773905D01*
X31537443Y31774839D01*
X31537441Y31774844D01*
X31537601Y31774911D01*
X31537673Y31774939D01*
X31537746Y31774971D01*
X31537973Y31775063D01*
X31537975Y31775057D01*
X31539804Y31775772D01*
X31544395Y31777444D01*
X31544418Y31777453D01*
X31544484Y31777477D01*
X31546864Y31778254D01*
X31546859Y31778269D01*
X31547025Y31778321D01*
X31547353Y31778414D01*
X31547618Y31778501D01*
X31547852Y31778569D01*
X31547855Y31778557D01*
X31549536Y31779036D01*
X31554268Y31780251D01*
X31554576Y31780329D01*
X31554644Y31780346D01*
X31556939Y31780848D01*
X31556937Y31780860D01*
X31557187Y31780911D01*
X31557413Y31780951D01*
X31557557Y31780983D01*
X31557717Y31781013D01*
X31557718Y31781006D01*
X31559536Y31781332D01*
X31564364Y31782079D01*
X31564365Y31782074D01*
X31567172Y31782422D01*
X31567171Y31782434D01*
X31567375Y31782455D01*
X31567541Y31782468D01*
X31567636Y31782480D01*
X31567849Y31782499D01*
X31567850Y31782493D01*
X31569701Y31782640D01*
X31574520Y31782910D01*
X31574590Y31782914D01*
X31574887Y31782921D01*
X31574887Y31782923D01*
X31574981Y31782928D01*
X31577494Y31782999D01*
X31577843Y31783000D01*
X32053090Y31783000D01*
X32053248Y31782995D01*
X32053263Y31782995D01*
X32055709Y31782935D01*
X32060589Y31782696D01*
X32060589Y31782689D01*
X32063287Y31782476D01*
X32063288Y31782491D01*
X32063433Y31782477D01*
X32063710Y31782443D01*
X32063916Y31782427D01*
X32064186Y31782396D01*
X32064185Y31782385D01*
X32065925Y31782173D01*
X32070758Y31781460D01*
X32070758Y31781458D01*
X32073576Y31780957D01*
X32073577Y31780963D01*
X32073747Y31780929D01*
X32073811Y31780915D01*
X32073882Y31780902D01*
X32074123Y31780851D01*
X32074122Y31780845D01*
X32076039Y31780414D01*
X32080779Y31779232D01*
X32080808Y31779225D01*
X32080876Y31779208D01*
X32083504Y31778467D01*
X32083505Y31778472D01*
X32083673Y31778421D01*
X32083707Y31778410D01*
X32083756Y31778396D01*
X32083988Y31778323D01*
X32083986Y31778318D01*
X32085924Y31777679D01*
X32090526Y31776040D01*
X32090526Y31776039D01*
X32093001Y31775069D01*
X32093006Y31775082D01*
X32093167Y31775016D01*
X32093424Y31774903D01*
X32093610Y31774830D01*
X32093835Y31774733D01*
X32093831Y31774724D01*
X32095492Y31773993D01*
X32099912Y31771913D01*
X32100119Y31771815D01*
X32100182Y31771785D01*
X32102258Y31770720D01*
X32102264Y31770730D01*
X32102436Y31770639D01*
X32102649Y31770519D01*
X32102815Y31770434D01*
X32103011Y31770326D01*
X32103007Y31770318D01*
X32104653Y31769392D01*
X32108849Y31766891D01*
X32108974Y31766817D01*
X32109034Y31766781D01*
X32111170Y31765407D01*
X32111176Y31765417D01*
X32111328Y31765316D01*
X32111507Y31765190D01*
X32111626Y31765114D01*
X32111821Y31764980D01*
X32111817Y31764974D01*
X32113327Y31763915D01*
X32117259Y31761016D01*
X32117257Y31761014D01*
X32119456Y31759287D01*
X32119464Y31759296D01*
X32119629Y31759161D01*
X32119765Y31759044D01*
X32119843Y31758983D01*
X32120001Y31758850D01*
X32119997Y31758845D01*
X32121427Y31757618D01*
X32125057Y31754349D01*
X32125049Y31754340D01*
X32127021Y31752462D01*
X32127031Y31752472D01*
X32127156Y31752348D01*
X32127316Y31752181D01*
X32127415Y31752087D01*
X32127584Y31751914D01*
X32127578Y31751908D01*
X32128864Y31750568D01*
X32132158Y31746961D01*
X32132331Y31746771D01*
X32132378Y31746719D01*
X32133967Y31744856D01*
X32133973Y31744861D01*
X32134101Y31744706D01*
X32134177Y31744610D01*
X32134237Y31744539D01*
X32134373Y31744370D01*
X32134368Y31744366D01*
X32135582Y31742822D01*
X32138500Y31738922D01*
X32138491Y31738915D01*
X32138586Y31738785D01*
X32138597Y31738793D01*
X32138629Y31738750D01*
X32139014Y31738199D01*
X32139586Y31737415D01*
X32139595Y31737402D01*
X32139578Y31737390D01*
X32140080Y31736672D01*
X32140088Y31736677D01*
X32140212Y31736493D01*
X32140292Y31736369D01*
X32140352Y31736282D01*
X32140460Y31736117D01*
X32140455Y31736114D01*
X32141519Y31734449D01*
X32144049Y31730271D01*
X32144154Y31730097D01*
X32144190Y31730037D01*
X32145331Y31727997D01*
X32145342Y31728003D01*
X32145435Y31727832D01*
X32145560Y31727586D01*
X32145672Y31727387D01*
X32145775Y31727189D01*
X32145766Y31727184D01*
X32146603Y31725546D01*
X32148710Y31721148D01*
X32148706Y31721146D01*
X32148976Y31720585D01*
X32149002Y31720529D01*
X32149789Y31718713D01*
X32149797Y31718716D01*
X32149873Y31718536D01*
X32149945Y31718353D01*
X32150029Y31718159D01*
X32150112Y31717953D01*
X32150104Y31717950D01*
X32150796Y31716188D01*
X32152467Y31711597D01*
X32152462Y31711595D01*
X32153302Y31709057D01*
X32153314Y31709061D01*
X32153366Y31708894D01*
X32153425Y31708686D01*
X32153481Y31708517D01*
X32153550Y31708282D01*
X32153541Y31708279D01*
X32154056Y31706464D01*
X32155271Y31701732D01*
X32155306Y31701594D01*
X32155323Y31701527D01*
X32155905Y31698913D01*
X32155910Y31698914D01*
X32155949Y31698721D01*
X32155955Y31698688D01*
X32155964Y31698647D01*
X32156006Y31698428D01*
X32156001Y31698427D01*
X32156352Y31696462D01*
X32157098Y31691640D01*
X32157090Y31691639D01*
X32157227Y31690540D01*
X32157294Y31690247D01*
X32157324Y31689771D01*
X32157425Y31688969D01*
X32157439Y31688971D01*
X32157457Y31688802D01*
X32157478Y31688544D01*
X32157499Y31688376D01*
X32157521Y31688130D01*
X32157512Y31688129D01*
X32157660Y31686300D01*
X32157930Y31681480D01*
X32157934Y31681410D01*
X32157941Y31681113D01*
X32157943Y31681113D01*
X32157948Y31681019D01*
X32158019Y31678506D01*
X32158020Y31678157D01*
X32158020Y31427930D01*
X32158008Y31427551D01*
X32157953Y31425311D01*
X32157714Y31420431D01*
X32157707Y31420431D01*
X32157494Y31417733D01*
X32157509Y31417732D01*
X32157495Y31417587D01*
X32157459Y31417286D01*
X32157445Y31417104D01*
X32157414Y31416834D01*
X32157406Y31416835D01*
X32157239Y31415429D01*
X32157230Y31415365D01*
X32157172Y31415024D01*
X32157180Y31415023D01*
X32156478Y31410264D01*
X32156466Y31410266D01*
X32156073Y31408019D01*
X32156052Y31407803D01*
X32156004Y31407621D01*
X32155981Y31407489D01*
X32155989Y31407487D01*
X32155959Y31407336D01*
X32155934Y31407222D01*
X32155920Y31407142D01*
X32155865Y31406882D01*
X32155860Y31406883D01*
X32155529Y31405376D01*
X32155516Y31405322D01*
X32155412Y31404898D01*
X32155409Y31404886D01*
X32155409Y31404887D01*
X32154254Y31400255D01*
X32154216Y31400265D01*
X32154152Y31400001D01*
X32154188Y31399992D01*
X32154174Y31399937D01*
X32153923Y31399058D01*
X32153813Y31398604D01*
X32153809Y31398590D01*
X32153791Y31398595D01*
X32153518Y31397641D01*
X32153527Y31397638D01*
X32153467Y31397439D01*
X32153421Y31397298D01*
X32153387Y31397180D01*
X32153324Y31396981D01*
X32153317Y31396983D01*
X32152702Y31395110D01*
X32151064Y31390507D01*
X32150948Y31390183D01*
X32150924Y31390117D01*
X32150066Y31387949D01*
X32150073Y31387946D01*
X32150020Y31387817D01*
X32149957Y31387673D01*
X32149900Y31387530D01*
X32149790Y31387273D01*
X32149782Y31387276D01*
X32149012Y31385528D01*
X32146932Y31381108D01*
X32146834Y31380901D01*
X32146804Y31380838D01*
X32145709Y31378698D01*
X32145716Y31378694D01*
X32145637Y31378545D01*
X32145574Y31378433D01*
X32145510Y31378308D01*
X32145390Y31378089D01*
X32145383Y31378093D01*
X32144411Y31376367D01*
X32141910Y31372171D01*
X32141836Y31372046D01*
X32141800Y31371986D01*
X32140336Y31369701D01*
X32140339Y31369699D01*
X32140246Y31369560D01*
X32140242Y31369554D01*
X32140220Y31369520D01*
X32140078Y31369312D01*
X32140074Y31369315D01*
X32138934Y31367693D01*
X32136134Y31363895D01*
X32136093Y31363839D01*
X32136085Y31363828D01*
X32136035Y31363761D01*
X32136033Y31363762D01*
X32134356Y31361623D01*
X32134364Y31361617D01*
X32134268Y31361499D01*
X32134156Y31361368D01*
X32134054Y31361238D01*
X32133882Y31361033D01*
X32133875Y31361039D01*
X32132637Y31359593D01*
X32129368Y31355963D01*
X32129359Y31355971D01*
X32127488Y31354004D01*
X32127497Y31353995D01*
X32127391Y31353888D01*
X32127242Y31353745D01*
X32127146Y31353644D01*
X32126955Y31353457D01*
X32126949Y31353463D01*
X32125587Y31352156D01*
X32121980Y31348862D01*
X32121790Y31348689D01*
X32121738Y31348642D01*
X32119888Y31347063D01*
X32119893Y31347058D01*
X32119743Y31346934D01*
X32119664Y31346872D01*
X32119581Y31346801D01*
X32119406Y31346660D01*
X32119402Y31346665D01*
X32117834Y31345432D01*
X32113922Y31342506D01*
X32113918Y31342503D01*
X32111673Y31340929D01*
X32111678Y31340921D01*
X32111570Y31340848D01*
X32111417Y31340750D01*
X32111290Y31340661D01*
X32111050Y31340504D01*
X32111045Y31340512D01*
X32109477Y31339508D01*
X32105299Y31336977D01*
X32105294Y31336985D01*
X32102791Y31335560D01*
X32102794Y31335554D01*
X32102649Y31335476D01*
X32102598Y31335450D01*
X32102554Y31335425D01*
X32102329Y31335307D01*
X32102326Y31335312D01*
X32100570Y31334419D01*
X32096165Y31332308D01*
X32096054Y31332255D01*
X32095991Y31332225D01*
X32093615Y31331181D01*
X32093618Y31331173D01*
X32093468Y31331110D01*
X32093329Y31331055D01*
X32093198Y31330998D01*
X32092960Y31330902D01*
X32092957Y31330910D01*
X32091207Y31330224D01*
X32086616Y31328553D01*
X32086602Y31328548D01*
X32086536Y31328524D01*
X32084168Y31327748D01*
X32084172Y31327734D01*
X32083977Y31327673D01*
X32083694Y31327593D01*
X32083494Y31327527D01*
X32083289Y31327467D01*
X32083286Y31327477D01*
X32081486Y31326965D01*
X32076755Y31325750D01*
X32076445Y31325671D01*
X32076377Y31325654D01*
X32074145Y31325164D01*
X32074147Y31325154D01*
X32073978Y31325119D01*
X32073771Y31325082D01*
X32073550Y31325033D01*
X32073307Y31324987D01*
X32073305Y31324997D01*
X32071485Y31324668D01*
X32066658Y31323921D01*
X32066658Y31323922D01*
X32063968Y31323590D01*
X32063969Y31323579D01*
X32063809Y31323562D01*
X32063610Y31323546D01*
X32063433Y31323524D01*
X32063178Y31323501D01*
X32063177Y31323511D01*
X32061320Y31323360D01*
X32056442Y31323087D01*
X32056442Y31323088D01*
X32056133Y31323081D01*
X32056133Y31323077D01*
X32056039Y31323072D01*
X32053526Y31323001D01*
X32053177Y31323000D01*
X31808000Y31323000D01*
X31808000Y31015430D01*
X31807993Y31015199D01*
X31807934Y31012810D01*
X31807695Y31007930D01*
X31807688Y31007930D01*
X31807475Y31005232D01*
X31807490Y31005231D01*
X31807476Y31005086D01*
X31807440Y31004785D01*
X31807426Y31004603D01*
X31807395Y31004333D01*
X31807387Y31004334D01*
X31807220Y31002928D01*
X31807211Y31002864D01*
X31807153Y31002523D01*
X31807161Y31002522D01*
X31806459Y30997763D01*
X31806447Y30997765D01*
X31806054Y30995518D01*
X31806033Y30995302D01*
X31805985Y30995120D01*
X31805962Y30994988D01*
X31805970Y30994986D01*
X31805940Y30994835D01*
X31805915Y30994721D01*
X31805901Y30994641D01*
X31805846Y30994381D01*
X31805841Y30994382D01*
X31805510Y30992875D01*
X31805497Y30992821D01*
X31805393Y30992397D01*
X31805390Y30992385D01*
X31805390Y30992386D01*
X31804231Y30987738D01*
X31804224Y30987711D01*
X31804207Y30987643D01*
X31803471Y30985037D01*
X31803477Y30985035D01*
X31803427Y30984870D01*
X31803408Y30984813D01*
X31803391Y30984752D01*
X31803317Y30984517D01*
X31803311Y30984519D01*
X31802678Y30982595D01*
X31801039Y30977993D01*
X31801038Y30977993D01*
X31799991Y30975310D01*
X31799997Y30975307D01*
X31799931Y30975148D01*
X31799905Y30975089D01*
X31799892Y30975056D01*
X31799795Y30974829D01*
X31799791Y30974831D01*
X31798992Y30973027D01*
X31796912Y30968607D01*
X31796814Y30968400D01*
X31796784Y30968337D01*
X31795689Y30966197D01*
X31795696Y30966193D01*
X31795617Y30966044D01*
X31795554Y30965932D01*
X31795490Y30965807D01*
X31795370Y30965588D01*
X31795363Y30965592D01*
X31794391Y30963866D01*
X31791890Y30959670D01*
X31791816Y30959545D01*
X31791780Y30959485D01*
X31790408Y30957345D01*
X31790414Y30957341D01*
X31790315Y30957192D01*
X31790260Y30957113D01*
X31790186Y30956998D01*
X31790050Y30956799D01*
X31790043Y30956804D01*
X31788911Y30955186D01*
X31786012Y30951255D01*
X31786009Y30951257D01*
X31784288Y30949062D01*
X31784295Y30949057D01*
X31784211Y30948954D01*
X31784120Y30948848D01*
X31784026Y30948728D01*
X31783843Y30948510D01*
X31783836Y30948516D01*
X31783830Y30948510D01*
X31783837Y30948504D01*
X31783827Y30948492D01*
X31783625Y30948271D01*
X31782583Y30947056D01*
X31782546Y30947015D01*
X31779359Y30943474D01*
X31779351Y30943481D01*
X31777469Y30941501D01*
X31777477Y30941493D01*
X31777371Y30941386D01*
X31777236Y30941256D01*
X31777132Y30941147D01*
X31776939Y30940958D01*
X31776932Y30940965D01*
X31775562Y30939649D01*
X31771954Y30936355D01*
X31771950Y30936359D01*
X31769967Y30934656D01*
X31769977Y30934644D01*
X31769846Y30934535D01*
X31769585Y30934329D01*
X31769401Y30934171D01*
X31769207Y30934016D01*
X31769200Y30934025D01*
X31767818Y30932934D01*
X31763907Y30930008D01*
X31763492Y30929701D01*
X31763436Y30929660D01*
X31761559Y30928357D01*
X31761561Y30928354D01*
X31761415Y30928256D01*
X31761395Y30928243D01*
X31761350Y30928212D01*
X31761146Y30928078D01*
X31761143Y30928083D01*
X31759441Y30926997D01*
X31755263Y30924468D01*
X31755259Y30924475D01*
X31755202Y30924431D01*
X31755144Y30924396D01*
X31752995Y30923190D01*
X31753002Y30923178D01*
X31752831Y30923085D01*
X31752576Y30922955D01*
X31752386Y30922848D01*
X31752188Y30922745D01*
X31752183Y30922754D01*
X31750550Y30921919D01*
X31746145Y30919808D01*
X31746034Y30919755D01*
X31745971Y30919725D01*
X31743595Y30918681D01*
X31743598Y30918673D01*
X31743448Y30918610D01*
X31743309Y30918555D01*
X31743178Y30918498D01*
X31742940Y30918402D01*
X31742937Y30918410D01*
X31741187Y30917724D01*
X31736596Y30916053D01*
X31736582Y30916048D01*
X31736516Y30916024D01*
X31734148Y30915248D01*
X31734152Y30915234D01*
X31733957Y30915173D01*
X31733674Y30915093D01*
X31733474Y30915027D01*
X31733269Y30914967D01*
X31733266Y30914977D01*
X31731466Y30914465D01*
X31726735Y30913250D01*
X31726425Y30913171D01*
X31726357Y30913154D01*
X31723961Y30912626D01*
X31723962Y30912619D01*
X31723775Y30912581D01*
X31723678Y30912564D01*
X31723616Y30912550D01*
X31723391Y30912507D01*
X31723390Y30912512D01*
X31721465Y30912168D01*
X31716638Y30911421D01*
X31716638Y30911422D01*
X31713969Y30911094D01*
X31713970Y30911081D01*
X31713801Y30911063D01*
X31713552Y30911043D01*
X31713375Y30911021D01*
X31713129Y30910999D01*
X31713128Y30911008D01*
X31711300Y30910860D01*
X31706422Y30910587D01*
X31706422Y30910588D01*
X31706113Y30910581D01*
X31706113Y30910577D01*
X31706019Y30910572D01*
X31703506Y30910501D01*
X31703157Y30910500D01*
X31577930Y30910500D01*
X31577702Y30910507D01*
X31575309Y30910566D01*
X31570430Y30910805D01*
X31570430Y30910812D01*
X31567710Y30911023D01*
X31567709Y30911013D01*
X31567605Y30911023D01*
X31567408Y30911047D01*
X31567214Y30911062D01*
X31566903Y30911097D01*
X31566904Y30911108D01*
X31565102Y30911327D01*
X31560270Y30912039D01*
X31559797Y30912111D01*
X31559727Y30912122D01*
X31557651Y30912504D01*
X31557650Y30912498D01*
X31557547Y30912518D01*
X31557401Y30912550D01*
X31557164Y30912594D01*
X31556856Y30912659D01*
X31556858Y30912671D01*
X31554980Y30913087D01*
X31550240Y30914269D01*
X31550244Y30914286D01*
X31547562Y30915027D01*
X31547559Y30915016D01*
X31547433Y30915054D01*
X31547264Y30915109D01*
X31547139Y30915144D01*
X31546865Y30915231D01*
X31546868Y30915240D01*
X31545091Y30915823D01*
X31540490Y30917462D01*
X31540493Y30917470D01*
X31537810Y30918510D01*
X31537807Y30918503D01*
X31537648Y30918569D01*
X31537587Y30918596D01*
X31537556Y30918608D01*
X31537329Y30918705D01*
X31537331Y30918709D01*
X31535527Y30919508D01*
X31531107Y30921588D01*
X31530900Y30921686D01*
X31530837Y30921716D01*
X31528640Y30922839D01*
X31528637Y30922834D01*
X31528481Y30922917D01*
X31528417Y30922953D01*
X31528333Y30922996D01*
X31528121Y30923112D01*
X31528124Y30923118D01*
X31526366Y30924109D01*
X31522170Y30926610D01*
X31522045Y30926684D01*
X31521985Y30926720D01*
X31519976Y30928012D01*
X31519969Y30928001D01*
X31519816Y30928102D01*
X31519581Y30928266D01*
X31519393Y30928387D01*
X31519198Y30928521D01*
X31519204Y30928530D01*
X31517681Y30929593D01*
X31513751Y30932492D01*
X31513761Y30932505D01*
X31511646Y30934152D01*
X31511636Y30934140D01*
X31511524Y30934231D01*
X31511318Y30934407D01*
X31511168Y30934524D01*
X31510959Y30934700D01*
X31510966Y30934708D01*
X31509605Y30935873D01*
X31505974Y30939141D01*
X31505981Y30939149D01*
X31503996Y30941038D01*
X31503987Y30941029D01*
X31503864Y30941151D01*
X31503719Y30941302D01*
X31503614Y30941402D01*
X31503441Y30941579D01*
X31503447Y30941585D01*
X31502149Y30942938D01*
X31498856Y30946545D01*
X31498688Y30946730D01*
X31498641Y30946782D01*
X31497073Y30948620D01*
X31497067Y30948615D01*
X31496938Y30948771D01*
X31496856Y30948876D01*
X31496782Y30948962D01*
X31496646Y30949131D01*
X31496651Y30949135D01*
X31495433Y30950683D01*
X31492508Y30954593D01*
X31492503Y30954600D01*
X31490910Y30956875D01*
X31490902Y30956869D01*
X31490811Y30957004D01*
X31490721Y30957145D01*
X31490634Y30957269D01*
X31490493Y30957485D01*
X31490500Y30957490D01*
X31489501Y30959052D01*
X31486971Y30963230D01*
X31486866Y30963404D01*
X31486830Y30963464D01*
X31485689Y30965504D01*
X31485678Y30965498D01*
X31485585Y30965669D01*
X31485459Y30965916D01*
X31485348Y30966114D01*
X31485245Y30966312D01*
X31485254Y30966317D01*
X31484419Y30967950D01*
X31482308Y30972355D01*
X31482125Y30972741D01*
X31482095Y30972805D01*
X31481189Y30974883D01*
X31481182Y30974880D01*
X31481121Y30975025D01*
X31481069Y30975157D01*
X31481024Y30975260D01*
X31480926Y30975502D01*
X31480932Y30975504D01*
X31480376Y30976916D01*
X31480372Y30976915D01*
X31480369Y30976923D01*
X31480358Y30976961D01*
X31480292Y30977129D01*
X31480271Y30977186D01*
X31480292Y30977194D01*
X31480238Y30977381D01*
X31480204Y30977369D01*
X31478557Y30981890D01*
X31478547Y30981918D01*
X31478523Y30981984D01*
X31477717Y30984443D01*
X31477706Y30984439D01*
X31477658Y30984593D01*
X31477594Y30984820D01*
X31477526Y30985026D01*
X31477454Y30985272D01*
X31477464Y30985275D01*
X31476964Y30987036D01*
X31475749Y30991768D01*
X31475671Y30992076D01*
X31475654Y30992144D01*
X31475126Y30994533D01*
X31475120Y30994532D01*
X31475078Y30994739D01*
X31475066Y30994807D01*
X31475059Y30994838D01*
X31475020Y30995041D01*
X31475024Y30995042D01*
X31474668Y30997036D01*
X31473921Y31001864D01*
X31473926Y31001865D01*
X31473565Y31004739D01*
X31473559Y31004738D01*
X31473543Y31004894D01*
X31473539Y31004947D01*
X31473532Y31005000D01*
X31473508Y31005261D01*
X31473513Y31005261D01*
X31473376Y31006924D01*
X31473372Y31006989D01*
X31473363Y31007272D01*
X31473356Y31007272D01*
X31473090Y31012020D01*
X31473086Y31012090D01*
X31473079Y31012387D01*
X31473077Y31012387D01*
X31473072Y31012481D01*
X31473001Y31014994D01*
X31473000Y31015343D01*
X31473000Y31678070D01*
X31473007Y31678298D01*
G37*
G36*
X28148008Y35003304D02*
G01*
X28148066Y35005689D01*
X28148305Y35010568D01*
X28148312Y35010568D01*
X28148537Y35013478D01*
X28148531Y35013479D01*
X28148545Y35013618D01*
X28148553Y35013683D01*
X28148560Y35013773D01*
X28148591Y35014049D01*
X28148598Y35014048D01*
X28148616Y35014189D01*
X28148608Y35014190D01*
X28148609Y35014199D01*
X28148648Y35014450D01*
X28148828Y35015905D01*
X28148837Y35015966D01*
X28148882Y35015959D01*
X28148883Y35015964D01*
X28148838Y35015971D01*
X28149539Y35020728D01*
X28149611Y35021201D01*
X28149622Y35021271D01*
X28150024Y35023449D01*
X28150017Y35023450D01*
X28150046Y35023597D01*
X28150078Y35023743D01*
X28150104Y35023884D01*
X28150160Y35024148D01*
X28150166Y35024147D01*
X28150490Y35025623D01*
X28150503Y35025677D01*
X28150605Y35026093D01*
X28151728Y35030597D01*
X28151742Y35030654D01*
X28151747Y35030671D01*
X28151765Y35030744D01*
X28151766Y35030744D01*
X28151775Y35030786D01*
X28151778Y35030798D01*
X28151782Y35030797D01*
X28152506Y35033364D01*
X28152494Y35033368D01*
X28152547Y35033544D01*
X28152614Y35033749D01*
X28152656Y35033897D01*
X28152727Y35034120D01*
X28152735Y35034117D01*
X28153321Y35035902D01*
X28154960Y35040504D01*
X28154968Y35040501D01*
X28155957Y35043043D01*
X28155944Y35043048D01*
X28156014Y35043218D01*
X28156106Y35043428D01*
X28156161Y35043568D01*
X28156254Y35043784D01*
X28156262Y35043781D01*
X28157007Y35045471D01*
X28159087Y35049891D01*
X28159185Y35050098D01*
X28159215Y35050161D01*
X28160341Y35052358D01*
X28160334Y35052362D01*
X28160417Y35052518D01*
X28160476Y35052622D01*
X28160534Y35052736D01*
X28160651Y35052949D01*
X28160658Y35052945D01*
X28161611Y35054637D01*
X28164112Y35058832D01*
X28164116Y35058829D01*
X28165599Y35061153D01*
X28165588Y35061160D01*
X28165681Y35061300D01*
X28165809Y35061483D01*
X28165899Y35061624D01*
X28166040Y35061829D01*
X28166047Y35061824D01*
X28167076Y35063294D01*
X28169974Y35067227D01*
X28170227Y35067567D01*
X28170269Y35067623D01*
X28171774Y35069523D01*
X28171771Y35069526D01*
X28171895Y35069677D01*
X28171912Y35069697D01*
X28171913Y35069698D01*
X28172056Y35069869D01*
X28172058Y35069867D01*
X28173372Y35071394D01*
X28176641Y35075026D01*
X28176711Y35075104D01*
X28176758Y35075156D01*
X28178536Y35077003D01*
X28178528Y35077011D01*
X28178666Y35077150D01*
X28178829Y35077306D01*
X28178950Y35077432D01*
X28179109Y35077587D01*
X28179115Y35077581D01*
X28180432Y35078844D01*
X28184039Y35082138D01*
X28184229Y35082311D01*
X28184281Y35082358D01*
X28186008Y35083828D01*
X28186000Y35083837D01*
X28186149Y35083961D01*
X28186358Y35084126D01*
X28186546Y35084286D01*
X28186722Y35084427D01*
X28186729Y35084419D01*
X28188185Y35085568D01*
X28192045Y35088455D01*
X28192101Y35088497D01*
X28194442Y35090137D01*
X28194437Y35090144D01*
X28194583Y35090242D01*
X28194679Y35090303D01*
X28194750Y35090353D01*
X28194952Y35090485D01*
X28194956Y35090480D01*
X28196535Y35091487D01*
X28200713Y35094019D01*
X28200902Y35094134D01*
X28200962Y35094170D01*
X28203275Y35095466D01*
X28203272Y35095471D01*
X28203423Y35095552D01*
X28203472Y35095577D01*
X28203524Y35095606D01*
X28203744Y35095721D01*
X28203746Y35095716D01*
X28205454Y35096583D01*
X28209860Y35098694D01*
X28209866Y35098681D01*
X28212386Y35099804D01*
X28212380Y35099818D01*
X28212525Y35099879D01*
X28212763Y35099972D01*
X28212924Y35100044D01*
X28213166Y35100141D01*
X28213170Y35100132D01*
X28214810Y35100774D01*
X28219400Y35102445D01*
X28219417Y35102452D01*
X28219483Y35102476D01*
X28221885Y35103264D01*
X28221881Y35103276D01*
X28222057Y35103331D01*
X28222303Y35103401D01*
X28222496Y35103464D01*
X28222721Y35103530D01*
X28222724Y35103521D01*
X28224534Y35104035D01*
X28229265Y35105250D01*
X28229575Y35105329D01*
X28229643Y35105346D01*
X28231892Y35105839D01*
X28231890Y35105850D01*
X28232084Y35105890D01*
X28232300Y35105929D01*
X28232487Y35105970D01*
X28232704Y35106011D01*
X28232706Y35106002D01*
X28234534Y35106332D01*
X28239361Y35107079D01*
X28239362Y35107073D01*
X28242123Y35107416D01*
X28242122Y35107429D01*
X28242324Y35107450D01*
X28242543Y35107467D01*
X28242676Y35107484D01*
X28242891Y35107503D01*
X28242892Y35107495D01*
X28244700Y35107640D01*
X28249520Y35107910D01*
X28249590Y35107914D01*
X28249887Y35107921D01*
X28249887Y35107923D01*
X28249981Y35107928D01*
X28252494Y35107999D01*
X28252843Y35108000D01*
X28498000Y35108000D01*
X28498000Y35440570D01*
X28498007Y35440798D01*
X28498066Y35443191D01*
X28498305Y35448070D01*
X28498312Y35448070D01*
X28498537Y35450980D01*
X28498531Y35450981D01*
X28498545Y35451120D01*
X28498553Y35451185D01*
X28498560Y35451275D01*
X28498591Y35451551D01*
X28498598Y35451550D01*
X28498616Y35451691D01*
X28498608Y35451692D01*
X28498609Y35451701D01*
X28498648Y35451952D01*
X28498828Y35453407D01*
X28498837Y35453468D01*
X28498882Y35453461D01*
X28498883Y35453466D01*
X28498838Y35453473D01*
X28499539Y35458230D01*
X28499611Y35458703D01*
X28499622Y35458773D01*
X28500024Y35460951D01*
X28500017Y35460952D01*
X28500046Y35461099D01*
X28500078Y35461245D01*
X28500104Y35461386D01*
X28500160Y35461650D01*
X28500166Y35461649D01*
X28500490Y35463125D01*
X28500503Y35463179D01*
X28500605Y35463595D01*
X28501769Y35468262D01*
X28501787Y35468257D01*
X28502524Y35470922D01*
X28502511Y35470926D01*
X28502552Y35471062D01*
X28502617Y35471260D01*
X28502653Y35471390D01*
X28502737Y35471654D01*
X28502746Y35471651D01*
X28503323Y35473409D01*
X28504962Y35478010D01*
X28504970Y35478007D01*
X28506010Y35480690D01*
X28506003Y35480693D01*
X28506069Y35480852D01*
X28506096Y35480913D01*
X28506108Y35480944D01*
X28506205Y35481171D01*
X28506209Y35481169D01*
X28507008Y35482973D01*
X28509088Y35487393D01*
X28509186Y35487600D01*
X28509216Y35487663D01*
X28510267Y35489712D01*
X28510257Y35489717D01*
X28510342Y35489878D01*
X28510465Y35490097D01*
X28510562Y35490286D01*
X28510676Y35490493D01*
X28510685Y35490488D01*
X28511609Y35492134D01*
X28514110Y35496330D01*
X28514184Y35496455D01*
X28514220Y35496515D01*
X28515580Y35498632D01*
X28515571Y35498638D01*
X28515692Y35498820D01*
X28515804Y35498979D01*
X28515878Y35499095D01*
X28515992Y35499261D01*
X28515998Y35499257D01*
X28517093Y35500819D01*
X28519992Y35504749D01*
X28520006Y35504739D01*
X28521627Y35506819D01*
X28521613Y35506830D01*
X28521712Y35506952D01*
X28521929Y35507206D01*
X28522064Y35507379D01*
X28522232Y35507578D01*
X28522241Y35507571D01*
X28523373Y35508895D01*
X28526641Y35512526D01*
X28526649Y35512519D01*
X28528538Y35514504D01*
X28528529Y35514513D01*
X28528651Y35514636D01*
X28528802Y35514781D01*
X28528902Y35514886D01*
X28529079Y35515059D01*
X28529085Y35515053D01*
X28530438Y35516351D01*
X28534045Y35519644D01*
X28534230Y35519812D01*
X28534282Y35519859D01*
X28536085Y35521394D01*
X28536078Y35521403D01*
X28536241Y35521538D01*
X28536415Y35521675D01*
X28536516Y35521761D01*
X28536678Y35521891D01*
X28536682Y35521886D01*
X28538183Y35523067D01*
X28542044Y35525955D01*
X28542100Y35525997D01*
X28544444Y35527639D01*
X28544439Y35527646D01*
X28544585Y35527744D01*
X28544676Y35527802D01*
X28544743Y35527849D01*
X28544948Y35527983D01*
X28544951Y35527978D01*
X28546552Y35528999D01*
X28550730Y35531529D01*
X28550904Y35531634D01*
X28550964Y35531670D01*
X28553004Y35532811D01*
X28552998Y35532822D01*
X28553169Y35532915D01*
X28553416Y35533041D01*
X28553614Y35533152D01*
X28553812Y35533255D01*
X28553817Y35533246D01*
X28555450Y35534081D01*
X28559855Y35536192D01*
X28560241Y35536375D01*
X28560305Y35536405D01*
X28562468Y35537350D01*
X28562466Y35537354D01*
X28562619Y35537418D01*
X28562656Y35537432D01*
X28562719Y35537460D01*
X28562953Y35537555D01*
X28562955Y35537549D01*
X28564804Y35538272D01*
X28569395Y35539944D01*
X28569418Y35539953D01*
X28569484Y35539977D01*
X28572006Y35540805D01*
X28572003Y35540814D01*
X28572161Y35540863D01*
X28572331Y35540911D01*
X28572495Y35540965D01*
X28572737Y35541036D01*
X28572740Y35541027D01*
X28574536Y35541536D01*
X28579268Y35542751D01*
X28579576Y35542829D01*
X28579644Y35542846D01*
X28581939Y35543348D01*
X28581937Y35543360D01*
X28582187Y35543411D01*
X28582413Y35543451D01*
X28582557Y35543483D01*
X28582717Y35543513D01*
X28582718Y35543506D01*
X28584536Y35543832D01*
X28589364Y35544579D01*
X28589365Y35544574D01*
X28592239Y35544935D01*
X28592238Y35544941D01*
X28592394Y35544957D01*
X28592444Y35544961D01*
X28592500Y35544968D01*
X28592761Y35544992D01*
X28592762Y35544986D01*
X28594701Y35545140D01*
X28599520Y35545410D01*
X28599590Y35545414D01*
X28599887Y35545421D01*
X28599887Y35545423D01*
X28599981Y35545428D01*
X28602494Y35545499D01*
X28602843Y35545500D01*
X28728070Y35545500D01*
X28728244Y35545494D01*
X28730690Y35545434D01*
X28735570Y35545195D01*
X28735570Y35545188D01*
X28738268Y35544975D01*
X28738269Y35544990D01*
X28738414Y35544976D01*
X28738691Y35544942D01*
X28738897Y35544926D01*
X28739167Y35544895D01*
X28739166Y35544884D01*
X28740906Y35544672D01*
X28745739Y35543959D01*
X28745739Y35543957D01*
X28748500Y35543464D01*
X28748502Y35543473D01*
X28748673Y35543439D01*
X28748800Y35543411D01*
X28748904Y35543392D01*
X28749144Y35543341D01*
X28749142Y35543334D01*
X28751020Y35542913D01*
X28755760Y35541731D01*
X28755789Y35541724D01*
X28755857Y35541707D01*
X28758404Y35540987D01*
X28758406Y35540995D01*
X28758575Y35540944D01*
X28758693Y35540905D01*
X28758796Y35540876D01*
X28759027Y35540803D01*
X28759025Y35540796D01*
X28760905Y35540178D01*
X28765507Y35538539D01*
X28765507Y35538538D01*
X28768127Y35537514D01*
X28768130Y35537522D01*
X28768292Y35537455D01*
X28768399Y35537408D01*
X28768493Y35537371D01*
X28768717Y35537275D01*
X28768714Y35537269D01*
X28770473Y35536492D01*
X28774893Y35534412D01*
X28775100Y35534314D01*
X28775163Y35534284D01*
X28777349Y35533166D01*
X28777352Y35533172D01*
X28777523Y35533081D01*
X28777608Y35533033D01*
X28777702Y35532985D01*
X28777899Y35532877D01*
X28777896Y35532871D01*
X28779634Y35531891D01*
X28783830Y35529390D01*
X28783955Y35529316D01*
X28784015Y35529280D01*
X28786152Y35527910D01*
X28786156Y35527917D01*
X28786311Y35527814D01*
X28786411Y35527744D01*
X28786517Y35527676D01*
X28786710Y35527544D01*
X28786706Y35527538D01*
X28788314Y35526411D01*
X28792245Y35523512D01*
X28792243Y35523509D01*
X28794438Y35521788D01*
X28794443Y35521795D01*
X28794546Y35521711D01*
X28794652Y35521620D01*
X28794772Y35521526D01*
X28794990Y35521343D01*
X28794984Y35521336D01*
X28794990Y35521330D01*
X28794996Y35521337D01*
X28795008Y35521327D01*
X28795229Y35521125D01*
X28796444Y35520083D01*
X28796485Y35520046D01*
X28800026Y35516859D01*
X28800019Y35516851D01*
X28802004Y35514962D01*
X28802013Y35514971D01*
X28802138Y35514847D01*
X28802284Y35514695D01*
X28802391Y35514593D01*
X28802562Y35514418D01*
X28802556Y35514412D01*
X28803851Y35513062D01*
X28807145Y35509454D01*
X28807141Y35509450D01*
X28808844Y35507467D01*
X28808856Y35507477D01*
X28808965Y35507346D01*
X28809171Y35507085D01*
X28809329Y35506901D01*
X28809484Y35506707D01*
X28809475Y35506700D01*
X28810566Y35505318D01*
X28813492Y35501407D01*
X28813799Y35500992D01*
X28813840Y35500936D01*
X28815097Y35499119D01*
X28815104Y35499123D01*
X28815223Y35498946D01*
X28815296Y35498831D01*
X28815358Y35498742D01*
X28815471Y35498569D01*
X28815466Y35498566D01*
X28816501Y35496944D01*
X28819031Y35492765D01*
X28819028Y35492763D01*
X28820309Y35490495D01*
X28820322Y35490502D01*
X28820415Y35490331D01*
X28820551Y35490065D01*
X28820652Y35489886D01*
X28820755Y35489688D01*
X28820746Y35489683D01*
X28821581Y35488050D01*
X28823692Y35483645D01*
X28823745Y35483534D01*
X28823775Y35483471D01*
X28824819Y35481095D01*
X28824827Y35481098D01*
X28824890Y35480948D01*
X28824952Y35480792D01*
X28825002Y35480678D01*
X28825098Y35480440D01*
X28825093Y35480438D01*
X28825607Y35479142D01*
X28825628Y35479086D01*
X28825795Y35478615D01*
X28825801Y35478617D01*
X28827408Y35474202D01*
X28827430Y35474142D01*
X28827432Y35474136D01*
X28827444Y35474103D01*
X28827443Y35474103D01*
X28828251Y35471647D01*
X28828266Y35471652D01*
X28828327Y35471457D01*
X28828409Y35471168D01*
X28828473Y35470974D01*
X28828533Y35470769D01*
X28828525Y35470767D01*
X28828538Y35470732D01*
X28828540Y35470725D01*
X28828535Y35470724D01*
X28829035Y35468966D01*
X28830250Y35464235D01*
X28830329Y35463925D01*
X28830346Y35463857D01*
X28830874Y35461461D01*
X28830881Y35461462D01*
X28830919Y35461275D01*
X28830936Y35461179D01*
X28830950Y35461116D01*
X28830993Y35460891D01*
X28830988Y35460890D01*
X28831332Y35458961D01*
X28832078Y35454138D01*
X28832070Y35454137D01*
X28832207Y35453039D01*
X28832274Y35452746D01*
X28832304Y35452270D01*
X28832405Y35451468D01*
X28832419Y35451470D01*
X28832437Y35451301D01*
X28832458Y35451042D01*
X28832479Y35450875D01*
X28832501Y35450629D01*
X28832492Y35450628D01*
X28832640Y35448800D01*
X28832913Y35443922D01*
X28832912Y35443922D01*
X28832919Y35443613D01*
X28832923Y35443613D01*
X28832928Y35443519D01*
X28832999Y35441006D01*
X28833000Y35440657D01*
X28833000Y34702930D01*
X28832993Y34702699D01*
X28832934Y34700310D01*
X28832695Y34695430D01*
X28832688Y34695430D01*
X28832475Y34692732D01*
X28832490Y34692731D01*
X28832476Y34692586D01*
X28832440Y34692285D01*
X28832426Y34692103D01*
X28832395Y34691833D01*
X28832387Y34691834D01*
X28832220Y34690428D01*
X28832211Y34690364D01*
X28832153Y34690023D01*
X28832161Y34690022D01*
X28831459Y34685263D01*
X28831447Y34685265D01*
X28831054Y34683018D01*
X28831033Y34682802D01*
X28830985Y34682620D01*
X28830962Y34682488D01*
X28830970Y34682486D01*
X28830940Y34682335D01*
X28830915Y34682221D01*
X28830901Y34682141D01*
X28830846Y34681881D01*
X28830841Y34681882D01*
X28830510Y34680375D01*
X28830497Y34680321D01*
X28830393Y34679897D01*
X28830390Y34679885D01*
X28830390Y34679886D01*
X28829231Y34675238D01*
X28829224Y34675211D01*
X28829207Y34675143D01*
X28828471Y34672537D01*
X28828477Y34672535D01*
X28828427Y34672370D01*
X28828408Y34672313D01*
X28828391Y34672252D01*
X28828317Y34672017D01*
X28828311Y34672019D01*
X28827678Y34670095D01*
X28826039Y34665493D01*
X28826038Y34665493D01*
X28825061Y34663000D01*
X28825073Y34662995D01*
X28825009Y34662839D01*
X28824911Y34662616D01*
X28824840Y34662435D01*
X28824741Y34662205D01*
X28824732Y34662209D01*
X28823992Y34660527D01*
X28821912Y34656107D01*
X28821814Y34655900D01*
X28821784Y34655837D01*
X28820689Y34653697D01*
X28820696Y34653693D01*
X28820617Y34653544D01*
X28820554Y34653432D01*
X28820490Y34653307D01*
X28820370Y34653088D01*
X28820363Y34653092D01*
X28819391Y34651366D01*
X28816890Y34647170D01*
X28816816Y34647045D01*
X28816780Y34646985D01*
X28815448Y34644911D01*
X28815457Y34644905D01*
X28815363Y34644763D01*
X28815250Y34644601D01*
X28815165Y34644469D01*
X28815024Y34644263D01*
X28815017Y34644268D01*
X28813911Y34642686D01*
X28811012Y34638755D01*
X28811009Y34638757D01*
X28809288Y34636562D01*
X28809295Y34636557D01*
X28809211Y34636454D01*
X28809120Y34636348D01*
X28809026Y34636228D01*
X28808843Y34636010D01*
X28808836Y34636016D01*
X28808830Y34636010D01*
X28808837Y34636004D01*
X28808827Y34635992D01*
X28808625Y34635771D01*
X28807583Y34634556D01*
X28807546Y34634515D01*
X28804359Y34630974D01*
X28804351Y34630981D01*
X28802469Y34629001D01*
X28802477Y34628993D01*
X28802371Y34628886D01*
X28802236Y34628756D01*
X28802132Y34628647D01*
X28801939Y34628458D01*
X28801932Y34628465D01*
X28800562Y34627149D01*
X28796954Y34623855D01*
X28796950Y34623859D01*
X28794866Y34622065D01*
X28794873Y34622057D01*
X28794751Y34621956D01*
X28794609Y34621844D01*
X28794496Y34621747D01*
X28794293Y34621584D01*
X28794287Y34621591D01*
X28792818Y34620434D01*
X28788907Y34617508D01*
X28788492Y34617201D01*
X28788436Y34617160D01*
X28786624Y34615904D01*
X28786627Y34615899D01*
X28786483Y34615802D01*
X28786402Y34615750D01*
X28786305Y34615683D01*
X28786099Y34615548D01*
X28786095Y34615554D01*
X28784441Y34614497D01*
X28780263Y34611968D01*
X28780259Y34611975D01*
X28780202Y34611931D01*
X28780144Y34611896D01*
X28777995Y34610690D01*
X28778002Y34610678D01*
X28777831Y34610585D01*
X28777576Y34610455D01*
X28777386Y34610348D01*
X28777188Y34610245D01*
X28777183Y34610254D01*
X28775550Y34609419D01*
X28771145Y34607308D01*
X28771034Y34607255D01*
X28770971Y34607225D01*
X28768595Y34606181D01*
X28768598Y34606173D01*
X28768448Y34606110D01*
X28768309Y34606055D01*
X28768178Y34605998D01*
X28767940Y34605902D01*
X28767937Y34605910D01*
X28766187Y34605224D01*
X28761596Y34603553D01*
X28761572Y34603547D01*
X28759137Y34602743D01*
X28759141Y34602731D01*
X28758975Y34602679D01*
X28758747Y34602614D01*
X28758571Y34602556D01*
X28758337Y34602487D01*
X28758334Y34602497D01*
X28756466Y34601965D01*
X28751735Y34600750D01*
X28751425Y34600671D01*
X28751357Y34600654D01*
X28749069Y34600151D01*
X28749071Y34600142D01*
X28748901Y34600107D01*
X28748714Y34600073D01*
X28748567Y34600041D01*
X28748325Y34599995D01*
X28748323Y34600003D01*
X28746465Y34599668D01*
X28741638Y34598921D01*
X28741638Y34598922D01*
X28738916Y34598586D01*
X28738917Y34598575D01*
X28738756Y34598558D01*
X28738563Y34598542D01*
X28738430Y34598526D01*
X28738176Y34598503D01*
X28738175Y34598511D01*
X28736300Y34598360D01*
X28731422Y34598087D01*
X28731422Y34598088D01*
X28731113Y34598081D01*
X28731113Y34598077D01*
X28731019Y34598072D01*
X28728506Y34598001D01*
X28728157Y34598000D01*
X28252930Y34598000D01*
X28252756Y34598005D01*
X28250310Y34598065D01*
X28245431Y34598304D01*
X28245431Y34598311D01*
X28242616Y34598529D01*
X28242615Y34598521D01*
X28242513Y34598531D01*
X28242386Y34598547D01*
X28242251Y34598557D01*
X28241938Y34598592D01*
X28241939Y34598601D01*
X28240103Y34598826D01*
X28235271Y34599538D01*
X28234798Y34599610D01*
X28234728Y34599621D01*
X28232561Y34600019D01*
X28232560Y34600014D01*
X28232458Y34600034D01*
X28232355Y34600057D01*
X28232197Y34600086D01*
X28231888Y34600151D01*
X28231890Y34600161D01*
X28229981Y34600586D01*
X28225241Y34601768D01*
X28225245Y34601786D01*
X28222579Y34602523D01*
X28222575Y34602510D01*
X28222439Y34602551D01*
X28222241Y34602616D01*
X28222111Y34602652D01*
X28221847Y34602736D01*
X28221850Y34602745D01*
X28220092Y34603322D01*
X28215491Y34604961D01*
X28215494Y34604969D01*
X28212811Y34606009D01*
X28212808Y34606002D01*
X28212649Y34606068D01*
X28212588Y34606095D01*
X28212557Y34606107D01*
X28212330Y34606204D01*
X28212332Y34606208D01*
X28210528Y34607007D01*
X28206108Y34609087D01*
X28205901Y34609185D01*
X28205838Y34609215D01*
X28203730Y34610295D01*
X28203726Y34610287D01*
X28203573Y34610368D01*
X28203423Y34610452D01*
X28203278Y34610526D01*
X28203063Y34610644D01*
X28203067Y34610652D01*
X28201367Y34611608D01*
X28197171Y34614109D01*
X28197046Y34614183D01*
X28196986Y34614219D01*
X28194701Y34615683D01*
X28194699Y34615680D01*
X28194560Y34615773D01*
X28194554Y34615777D01*
X28194520Y34615799D01*
X28194312Y34615941D01*
X28194315Y34615945D01*
X28192699Y34617080D01*
X28188767Y34619978D01*
X28188432Y34620227D01*
X28188376Y34620269D01*
X28186564Y34621705D01*
X28186561Y34621701D01*
X28186447Y34621794D01*
X28186381Y34621851D01*
X28186277Y34621933D01*
X28186068Y34622108D01*
X28186073Y34622114D01*
X28184593Y34623382D01*
X28180963Y34626651D01*
X28180971Y34626660D01*
X28178999Y34628536D01*
X28178990Y34628527D01*
X28178869Y34628647D01*
X28178722Y34628801D01*
X28178614Y34628903D01*
X28178441Y34629080D01*
X28178447Y34629086D01*
X28177156Y34630432D01*
X28173862Y34634039D01*
X28173689Y34634229D01*
X28173642Y34634281D01*
X28172019Y34636186D01*
X28172013Y34636181D01*
X28171900Y34636318D01*
X28171834Y34636402D01*
X28171753Y34636497D01*
X28171602Y34636685D01*
X28171608Y34636690D01*
X28170443Y34638172D01*
X28167515Y34642084D01*
X28167201Y34642508D01*
X28167160Y34642564D01*
X28165939Y34644327D01*
X28165932Y34644323D01*
X28165808Y34644507D01*
X28165734Y34644623D01*
X28165668Y34644718D01*
X28165560Y34644883D01*
X28165565Y34644886D01*
X28164501Y34646551D01*
X28161971Y34650729D01*
X28161866Y34650903D01*
X28161830Y34650963D01*
X28160540Y34653259D01*
X28160537Y34653257D01*
X28160457Y34653406D01*
X28160450Y34653420D01*
X28160433Y34653450D01*
X28160317Y34653671D01*
X28160321Y34653673D01*
X28159769Y34654757D01*
X28159761Y34654753D01*
X28159756Y34654763D01*
X28159491Y34655304D01*
X28159471Y34655343D01*
X28159444Y34655399D01*
X28159385Y34655520D01*
X28157310Y34659851D01*
X28157322Y34659857D01*
X28157192Y34660148D01*
X28156441Y34661767D01*
X28156438Y34661774D01*
X28156462Y34661784D01*
X28156153Y34662477D01*
X28156143Y34662473D01*
X28156084Y34662614D01*
X28156029Y34662754D01*
X28155982Y34662860D01*
X28155883Y34663106D01*
X28155891Y34663109D01*
X28155226Y34664810D01*
X28153555Y34669400D01*
X28153548Y34669417D01*
X28153524Y34669483D01*
X28152703Y34671980D01*
X28152694Y34671977D01*
X28152640Y34672151D01*
X28152602Y34672286D01*
X28152559Y34672416D01*
X28152492Y34672643D01*
X28152500Y34672645D01*
X28151965Y34674534D01*
X28150750Y34679265D01*
X28150671Y34679575D01*
X28150654Y34679643D01*
X28150161Y34681892D01*
X28150150Y34681890D01*
X28150110Y34682084D01*
X28150071Y34682300D01*
X28150030Y34682487D01*
X28149989Y34682704D01*
X28149998Y34682706D01*
X28149668Y34684534D01*
X28148921Y34689361D01*
X28148926Y34689362D01*
X28148565Y34692238D01*
X28148559Y34692237D01*
X28148543Y34692393D01*
X28148539Y34692446D01*
X28148532Y34692499D01*
X28148508Y34692760D01*
X28148513Y34692760D01*
X28148376Y34694423D01*
X28148372Y34694488D01*
X28148363Y34694771D01*
X28148356Y34694771D01*
X28148090Y34699520D01*
X28148086Y34699590D01*
X28148079Y34699887D01*
X28148077Y34699887D01*
X28148072Y34699981D01*
X28148001Y34702494D01*
X28148000Y34702843D01*
X28148000Y35003070D01*
X28148008Y35003304D01*
G37*
%TD*%
%TO.C,Q2*%
G36*
G01*
X13853000Y37378100D02*
X13853000Y37577900D01*
G75*
G02*
X13903100Y37628000I50100J0D01*
G01*
X14252900Y37628000D01*
G75*
G02*
X14303000Y37577900I0J-50100D01*
G01*
X14303000Y37378100D01*
G75*
G02*
X14252900Y37328000I-50100J0D01*
G01*
X13903100Y37328000D01*
G75*
G02*
X13853000Y37378100I0J50100D01*
G01*
G37*
G36*
G01*
X13853000Y36728100D02*
X13853000Y36927900D01*
G75*
G02*
X13903100Y36978000I50100J0D01*
G01*
X14252900Y36978000D01*
G75*
G02*
X14303000Y36927900I0J-50100D01*
G01*
X14303000Y36728100D01*
G75*
G02*
X14252900Y36678000I-50100J0D01*
G01*
X13903100Y36678000D01*
G75*
G02*
X13853000Y36728100I0J50100D01*
G01*
G37*
G36*
G01*
X13853000Y36078100D02*
X13853000Y36277900D01*
G75*
G02*
X13903100Y36328000I50100J0D01*
G01*
X14252900Y36328000D01*
G75*
G02*
X14303000Y36277900I0J-50100D01*
G01*
X14303000Y36078100D01*
G75*
G02*
X14252900Y36028000I-50100J0D01*
G01*
X13903100Y36028000D01*
G75*
G02*
X13853000Y36078100I0J50100D01*
G01*
G37*
G36*
G01*
X15803000Y36078100D02*
X15803000Y36277900D01*
G75*
G02*
X15853100Y36328000I50100J0D01*
G01*
X16202900Y36328000D01*
G75*
G02*
X16253000Y36277900I0J-50100D01*
G01*
X16253000Y36078100D01*
G75*
G02*
X16202900Y36028000I-50100J0D01*
G01*
X15853100Y36028000D01*
G75*
G02*
X15803000Y36078100I0J50100D01*
G01*
G37*
G36*
G01*
X15803000Y36728100D02*
X15803000Y36927900D01*
G75*
G02*
X15853100Y36978000I50100J0D01*
G01*
X16202900Y36978000D01*
G75*
G02*
X16253000Y36927900I0J-50100D01*
G01*
X16253000Y36728100D01*
G75*
G02*
X16202900Y36678000I-50100J0D01*
G01*
X15853100Y36678000D01*
G75*
G02*
X15803000Y36728100I0J50100D01*
G01*
G37*
G36*
G01*
X15803000Y37378100D02*
X15803000Y37577900D01*
G75*
G02*
X15853100Y37628000I50100J0D01*
G01*
X16202900Y37628000D01*
G75*
G02*
X16253000Y37577900I0J-50100D01*
G01*
X16253000Y37378100D01*
G75*
G02*
X16202900Y37328000I-50100J0D01*
G01*
X15853100Y37328000D01*
G75*
G02*
X15803000Y37378100I0J50100D01*
G01*
G37*
G36*
G01*
X14773000Y36078100D02*
X14773000Y36277900D01*
G75*
G02*
X14823100Y36328000I50100J0D01*
G01*
X15472900Y36328000D01*
G75*
G02*
X15523000Y36277900I0J-50100D01*
G01*
X15523000Y36078100D01*
G75*
G02*
X15472900Y36028000I-50100J0D01*
G01*
X14823100Y36028000D01*
G75*
G02*
X14773000Y36078100I0J50100D01*
G01*
G37*
G36*
G01*
X14553000Y36728350D02*
X14553000Y37577650D01*
G75*
G02*
X14603350Y37628000I50350J0D01*
G01*
X15502650Y37628000D01*
G75*
G02*
X15553000Y37577650I0J-50350D01*
G01*
X15553000Y36728350D01*
G75*
G02*
X15502650Y36678000I-50350J0D01*
G01*
X14603350Y36678000D01*
G75*
G02*
X14553000Y36728350I0J50350D01*
G01*
G37*
%TD*%
%TO.C,R11*%
G36*
G01*
X37078001Y38228000D02*
X35827999Y38228000D01*
G75*
G02*
X35578000Y38477999I0J249999D01*
G01*
X35578000Y39278001D01*
G75*
G02*
X35827999Y39528000I249999J0D01*
G01*
X37078001Y39528000D01*
G75*
G02*
X37328000Y39278001I0J-249999D01*
G01*
X37328000Y38477999D01*
G75*
G02*
X37078001Y38228000I-249999J0D01*
G01*
G37*
G36*
G01*
X37078001Y35128000D02*
X35827999Y35128000D01*
G75*
G02*
X35578000Y35377999I0J249999D01*
G01*
X35578000Y36178001D01*
G75*
G02*
X35827999Y36428000I249999J0D01*
G01*
X37078001Y36428000D01*
G75*
G02*
X37328000Y36178001I0J-249999D01*
G01*
X37328000Y35377999D01*
G75*
G02*
X37078001Y35128000I-249999J0D01*
G01*
G37*
%TD*%
%TO.C,R10*%
G36*
G01*
X29178001Y48028000D02*
X27927999Y48028000D01*
G75*
G02*
X27678000Y48277999I0J249999D01*
G01*
X27678000Y49078001D01*
G75*
G02*
X27927999Y49328000I249999J0D01*
G01*
X29178001Y49328000D01*
G75*
G02*
X29428000Y49078001I0J-249999D01*
G01*
X29428000Y48277999D01*
G75*
G02*
X29178001Y48028000I-249999J0D01*
G01*
G37*
G36*
G01*
X29178001Y44928000D02*
X27927999Y44928000D01*
G75*
G02*
X27678000Y45177999I0J249999D01*
G01*
X27678000Y45978001D01*
G75*
G02*
X27927999Y46228000I249999J0D01*
G01*
X29178001Y46228000D01*
G75*
G02*
X29428000Y45978001I0J-249999D01*
G01*
X29428000Y45177999D01*
G75*
G02*
X29178001Y44928000I-249999J0D01*
G01*
G37*
%TD*%
%TO.C,R9*%
G36*
G01*
X32478001Y42828000D02*
X31227999Y42828000D01*
G75*
G02*
X30978000Y43077999I0J249999D01*
G01*
X30978000Y43878001D01*
G75*
G02*
X31227999Y44128000I249999J0D01*
G01*
X32478001Y44128000D01*
G75*
G02*
X32728000Y43878001I0J-249999D01*
G01*
X32728000Y43077999D01*
G75*
G02*
X32478001Y42828000I-249999J0D01*
G01*
G37*
G36*
G01*
X32478001Y39728000D02*
X31227999Y39728000D01*
G75*
G02*
X30978000Y39977999I0J249999D01*
G01*
X30978000Y40778001D01*
G75*
G02*
X31227999Y41028000I249999J0D01*
G01*
X32478001Y41028000D01*
G75*
G02*
X32728000Y40778001I0J-249999D01*
G01*
X32728000Y39977999D01*
G75*
G02*
X32478001Y39728000I-249999J0D01*
G01*
G37*
%TD*%
%TO.C,R8*%
G36*
G01*
X35827999Y22928000D02*
X37078001Y22928000D01*
G75*
G02*
X37328000Y22678001I0J-249999D01*
G01*
X37328000Y21877999D01*
G75*
G02*
X37078001Y21628000I-249999J0D01*
G01*
X35827999Y21628000D01*
G75*
G02*
X35578000Y21877999I0J249999D01*
G01*
X35578000Y22678001D01*
G75*
G02*
X35827999Y22928000I249999J0D01*
G01*
G37*
G36*
G01*
X35827999Y26028000D02*
X37078001Y26028000D01*
G75*
G02*
X37328000Y25778001I0J-249999D01*
G01*
X37328000Y24977999D01*
G75*
G02*
X37078001Y24728000I-249999J0D01*
G01*
X35827999Y24728000D01*
G75*
G02*
X35578000Y24977999I0J249999D01*
G01*
X35578000Y25778001D01*
G75*
G02*
X35827999Y26028000I249999J0D01*
G01*
G37*
%TD*%
%TO.C,R7*%
G36*
G01*
X24553000Y27602999D02*
X24553000Y28853001D01*
G75*
G02*
X24802999Y29103000I249999J0D01*
G01*
X25603001Y29103000D01*
G75*
G02*
X25853000Y28853001I0J-249999D01*
G01*
X25853000Y27602999D01*
G75*
G02*
X25603001Y27353000I-249999J0D01*
G01*
X24802999Y27353000D01*
G75*
G02*
X24553000Y27602999I0J249999D01*
G01*
G37*
G36*
G01*
X21453000Y27602999D02*
X21453000Y28853001D01*
G75*
G02*
X21702999Y29103000I249999J0D01*
G01*
X22503001Y29103000D01*
G75*
G02*
X22753000Y28853001I0J-249999D01*
G01*
X22753000Y27602999D01*
G75*
G02*
X22503001Y27353000I-249999J0D01*
G01*
X21702999Y27353000D01*
G75*
G02*
X21453000Y27602999I0J249999D01*
G01*
G37*
%TD*%
%TO.C,R6*%
G36*
G01*
X32142000Y17408999D02*
X32142000Y18659001D01*
G75*
G02*
X32391999Y18909000I249999J0D01*
G01*
X33192001Y18909000D01*
G75*
G02*
X33442000Y18659001I0J-249999D01*
G01*
X33442000Y17408999D01*
G75*
G02*
X33192001Y17159000I-249999J0D01*
G01*
X32391999Y17159000D01*
G75*
G02*
X32142000Y17408999I0J249999D01*
G01*
G37*
G36*
G01*
X29042000Y17408999D02*
X29042000Y18659001D01*
G75*
G02*
X29291999Y18909000I249999J0D01*
G01*
X30092001Y18909000D01*
G75*
G02*
X30342000Y18659001I0J-249999D01*
G01*
X30342000Y17408999D01*
G75*
G02*
X30092001Y17159000I-249999J0D01*
G01*
X29291999Y17159000D01*
G75*
G02*
X29042000Y17408999I0J249999D01*
G01*
G37*
%TD*%
%TO.C,R5*%
G36*
G01*
X24501001Y20458000D02*
X23250999Y20458000D01*
G75*
G02*
X23001000Y20707999I0J249999D01*
G01*
X23001000Y21508001D01*
G75*
G02*
X23250999Y21758000I249999J0D01*
G01*
X24501001Y21758000D01*
G75*
G02*
X24751000Y21508001I0J-249999D01*
G01*
X24751000Y20707999D01*
G75*
G02*
X24501001Y20458000I-249999J0D01*
G01*
G37*
G36*
G01*
X24501001Y17358000D02*
X23250999Y17358000D01*
G75*
G02*
X23001000Y17607999I0J249999D01*
G01*
X23001000Y18408001D01*
G75*
G02*
X23250999Y18658000I249999J0D01*
G01*
X24501001Y18658000D01*
G75*
G02*
X24751000Y18408001I0J-249999D01*
G01*
X24751000Y17607999D01*
G75*
G02*
X24501001Y17358000I-249999J0D01*
G01*
G37*
%TD*%
%TO.C,R4*%
G36*
G01*
X24453000Y23702999D02*
X24453000Y24953001D01*
G75*
G02*
X24702999Y25203000I249999J0D01*
G01*
X25503001Y25203000D01*
G75*
G02*
X25753000Y24953001I0J-249999D01*
G01*
X25753000Y23702999D01*
G75*
G02*
X25503001Y23453000I-249999J0D01*
G01*
X24702999Y23453000D01*
G75*
G02*
X24453000Y23702999I0J249999D01*
G01*
G37*
G36*
G01*
X21353000Y23702999D02*
X21353000Y24953001D01*
G75*
G02*
X21602999Y25203000I249999J0D01*
G01*
X22403001Y25203000D01*
G75*
G02*
X22653000Y24953001I0J-249999D01*
G01*
X22653000Y23702999D01*
G75*
G02*
X22403001Y23453000I-249999J0D01*
G01*
X21602999Y23453000D01*
G75*
G02*
X21353000Y23702999I0J249999D01*
G01*
G37*
%TD*%
%TO.C,R3*%
G36*
G01*
X31074999Y22928000D02*
X32325001Y22928000D01*
G75*
G02*
X32575000Y22678001I0J-249999D01*
G01*
X32575000Y21877999D01*
G75*
G02*
X32325001Y21628000I-249999J0D01*
G01*
X31074999Y21628000D01*
G75*
G02*
X30825000Y21877999I0J249999D01*
G01*
X30825000Y22678001D01*
G75*
G02*
X31074999Y22928000I249999J0D01*
G01*
G37*
G36*
G01*
X31074999Y26028000D02*
X32325001Y26028000D01*
G75*
G02*
X32575000Y25778001I0J-249999D01*
G01*
X32575000Y24977999D01*
G75*
G02*
X32325001Y24728000I-249999J0D01*
G01*
X31074999Y24728000D01*
G75*
G02*
X30825000Y24977999I0J249999D01*
G01*
X30825000Y25778001D01*
G75*
G02*
X31074999Y26028000I249999J0D01*
G01*
G37*
%TD*%
%TO.C,R2*%
G36*
G01*
X29778001Y24728000D02*
X28527999Y24728000D01*
G75*
G02*
X28278000Y24977999I0J249999D01*
G01*
X28278000Y25778001D01*
G75*
G02*
X28527999Y26028000I249999J0D01*
G01*
X29778001Y26028000D01*
G75*
G02*
X30028000Y25778001I0J-249999D01*
G01*
X30028000Y24977999D01*
G75*
G02*
X29778001Y24728000I-249999J0D01*
G01*
G37*
G36*
G01*
X29778001Y21628000D02*
X28527999Y21628000D01*
G75*
G02*
X28278000Y21877999I0J249999D01*
G01*
X28278000Y22678001D01*
G75*
G02*
X28527999Y22928000I249999J0D01*
G01*
X29778001Y22928000D01*
G75*
G02*
X30028000Y22678001I0J-249999D01*
G01*
X30028000Y21877999D01*
G75*
G02*
X29778001Y21628000I-249999J0D01*
G01*
G37*
%TD*%
%TO.C,Q3*%
G36*
G01*
X17352650Y33328000D02*
X16503350Y33328000D01*
G75*
G02*
X16453000Y33378350I0J50350D01*
G01*
X16453000Y34277650D01*
G75*
G02*
X16503350Y34328000I50350J0D01*
G01*
X17352650Y34328000D01*
G75*
G02*
X17403000Y34277650I0J-50350D01*
G01*
X17403000Y33378350D01*
G75*
G02*
X17352650Y33328000I-50350J0D01*
G01*
G37*
G36*
G01*
X18002900Y33548000D02*
X17803100Y33548000D01*
G75*
G02*
X17753000Y33598100I0J50100D01*
G01*
X17753000Y34247900D01*
G75*
G02*
X17803100Y34298000I50100J0D01*
G01*
X18002900Y34298000D01*
G75*
G02*
X18053000Y34247900I0J-50100D01*
G01*
X18053000Y33598100D01*
G75*
G02*
X18002900Y33548000I-50100J0D01*
G01*
G37*
G36*
G01*
X16702900Y34578000D02*
X16503100Y34578000D01*
G75*
G02*
X16453000Y34628100I0J50100D01*
G01*
X16453000Y34977900D01*
G75*
G02*
X16503100Y35028000I50100J0D01*
G01*
X16702900Y35028000D01*
G75*
G02*
X16753000Y34977900I0J-50100D01*
G01*
X16753000Y34628100D01*
G75*
G02*
X16702900Y34578000I-50100J0D01*
G01*
G37*
G36*
G01*
X17352900Y34578000D02*
X17153100Y34578000D01*
G75*
G02*
X17103000Y34628100I0J50100D01*
G01*
X17103000Y34977900D01*
G75*
G02*
X17153100Y35028000I50100J0D01*
G01*
X17352900Y35028000D01*
G75*
G02*
X17403000Y34977900I0J-50100D01*
G01*
X17403000Y34628100D01*
G75*
G02*
X17352900Y34578000I-50100J0D01*
G01*
G37*
G36*
G01*
X18002900Y34578000D02*
X17803100Y34578000D01*
G75*
G02*
X17753000Y34628100I0J50100D01*
G01*
X17753000Y34977900D01*
G75*
G02*
X17803100Y35028000I50100J0D01*
G01*
X18002900Y35028000D01*
G75*
G02*
X18053000Y34977900I0J-50100D01*
G01*
X18053000Y34628100D01*
G75*
G02*
X18002900Y34578000I-50100J0D01*
G01*
G37*
G36*
G01*
X18002900Y32628000D02*
X17803100Y32628000D01*
G75*
G02*
X17753000Y32678100I0J50100D01*
G01*
X17753000Y33027900D01*
G75*
G02*
X17803100Y33078000I50100J0D01*
G01*
X18002900Y33078000D01*
G75*
G02*
X18053000Y33027900I0J-50100D01*
G01*
X18053000Y32678100D01*
G75*
G02*
X18002900Y32628000I-50100J0D01*
G01*
G37*
G36*
G01*
X17352900Y32628000D02*
X17153100Y32628000D01*
G75*
G02*
X17103000Y32678100I0J50100D01*
G01*
X17103000Y33027900D01*
G75*
G02*
X17153100Y33078000I50100J0D01*
G01*
X17352900Y33078000D01*
G75*
G02*
X17403000Y33027900I0J-50100D01*
G01*
X17403000Y32678100D01*
G75*
G02*
X17352900Y32628000I-50100J0D01*
G01*
G37*
G36*
G01*
X16702900Y32628000D02*
X16503100Y32628000D01*
G75*
G02*
X16453000Y32678100I0J50100D01*
G01*
X16453000Y33027900D01*
G75*
G02*
X16503100Y33078000I50100J0D01*
G01*
X16702900Y33078000D01*
G75*
G02*
X16753000Y33027900I0J-50100D01*
G01*
X16753000Y32678100D01*
G75*
G02*
X16702900Y32628000I-50100J0D01*
G01*
G37*
%TD*%
D15*
%TO.C,L1*%
X18703000Y37428000D03*
X21403000Y37428000D03*
%TD*%
%TO.C,C10*%
G36*
G01*
X37103003Y33128000D02*
X35802997Y33128000D01*
G75*
G02*
X35553000Y33377997I0J249997D01*
G01*
X35553000Y34203003D01*
G75*
G02*
X35802997Y34453000I249997J0D01*
G01*
X37103003Y34453000D01*
G75*
G02*
X37353000Y34203003I0J-249997D01*
G01*
X37353000Y33377997D01*
G75*
G02*
X37103003Y33128000I-249997J0D01*
G01*
G37*
G36*
G01*
X37103003Y30003000D02*
X35802997Y30003000D01*
G75*
G02*
X35553000Y30252997I0J249997D01*
G01*
X35553000Y31078003D01*
G75*
G02*
X35802997Y31328000I249997J0D01*
G01*
X37103003Y31328000D01*
G75*
G02*
X37353000Y31078003I0J-249997D01*
G01*
X37353000Y30252997D01*
G75*
G02*
X37103003Y30003000I-249997J0D01*
G01*
G37*
%TD*%
%TO.C,C9*%
G36*
G01*
X24753000Y38078003D02*
X24753000Y36777997D01*
G75*
G02*
X24503003Y36528000I-249997J0D01*
G01*
X23677997Y36528000D01*
G75*
G02*
X23428000Y36777997I0J249997D01*
G01*
X23428000Y38078003D01*
G75*
G02*
X23677997Y38328000I249997J0D01*
G01*
X24503003Y38328000D01*
G75*
G02*
X24753000Y38078003I0J-249997D01*
G01*
G37*
G36*
G01*
X27878000Y38078003D02*
X27878000Y36777997D01*
G75*
G02*
X27628003Y36528000I-249997J0D01*
G01*
X26802997Y36528000D01*
G75*
G02*
X26553000Y36777997I0J249997D01*
G01*
X26553000Y38078003D01*
G75*
G02*
X26802997Y38328000I249997J0D01*
G01*
X27628003Y38328000D01*
G75*
G02*
X27878000Y38078003I0J-249997D01*
G01*
G37*
%TD*%
%TO.C,C8*%
G36*
G01*
X41603003Y33128000D02*
X40302997Y33128000D01*
G75*
G02*
X40053000Y33377997I0J249997D01*
G01*
X40053000Y34203003D01*
G75*
G02*
X40302997Y34453000I249997J0D01*
G01*
X41603003Y34453000D01*
G75*
G02*
X41853000Y34203003I0J-249997D01*
G01*
X41853000Y33377997D01*
G75*
G02*
X41603003Y33128000I-249997J0D01*
G01*
G37*
G36*
G01*
X41603003Y30003000D02*
X40302997Y30003000D01*
G75*
G02*
X40053000Y30252997I0J249997D01*
G01*
X40053000Y31078003D01*
G75*
G02*
X40302997Y31328000I249997J0D01*
G01*
X41603003Y31328000D01*
G75*
G02*
X41853000Y31078003I0J-249997D01*
G01*
X41853000Y30252997D01*
G75*
G02*
X41603003Y30003000I-249997J0D01*
G01*
G37*
%TD*%
%TO.C,C7*%
G36*
G01*
X29203003Y42928000D02*
X27902997Y42928000D01*
G75*
G02*
X27653000Y43177997I0J249997D01*
G01*
X27653000Y44003003D01*
G75*
G02*
X27902997Y44253000I249997J0D01*
G01*
X29203003Y44253000D01*
G75*
G02*
X29453000Y44003003I0J-249997D01*
G01*
X29453000Y43177997D01*
G75*
G02*
X29203003Y42928000I-249997J0D01*
G01*
G37*
G36*
G01*
X29203003Y39803000D02*
X27902997Y39803000D01*
G75*
G02*
X27653000Y40052997I0J249997D01*
G01*
X27653000Y40878003D01*
G75*
G02*
X27902997Y41128000I249997J0D01*
G01*
X29203003Y41128000D01*
G75*
G02*
X29453000Y40878003I0J-249997D01*
G01*
X29453000Y40052997D01*
G75*
G02*
X29203003Y39803000I-249997J0D01*
G01*
G37*
%TD*%
%TO.C,C4*%
G36*
G01*
X25003003Y34528000D02*
X23702997Y34528000D01*
G75*
G02*
X23453000Y34777997I0J249997D01*
G01*
X23453000Y35603003D01*
G75*
G02*
X23702997Y35853000I249997J0D01*
G01*
X25003003Y35853000D01*
G75*
G02*
X25253000Y35603003I0J-249997D01*
G01*
X25253000Y34777997D01*
G75*
G02*
X25003003Y34528000I-249997J0D01*
G01*
G37*
G36*
G01*
X25003003Y31403000D02*
X23702997Y31403000D01*
G75*
G02*
X23453000Y31652997I0J249997D01*
G01*
X23453000Y32478003D01*
G75*
G02*
X23702997Y32728000I249997J0D01*
G01*
X25003003Y32728000D01*
G75*
G02*
X25253000Y32478003I0J-249997D01*
G01*
X25253000Y31652997D01*
G75*
G02*
X25003003Y31403000I-249997J0D01*
G01*
G37*
%TD*%
%TO.C,C3*%
G36*
G01*
X24202997Y41128000D02*
X25503003Y41128000D01*
G75*
G02*
X25753000Y40878003I0J-249997D01*
G01*
X25753000Y40052997D01*
G75*
G02*
X25503003Y39803000I-249997J0D01*
G01*
X24202997Y39803000D01*
G75*
G02*
X23953000Y40052997I0J249997D01*
G01*
X23953000Y40878003D01*
G75*
G02*
X24202997Y41128000I249997J0D01*
G01*
G37*
G36*
G01*
X24202997Y44253000D02*
X25503003Y44253000D01*
G75*
G02*
X25753000Y44003003I0J-249997D01*
G01*
X25753000Y43177997D01*
G75*
G02*
X25503003Y42928000I-249997J0D01*
G01*
X24202997Y42928000D01*
G75*
G02*
X23953000Y43177997I0J249997D01*
G01*
X23953000Y44003003D01*
G75*
G02*
X24202997Y44253000I249997J0D01*
G01*
G37*
%TD*%
%TO.C,C2*%
G36*
G01*
X16013000Y40497997D02*
X16013000Y41798003D01*
G75*
G02*
X16262997Y42048000I249997J0D01*
G01*
X17088003Y42048000D01*
G75*
G02*
X17338000Y41798003I0J-249997D01*
G01*
X17338000Y40497997D01*
G75*
G02*
X17088003Y40248000I-249997J0D01*
G01*
X16262997Y40248000D01*
G75*
G02*
X16013000Y40497997I0J249997D01*
G01*
G37*
G36*
G01*
X12888000Y40497997D02*
X12888000Y41798003D01*
G75*
G02*
X13137997Y42048000I249997J0D01*
G01*
X13963003Y42048000D01*
G75*
G02*
X14213000Y41798003I0J-249997D01*
G01*
X14213000Y40497997D01*
G75*
G02*
X13963003Y40248000I-249997J0D01*
G01*
X13137997Y40248000D01*
G75*
G02*
X12888000Y40497997I0J249997D01*
G01*
G37*
%TD*%
%TO.C,C1*%
G36*
G01*
X14108000Y28940997D02*
X14108000Y30241003D01*
G75*
G02*
X14357997Y30491000I249997J0D01*
G01*
X15183003Y30491000D01*
G75*
G02*
X15433000Y30241003I0J-249997D01*
G01*
X15433000Y28940997D01*
G75*
G02*
X15183003Y28691000I-249997J0D01*
G01*
X14357997Y28691000D01*
G75*
G02*
X14108000Y28940997I0J249997D01*
G01*
G37*
G36*
G01*
X10983000Y28940997D02*
X10983000Y30241003D01*
G75*
G02*
X11232997Y30491000I249997J0D01*
G01*
X12058003Y30491000D01*
G75*
G02*
X12308000Y30241003I0J-249997D01*
G01*
X12308000Y28940997D01*
G75*
G02*
X12058003Y28691000I-249997J0D01*
G01*
X11232997Y28691000D01*
G75*
G02*
X10983000Y28940997I0J249997D01*
G01*
G37*
%TD*%
D11*
%TO.C,J4*%
X90043000Y2002000D03*
X87503000Y2002000D03*
X84963000Y2002000D03*
X82423000Y2002000D03*
X79883000Y2002000D03*
X77343000Y2002000D03*
X74803000Y2002000D03*
X72263000Y2002000D03*
X69723000Y2002000D03*
X67183000Y2002000D03*
X64643000Y2002000D03*
X62103000Y2002000D03*
X59563000Y2002000D03*
D10*
X57023000Y2002000D03*
%TD*%
D16*
%TO.C,H7*%
X89000000Y9715500D03*
%TD*%
%TO.C,H6*%
X5000000Y55000000D03*
%TD*%
D17*
%TO.C,J1*%
X14224000Y5842000D03*
G36*
G01*
X24424000Y7342000D02*
X24424000Y4342000D01*
G75*
G02*
X22924000Y2842000I-1500000J0D01*
G01*
X19924000Y2842000D01*
G75*
G02*
X18424000Y4342000I0J1500000D01*
G01*
X18424000Y7342000D01*
G75*
G02*
X19924000Y8842000I1500000J0D01*
G01*
X22924000Y8842000D01*
G75*
G02*
X24424000Y7342000I0J-1500000D01*
G01*
G37*
%TD*%
%TO.C,C5*%
G36*
G01*
X75913000Y16557500D02*
X74963000Y16557500D01*
G75*
G02*
X74713000Y16807500I0J250000D01*
G01*
X74713000Y17482500D01*
G75*
G02*
X74963000Y17732500I250000J0D01*
G01*
X75913000Y17732500D01*
G75*
G02*
X76163000Y17482500I0J-250000D01*
G01*
X76163000Y16807500D01*
G75*
G02*
X75913000Y16557500I-250000J0D01*
G01*
G37*
G36*
G01*
X75913000Y18632500D02*
X74963000Y18632500D01*
G75*
G02*
X74713000Y18882500I0J250000D01*
G01*
X74713000Y19557500D01*
G75*
G02*
X74963000Y19807500I250000J0D01*
G01*
X75913000Y19807500D01*
G75*
G02*
X76163000Y19557500I0J-250000D01*
G01*
X76163000Y18882500D01*
G75*
G02*
X75913000Y18632500I-250000J0D01*
G01*
G37*
%TD*%
%TO.C,C6*%
G36*
G01*
X79342000Y18611000D02*
X78392000Y18611000D01*
G75*
G02*
X78142000Y18861000I0J250000D01*
G01*
X78142000Y19536000D01*
G75*
G02*
X78392000Y19786000I250000J0D01*
G01*
X79342000Y19786000D01*
G75*
G02*
X79592000Y19536000I0J-250000D01*
G01*
X79592000Y18861000D01*
G75*
G02*
X79342000Y18611000I-250000J0D01*
G01*
G37*
G36*
G01*
X79342000Y16536000D02*
X78392000Y16536000D01*
G75*
G02*
X78142000Y16786000I0J250000D01*
G01*
X78142000Y17461000D01*
G75*
G02*
X78392000Y17711000I250000J0D01*
G01*
X79342000Y17711000D01*
G75*
G02*
X79592000Y17461000I0J-250000D01*
G01*
X79592000Y16786000D01*
G75*
G02*
X79342000Y16536000I-250000J0D01*
G01*
G37*
%TD*%
D11*
%TO.C,J6*%
X34417000Y2032000D03*
X36957000Y2032000D03*
X39497000Y2032000D03*
X42037000Y2032000D03*
X44577000Y2032000D03*
X47117000Y2032000D03*
D10*
X49657000Y2032000D03*
%TD*%
%TO.C,J7*%
X24267000Y57628000D03*
D11*
X21727000Y57628000D03*
X19187000Y57628000D03*
X16647000Y57628000D03*
X14107000Y57628000D03*
X11567000Y57628000D03*
%TD*%
D16*
%TO.C,H1*%
X89000000Y47000000D03*
%TD*%
%TO.C,H2*%
X73760000Y25410000D03*
%TD*%
%TO.C,H3*%
X89000000Y25410000D03*
%TD*%
%TO.C,H4*%
X73760000Y47000000D03*
%TD*%
%TO.C,H5*%
X5000000Y10000000D03*
%TD*%
D10*
%TO.C,J9*%
X41793000Y55118000D03*
D11*
X41793000Y57658000D03*
X44333000Y55118000D03*
X44333000Y57658000D03*
X46873000Y55118000D03*
X46873000Y57658000D03*
X49413000Y55118000D03*
X49413000Y57658000D03*
X51953000Y55118000D03*
X51953000Y57658000D03*
X54493000Y55118000D03*
X54493000Y57658000D03*
X57033000Y55118000D03*
X57033000Y57658000D03*
X59573000Y55118000D03*
X59573000Y57658000D03*
X62113000Y55118000D03*
X62113000Y57658000D03*
X64653000Y55118000D03*
X64653000Y57658000D03*
X67193000Y55118000D03*
X67193000Y57658000D03*
X69733000Y55118000D03*
X69733000Y57658000D03*
X72273000Y55118000D03*
X72273000Y57658000D03*
X74813000Y55118000D03*
X74813000Y57658000D03*
X77353000Y55118000D03*
X77353000Y57658000D03*
X79893000Y55118000D03*
X79893000Y57658000D03*
X82433000Y55118000D03*
X82433000Y57658000D03*
X84973000Y55118000D03*
X84973000Y57658000D03*
X87513000Y55118000D03*
X87513000Y57658000D03*
X90053000Y55118000D03*
X90053000Y57658000D03*
%TD*%
D18*
X38354000Y27940000D03*
D19*
X38608000Y42036996D03*
D18*
X42926000Y12954000D03*
X72644000Y19558000D03*
X34798000Y18923000D03*
X34163000Y47117000D03*
X43942000Y23622000D03*
X53530499Y36258501D03*
X46862995Y24129995D03*
X53403500Y38227000D03*
X79946500Y45720002D03*
X78511400Y48742600D03*
M02*
