%TF.GenerationSoftware,KiCad,Pcbnew,(5.1.9)-1*%
%TF.CreationDate,2021-02-26T10:07:17-07:00*%
%TF.ProjectId,CapstoneBoard,43617073-746f-46e6-9542-6f6172642e6b,3*%
%TF.SameCoordinates,PX4c4b400PY6bc3e40*%
%TF.FileFunction,Legend,Top*%
%TF.FilePolarity,Positive*%
%FSLAX46Y46*%
G04 Gerber Fmt 4.6, Leading zero omitted, Abs format (unit mm)*
G04 Created by KiCad (PCBNEW (5.1.9)-1) date 2021-02-26 10:07:17*
%MOMM*%
%LPD*%
G01*
G04 APERTURE LIST*
%ADD10C,0.120000*%
%ADD11C,0.150000*%
G04 APERTURE END LIST*
D10*
%TO.C,J3*%
X73820000Y33665000D02*
X71160000Y33665000D01*
X73820000Y33665000D02*
X73820000Y41345000D01*
X73820000Y41345000D02*
X71160000Y41345000D01*
X71160000Y33665000D02*
X71160000Y41345000D01*
X71160000Y31065000D02*
X71160000Y32395000D01*
X72490000Y31065000D02*
X71160000Y31065000D01*
%TO.C,J2*%
X91600000Y31125000D02*
X88940000Y31125000D01*
X91600000Y31125000D02*
X91600000Y43885000D01*
X91600000Y43885000D02*
X88940000Y43885000D01*
X88940000Y31125000D02*
X88940000Y43885000D01*
X88940000Y28525000D02*
X88940000Y29855000D01*
X90270000Y28525000D02*
X88940000Y28525000D01*
%TO.C,J11*%
X76013000Y52765000D02*
X76013000Y50105000D01*
X88773000Y52765000D02*
X76013000Y52765000D01*
X88773000Y50105000D02*
X76013000Y50105000D01*
X88773000Y52765000D02*
X88773000Y50105000D01*
X90043000Y52765000D02*
X91373000Y52765000D01*
X91373000Y52765000D02*
X91373000Y51435000D01*
%TO.C,J12*%
X65345000Y34928500D02*
X68005000Y34928500D01*
X65345000Y37528500D02*
X65345000Y34928500D01*
X68005000Y37528500D02*
X68005000Y34928500D01*
X65345000Y37528500D02*
X68005000Y37528500D01*
X65345000Y38798500D02*
X65345000Y40128500D01*
X65345000Y40128500D02*
X66675000Y40128500D01*
%TO.C,U3*%
X79771600Y29133800D02*
X79771600Y25533800D01*
X79771600Y29133800D02*
X79771600Y31333800D01*
X82991600Y29133800D02*
X82991600Y26933800D01*
X82991600Y29133800D02*
X82991600Y31333800D01*
%TO.C,R13*%
X83477064Y38410000D02*
X82022936Y38410000D01*
X83477064Y36590000D02*
X82022936Y36590000D01*
%TO.C,R12*%
X83124064Y35708000D02*
X81669936Y35708000D01*
X83124064Y33888000D02*
X81669936Y33888000D01*
%TO.C,R1*%
X86812800Y29879936D02*
X86812800Y31334064D01*
X84992800Y29879936D02*
X84992800Y31334064D01*
%TO.C,JP1*%
X79250000Y32769000D02*
X79250000Y29969000D01*
X79250000Y29969000D02*
X77250000Y29969000D01*
X77250000Y29969000D02*
X77250000Y32769000D01*
X77250000Y32769000D02*
X79250000Y32769000D01*
%TO.C,C11*%
X82911252Y23110000D02*
X81488748Y23110000D01*
X82911252Y21290000D02*
X81488748Y21290000D01*
%TO.C,J5*%
X67687500Y15116500D02*
X67687500Y17776500D01*
X49847500Y15116500D02*
X67687500Y15116500D01*
X49847500Y17776500D02*
X67687500Y17776500D01*
X49847500Y15116500D02*
X49847500Y17776500D01*
X48577500Y15116500D02*
X47247500Y15116500D01*
X47247500Y15116500D02*
X47247500Y16446500D01*
%TO.C,U2*%
X78960500Y9799700D02*
X78960500Y13508300D01*
X70010500Y8129000D02*
X70010500Y13512600D01*
%TO.C,J8*%
X67687500Y42739000D02*
X67687500Y45399000D01*
X49847500Y42739000D02*
X67687500Y42739000D01*
X49847500Y45399000D02*
X67687500Y45399000D01*
X49847500Y42739000D02*
X49847500Y45399000D01*
X48577500Y42739000D02*
X47247500Y42739000D01*
X47247500Y42739000D02*
X47247500Y44069000D01*
%TO.C,U1*%
X32248500Y35641000D02*
X31867500Y35641000D01*
X32248500Y35260000D02*
X32248500Y35641000D01*
X31867500Y30815000D02*
X32248500Y30815000D01*
X32248500Y30815000D02*
X32248500Y31196000D01*
X28057500Y31196000D02*
X28057500Y30815000D01*
X28057500Y30815000D02*
X28438500Y30815000D01*
X28438500Y35641000D02*
X28057500Y35641000D01*
X28057500Y35641000D02*
X28057500Y35260000D01*
X27889612Y30561000D02*
G75*
G03*
X27889612Y30561000I-88900J0D01*
G01*
X27813714Y30561000D02*
G75*
G03*
X27813714Y30561000I-13002J0D01*
G01*
%TO.C,Q2*%
X16163000Y35898000D02*
X16163000Y35718000D01*
X16163000Y37938000D02*
X16163000Y37758000D01*
X13943000Y35898000D02*
X13943000Y35718000D01*
X13943000Y35718000D02*
X16163000Y35718000D01*
X13903000Y37938000D02*
X16163000Y37938000D01*
%TO.C,R11*%
X37363000Y36600936D02*
X37363000Y38055064D01*
X35543000Y36600936D02*
X35543000Y38055064D01*
%TO.C,R10*%
X29463000Y46400936D02*
X29463000Y47855064D01*
X27643000Y46400936D02*
X27643000Y47855064D01*
%TO.C,R9*%
X32763000Y41200936D02*
X32763000Y42655064D01*
X30943000Y41200936D02*
X30943000Y42655064D01*
%TO.C,R8*%
X35543000Y24555064D02*
X35543000Y23100936D01*
X37363000Y24555064D02*
X37363000Y23100936D01*
%TO.C,R7*%
X22925936Y27318000D02*
X24380064Y27318000D01*
X22925936Y29138000D02*
X24380064Y29138000D01*
%TO.C,R6*%
X30514936Y17124000D02*
X31969064Y17124000D01*
X30514936Y18944000D02*
X31969064Y18944000D01*
%TO.C,R5*%
X24786000Y18830936D02*
X24786000Y20285064D01*
X22966000Y18830936D02*
X22966000Y20285064D01*
%TO.C,R4*%
X22825936Y23418000D02*
X24280064Y23418000D01*
X22825936Y25238000D02*
X24280064Y25238000D01*
%TO.C,R3*%
X30790000Y24555064D02*
X30790000Y23100936D01*
X32610000Y24555064D02*
X32610000Y23100936D01*
%TO.C,R2*%
X30063000Y23100936D02*
X30063000Y24555064D01*
X28243000Y23100936D02*
X28243000Y24555064D01*
%TO.C,Q3*%
X16143000Y32678000D02*
X16143000Y34938000D01*
X18363000Y32718000D02*
X18363000Y34938000D01*
X18183000Y32718000D02*
X18363000Y32718000D01*
X16143000Y34938000D02*
X16323000Y34938000D01*
X18183000Y34938000D02*
X18363000Y34938000D01*
%TO.C,L1*%
X18429000Y38328000D02*
X18429000Y39052000D01*
X18429000Y39052000D02*
X21677000Y39052000D01*
X21677000Y39052000D02*
X21677000Y38328000D01*
X18429000Y36528000D02*
X18429000Y35804000D01*
X18429000Y35804000D02*
X21677000Y35804000D01*
X21677000Y35804000D02*
X21677000Y36528000D01*
%TO.C,C10*%
X37363000Y31516748D02*
X37363000Y32939252D01*
X35543000Y31516748D02*
X35543000Y32939252D01*
%TO.C,C9*%
X26364252Y38338000D02*
X24941748Y38338000D01*
X26364252Y36518000D02*
X24941748Y36518000D01*
%TO.C,C8*%
X41863000Y31516748D02*
X41863000Y32939252D01*
X40043000Y31516748D02*
X40043000Y32939252D01*
%TO.C,C7*%
X29463000Y41316748D02*
X29463000Y42739252D01*
X27643000Y41316748D02*
X27643000Y42739252D01*
%TO.C,C4*%
X25263000Y32916748D02*
X25263000Y34339252D01*
X23443000Y32916748D02*
X23443000Y34339252D01*
%TO.C,C3*%
X23943000Y42739252D02*
X23943000Y41316748D01*
X25763000Y42739252D02*
X25763000Y41316748D01*
%TO.C,C2*%
X14401748Y40238000D02*
X15824252Y40238000D01*
X14401748Y42058000D02*
X15824252Y42058000D01*
%TO.C,C1*%
X12496748Y28681000D02*
X13919252Y28681000D01*
X12496748Y30501000D02*
X13919252Y30501000D01*
%TO.C,J4*%
X55693000Y672000D02*
X55693000Y2002000D01*
X57023000Y672000D02*
X55693000Y672000D01*
X58293000Y672000D02*
X58293000Y3332000D01*
X58293000Y3332000D02*
X91373000Y3332000D01*
X58293000Y672000D02*
X91373000Y672000D01*
X91373000Y672000D02*
X91373000Y3332000D01*
%TO.C,J1*%
X25674000Y7392000D02*
X22824000Y9992000D01*
X22824000Y1692000D02*
X25674000Y4242000D01*
X9974000Y9992000D02*
X9974000Y1692000D01*
X22824000Y9992000D02*
X9974000Y9992000D01*
X25674000Y4242000D02*
X25674000Y7392000D01*
X9974000Y1692000D02*
X22824000Y1692000D01*
%TO.C,C5*%
X74703000Y17921248D02*
X74703000Y18443752D01*
X76173000Y17921248D02*
X76173000Y18443752D01*
%TO.C,C6*%
X79602000Y17899748D02*
X79602000Y18422252D01*
X78132000Y17899748D02*
X78132000Y18422252D01*
%TO.C,J6*%
X50987000Y3362000D02*
X50987000Y2032000D01*
X49657000Y3362000D02*
X50987000Y3362000D01*
X48387000Y3362000D02*
X48387000Y702000D01*
X48387000Y702000D02*
X33087000Y702000D01*
X48387000Y3362000D02*
X33087000Y3362000D01*
X33087000Y3362000D02*
X33087000Y702000D01*
%TO.C,J7*%
X10237000Y58958000D02*
X10237000Y56298000D01*
X22997000Y58958000D02*
X10237000Y58958000D01*
X22997000Y56298000D02*
X10237000Y56298000D01*
X22997000Y58958000D02*
X22997000Y56298000D01*
X24267000Y58958000D02*
X25597000Y58958000D01*
X25597000Y58958000D02*
X25597000Y57628000D01*
%TO.C,J9*%
X91383000Y53788000D02*
X91383000Y58988000D01*
X43063000Y53788000D02*
X91383000Y53788000D01*
X40463000Y58988000D02*
X91383000Y58988000D01*
X43063000Y53788000D02*
X43063000Y56388000D01*
X43063000Y56388000D02*
X40463000Y56388000D01*
X40463000Y56388000D02*
X40463000Y58988000D01*
X41793000Y53788000D02*
X40463000Y53788000D01*
X40463000Y53788000D02*
X40463000Y55118000D01*
%TO.C,J3*%
D11*
X69860666Y36909620D02*
X69860666Y36195334D01*
X69813047Y36052477D01*
X69717809Y35957239D01*
X69574952Y35909620D01*
X69479714Y35909620D01*
X70241619Y36909620D02*
X70860666Y36909620D01*
X70527333Y36528667D01*
X70670190Y36528667D01*
X70765428Y36481048D01*
X70813047Y36433429D01*
X70860666Y36338191D01*
X70860666Y36100096D01*
X70813047Y36004858D01*
X70765428Y35957239D01*
X70670190Y35909620D01*
X70384476Y35909620D01*
X70289238Y35957239D01*
X70241619Y36004858D01*
%TO.C,J2*%
X92403166Y36909620D02*
X92403166Y36195334D01*
X92355547Y36052477D01*
X92260309Y35957239D01*
X92117452Y35909620D01*
X92022214Y35909620D01*
X92831738Y36814381D02*
X92879357Y36862000D01*
X92974595Y36909620D01*
X93212690Y36909620D01*
X93307928Y36862000D01*
X93355547Y36814381D01*
X93403166Y36719143D01*
X93403166Y36623905D01*
X93355547Y36481048D01*
X92784119Y35909620D01*
X93403166Y35909620D01*
%TO.C,J11*%
X91825380Y50625477D02*
X92539666Y50625477D01*
X92682523Y50577858D01*
X92777761Y50482620D01*
X92825380Y50339762D01*
X92825380Y50244524D01*
X92825380Y51625477D02*
X92825380Y51054048D01*
X92825380Y51339762D02*
X91825380Y51339762D01*
X91968238Y51244524D01*
X92063476Y51149286D01*
X92111095Y51054048D01*
X92825380Y52577858D02*
X92825380Y52006429D01*
X92825380Y52292143D02*
X91825380Y52292143D01*
X91968238Y52196905D01*
X92063476Y52101667D01*
X92111095Y52006429D01*
%TO.C,J12*%
X65865476Y41676120D02*
X65865476Y40961834D01*
X65817857Y40818977D01*
X65722619Y40723739D01*
X65579761Y40676120D01*
X65484523Y40676120D01*
X66865476Y40676120D02*
X66294047Y40676120D01*
X66579761Y40676120D02*
X66579761Y41676120D01*
X66484523Y41533262D01*
X66389285Y41438024D01*
X66294047Y41390405D01*
X67246428Y41580881D02*
X67294047Y41628500D01*
X67389285Y41676120D01*
X67627380Y41676120D01*
X67722619Y41628500D01*
X67770238Y41580881D01*
X67817857Y41485643D01*
X67817857Y41390405D01*
X67770238Y41247548D01*
X67198809Y40676120D01*
X67817857Y40676120D01*
%TO.C,U3*%
X80619695Y25134820D02*
X80619695Y24325296D01*
X80667314Y24230058D01*
X80714933Y24182439D01*
X80810171Y24134820D01*
X81000647Y24134820D01*
X81095885Y24182439D01*
X81143504Y24230058D01*
X81191123Y24325296D01*
X81191123Y25134820D01*
X81572076Y25134820D02*
X82191123Y25134820D01*
X81857790Y24753867D01*
X82000647Y24753867D01*
X82095885Y24706248D01*
X82143504Y24658629D01*
X82191123Y24563391D01*
X82191123Y24325296D01*
X82143504Y24230058D01*
X82095885Y24182439D01*
X82000647Y24134820D01*
X81714933Y24134820D01*
X81619695Y24182439D01*
X81572076Y24230058D01*
%TO.C,R13*%
X82056342Y38774820D02*
X81723009Y39251010D01*
X81484914Y38774820D02*
X81484914Y39774820D01*
X81865866Y39774820D01*
X81961104Y39727200D01*
X82008723Y39679581D01*
X82056342Y39584343D01*
X82056342Y39441486D01*
X82008723Y39346248D01*
X81961104Y39298629D01*
X81865866Y39251010D01*
X81484914Y39251010D01*
X83008723Y38774820D02*
X82437295Y38774820D01*
X82723009Y38774820D02*
X82723009Y39774820D01*
X82627771Y39631962D01*
X82532533Y39536724D01*
X82437295Y39489105D01*
X83342057Y39774820D02*
X83961104Y39774820D01*
X83627771Y39393867D01*
X83770628Y39393867D01*
X83865866Y39346248D01*
X83913485Y39298629D01*
X83961104Y39203391D01*
X83961104Y38965296D01*
X83913485Y38870058D01*
X83865866Y38822439D01*
X83770628Y38774820D01*
X83484914Y38774820D01*
X83389676Y38822439D01*
X83342057Y38870058D01*
%TO.C,R12*%
X81754142Y32525620D02*
X81420809Y33001810D01*
X81182714Y32525620D02*
X81182714Y33525620D01*
X81563666Y33525620D01*
X81658904Y33478000D01*
X81706523Y33430381D01*
X81754142Y33335143D01*
X81754142Y33192286D01*
X81706523Y33097048D01*
X81658904Y33049429D01*
X81563666Y33001810D01*
X81182714Y33001810D01*
X82706523Y32525620D02*
X82135095Y32525620D01*
X82420809Y32525620D02*
X82420809Y33525620D01*
X82325571Y33382762D01*
X82230333Y33287524D01*
X82135095Y33239905D01*
X83087476Y33430381D02*
X83135095Y33478000D01*
X83230333Y33525620D01*
X83468428Y33525620D01*
X83563666Y33478000D01*
X83611285Y33430381D01*
X83658904Y33335143D01*
X83658904Y33239905D01*
X83611285Y33097048D01*
X83039857Y32525620D01*
X83658904Y32525620D01*
%TO.C,R1*%
X84535180Y30440334D02*
X84058990Y30107000D01*
X84535180Y29868905D02*
X83535180Y29868905D01*
X83535180Y30249858D01*
X83582800Y30345096D01*
X83630419Y30392715D01*
X83725657Y30440334D01*
X83868514Y30440334D01*
X83963752Y30392715D01*
X84011371Y30345096D01*
X84058990Y30249858D01*
X84058990Y29868905D01*
X84535180Y31392715D02*
X84535180Y30821286D01*
X84535180Y31107000D02*
X83535180Y31107000D01*
X83678038Y31011762D01*
X83773276Y30916524D01*
X83820895Y30821286D01*
%TO.C,JP1*%
X79502380Y30535667D02*
X80216666Y30535667D01*
X80359523Y30488048D01*
X80454761Y30392810D01*
X80502380Y30249953D01*
X80502380Y30154715D01*
X80502380Y31011858D02*
X79502380Y31011858D01*
X79502380Y31392810D01*
X79550000Y31488048D01*
X79597619Y31535667D01*
X79692857Y31583286D01*
X79835714Y31583286D01*
X79930952Y31535667D01*
X79978571Y31488048D01*
X80026190Y31392810D01*
X80026190Y31011858D01*
X80502380Y32535667D02*
X80502380Y31964239D01*
X80502380Y32249953D02*
X79502380Y32249953D01*
X79645238Y32154715D01*
X79740476Y32059477D01*
X79788095Y31964239D01*
%TO.C,C11*%
X79305942Y21506343D02*
X79353561Y21458724D01*
X79401180Y21315867D01*
X79401180Y21220629D01*
X79353561Y21077772D01*
X79258323Y20982534D01*
X79163085Y20934915D01*
X78972609Y20887296D01*
X78829752Y20887296D01*
X78639276Y20934915D01*
X78544038Y20982534D01*
X78448800Y21077772D01*
X78401180Y21220629D01*
X78401180Y21315867D01*
X78448800Y21458724D01*
X78496419Y21506343D01*
X79401180Y22458724D02*
X79401180Y21887296D01*
X79401180Y22173010D02*
X78401180Y22173010D01*
X78544038Y22077772D01*
X78639276Y21982534D01*
X78686895Y21887296D01*
X79401180Y23411105D02*
X79401180Y22839677D01*
X79401180Y23125391D02*
X78401180Y23125391D01*
X78544038Y23030153D01*
X78639276Y22934915D01*
X78686895Y22839677D01*
%TO.C,J5*%
X45699880Y16113167D02*
X46414166Y16113167D01*
X46557023Y16065548D01*
X46652261Y15970310D01*
X46699880Y15827453D01*
X46699880Y15732215D01*
X45699880Y17065548D02*
X45699880Y16589358D01*
X46176071Y16541739D01*
X46128452Y16589358D01*
X46080833Y16684596D01*
X46080833Y16922691D01*
X46128452Y17017929D01*
X46176071Y17065548D01*
X46271309Y17113167D01*
X46509404Y17113167D01*
X46604642Y17065548D01*
X46652261Y17017929D01*
X46699880Y16922691D01*
X46699880Y16684596D01*
X46652261Y16589358D01*
X46604642Y16541739D01*
%TO.C,U2*%
X68687880Y10892096D02*
X69497404Y10892096D01*
X69592642Y10939715D01*
X69640261Y10987334D01*
X69687880Y11082572D01*
X69687880Y11273048D01*
X69640261Y11368286D01*
X69592642Y11415905D01*
X69497404Y11463524D01*
X68687880Y11463524D01*
X68783119Y11892096D02*
X68735500Y11939715D01*
X68687880Y12034953D01*
X68687880Y12273048D01*
X68735500Y12368286D01*
X68783119Y12415905D01*
X68878357Y12463524D01*
X68973595Y12463524D01*
X69116452Y12415905D01*
X69687880Y11844477D01*
X69687880Y12463524D01*
%TO.C,J8*%
X45699880Y43735667D02*
X46414166Y43735667D01*
X46557023Y43688048D01*
X46652261Y43592810D01*
X46699880Y43449953D01*
X46699880Y43354715D01*
X46128452Y44354715D02*
X46080833Y44259477D01*
X46033214Y44211858D01*
X45937976Y44164239D01*
X45890357Y44164239D01*
X45795119Y44211858D01*
X45747500Y44259477D01*
X45699880Y44354715D01*
X45699880Y44545191D01*
X45747500Y44640429D01*
X45795119Y44688048D01*
X45890357Y44735667D01*
X45937976Y44735667D01*
X46033214Y44688048D01*
X46080833Y44640429D01*
X46128452Y44545191D01*
X46128452Y44354715D01*
X46176071Y44259477D01*
X46223690Y44211858D01*
X46318928Y44164239D01*
X46509404Y44164239D01*
X46604642Y44211858D01*
X46652261Y44259477D01*
X46699880Y44354715D01*
X46699880Y44545191D01*
X46652261Y44640429D01*
X46604642Y44688048D01*
X46509404Y44735667D01*
X46318928Y44735667D01*
X46223690Y44688048D01*
X46176071Y44640429D01*
X46128452Y44545191D01*
%TO.C,U1*%
X33005380Y32566096D02*
X33814904Y32566096D01*
X33910142Y32613715D01*
X33957761Y32661334D01*
X34005380Y32756572D01*
X34005380Y32947048D01*
X33957761Y33042286D01*
X33910142Y33089905D01*
X33814904Y33137524D01*
X33005380Y33137524D01*
X34005380Y34137524D02*
X34005380Y33566096D01*
X34005380Y33851810D02*
X33005380Y33851810D01*
X33148238Y33756572D01*
X33243476Y33661334D01*
X33291095Y33566096D01*
%TO.C,Q2*%
X14957761Y38180381D02*
X14862523Y38228000D01*
X14767285Y38323239D01*
X14624428Y38466096D01*
X14529190Y38513715D01*
X14433952Y38513715D01*
X14481571Y38275620D02*
X14386333Y38323239D01*
X14291095Y38418477D01*
X14243476Y38608953D01*
X14243476Y38942286D01*
X14291095Y39132762D01*
X14386333Y39228000D01*
X14481571Y39275620D01*
X14672047Y39275620D01*
X14767285Y39228000D01*
X14862523Y39132762D01*
X14910142Y38942286D01*
X14910142Y38608953D01*
X14862523Y38418477D01*
X14767285Y38323239D01*
X14672047Y38275620D01*
X14481571Y38275620D01*
X15291095Y39180381D02*
X15338714Y39228000D01*
X15433952Y39275620D01*
X15672047Y39275620D01*
X15767285Y39228000D01*
X15814904Y39180381D01*
X15862523Y39085143D01*
X15862523Y38989905D01*
X15814904Y38847048D01*
X15243476Y38275620D01*
X15862523Y38275620D01*
%TO.C,R11*%
X35085380Y36685143D02*
X34609190Y36351810D01*
X35085380Y36113715D02*
X34085380Y36113715D01*
X34085380Y36494667D01*
X34133000Y36589905D01*
X34180619Y36637524D01*
X34275857Y36685143D01*
X34418714Y36685143D01*
X34513952Y36637524D01*
X34561571Y36589905D01*
X34609190Y36494667D01*
X34609190Y36113715D01*
X35085380Y37637524D02*
X35085380Y37066096D01*
X35085380Y37351810D02*
X34085380Y37351810D01*
X34228238Y37256572D01*
X34323476Y37161334D01*
X34371095Y37066096D01*
X35085380Y38589905D02*
X35085380Y38018477D01*
X35085380Y38304191D02*
X34085380Y38304191D01*
X34228238Y38208953D01*
X34323476Y38113715D01*
X34371095Y38018477D01*
%TO.C,R10*%
X27185380Y46485143D02*
X26709190Y46151810D01*
X27185380Y45913715D02*
X26185380Y45913715D01*
X26185380Y46294667D01*
X26233000Y46389905D01*
X26280619Y46437524D01*
X26375857Y46485143D01*
X26518714Y46485143D01*
X26613952Y46437524D01*
X26661571Y46389905D01*
X26709190Y46294667D01*
X26709190Y45913715D01*
X27185380Y47437524D02*
X27185380Y46866096D01*
X27185380Y47151810D02*
X26185380Y47151810D01*
X26328238Y47056572D01*
X26423476Y46961334D01*
X26471095Y46866096D01*
X26185380Y48056572D02*
X26185380Y48151810D01*
X26233000Y48247048D01*
X26280619Y48294667D01*
X26375857Y48342286D01*
X26566333Y48389905D01*
X26804428Y48389905D01*
X26994904Y48342286D01*
X27090142Y48294667D01*
X27137761Y48247048D01*
X27185380Y48151810D01*
X27185380Y48056572D01*
X27137761Y47961334D01*
X27090142Y47913715D01*
X26994904Y47866096D01*
X26804428Y47818477D01*
X26566333Y47818477D01*
X26375857Y47866096D01*
X26280619Y47913715D01*
X26233000Y47961334D01*
X26185380Y48056572D01*
%TO.C,R9*%
X30485380Y41761334D02*
X30009190Y41428000D01*
X30485380Y41189905D02*
X29485380Y41189905D01*
X29485380Y41570858D01*
X29533000Y41666096D01*
X29580619Y41713715D01*
X29675857Y41761334D01*
X29818714Y41761334D01*
X29913952Y41713715D01*
X29961571Y41666096D01*
X30009190Y41570858D01*
X30009190Y41189905D01*
X30485380Y42237524D02*
X30485380Y42428000D01*
X30437761Y42523239D01*
X30390142Y42570858D01*
X30247285Y42666096D01*
X30056809Y42713715D01*
X29675857Y42713715D01*
X29580619Y42666096D01*
X29533000Y42618477D01*
X29485380Y42523239D01*
X29485380Y42332762D01*
X29533000Y42237524D01*
X29580619Y42189905D01*
X29675857Y42142286D01*
X29913952Y42142286D01*
X30009190Y42189905D01*
X30056809Y42237524D01*
X30104428Y42332762D01*
X30104428Y42523239D01*
X30056809Y42618477D01*
X30009190Y42666096D01*
X29913952Y42713715D01*
%TO.C,R8*%
X38725380Y23661334D02*
X38249190Y23328000D01*
X38725380Y23089905D02*
X37725380Y23089905D01*
X37725380Y23470858D01*
X37773000Y23566096D01*
X37820619Y23613715D01*
X37915857Y23661334D01*
X38058714Y23661334D01*
X38153952Y23613715D01*
X38201571Y23566096D01*
X38249190Y23470858D01*
X38249190Y23089905D01*
X38153952Y24232762D02*
X38106333Y24137524D01*
X38058714Y24089905D01*
X37963476Y24042286D01*
X37915857Y24042286D01*
X37820619Y24089905D01*
X37773000Y24137524D01*
X37725380Y24232762D01*
X37725380Y24423239D01*
X37773000Y24518477D01*
X37820619Y24566096D01*
X37915857Y24613715D01*
X37963476Y24613715D01*
X38058714Y24566096D01*
X38106333Y24518477D01*
X38153952Y24423239D01*
X38153952Y24232762D01*
X38201571Y24137524D01*
X38249190Y24089905D01*
X38344428Y24042286D01*
X38534904Y24042286D01*
X38630142Y24089905D01*
X38677761Y24137524D01*
X38725380Y24232762D01*
X38725380Y24423239D01*
X38677761Y24518477D01*
X38630142Y24566096D01*
X38534904Y24613715D01*
X38344428Y24613715D01*
X38249190Y24566096D01*
X38201571Y24518477D01*
X38153952Y24423239D01*
%TO.C,R7*%
X23486333Y29595620D02*
X23153000Y30071810D01*
X22914904Y29595620D02*
X22914904Y30595620D01*
X23295857Y30595620D01*
X23391095Y30548000D01*
X23438714Y30500381D01*
X23486333Y30405143D01*
X23486333Y30262286D01*
X23438714Y30167048D01*
X23391095Y30119429D01*
X23295857Y30071810D01*
X22914904Y30071810D01*
X23819666Y30595620D02*
X24486333Y30595620D01*
X24057761Y29595620D01*
%TO.C,R6*%
X31075333Y19401620D02*
X30742000Y19877810D01*
X30503904Y19401620D02*
X30503904Y20401620D01*
X30884857Y20401620D01*
X30980095Y20354000D01*
X31027714Y20306381D01*
X31075333Y20211143D01*
X31075333Y20068286D01*
X31027714Y19973048D01*
X30980095Y19925429D01*
X30884857Y19877810D01*
X30503904Y19877810D01*
X31932476Y20401620D02*
X31742000Y20401620D01*
X31646761Y20354000D01*
X31599142Y20306381D01*
X31503904Y20163524D01*
X31456285Y19973048D01*
X31456285Y19592096D01*
X31503904Y19496858D01*
X31551523Y19449239D01*
X31646761Y19401620D01*
X31837238Y19401620D01*
X31932476Y19449239D01*
X31980095Y19496858D01*
X32027714Y19592096D01*
X32027714Y19830191D01*
X31980095Y19925429D01*
X31932476Y19973048D01*
X31837238Y20020667D01*
X31646761Y20020667D01*
X31551523Y19973048D01*
X31503904Y19925429D01*
X31456285Y19830191D01*
%TO.C,R5*%
X22508380Y19391334D02*
X22032190Y19058000D01*
X22508380Y18819905D02*
X21508380Y18819905D01*
X21508380Y19200858D01*
X21556000Y19296096D01*
X21603619Y19343715D01*
X21698857Y19391334D01*
X21841714Y19391334D01*
X21936952Y19343715D01*
X21984571Y19296096D01*
X22032190Y19200858D01*
X22032190Y18819905D01*
X21508380Y20296096D02*
X21508380Y19819905D01*
X21984571Y19772286D01*
X21936952Y19819905D01*
X21889333Y19915143D01*
X21889333Y20153239D01*
X21936952Y20248477D01*
X21984571Y20296096D01*
X22079809Y20343715D01*
X22317904Y20343715D01*
X22413142Y20296096D01*
X22460761Y20248477D01*
X22508380Y20153239D01*
X22508380Y19915143D01*
X22460761Y19819905D01*
X22413142Y19772286D01*
%TO.C,R4*%
X23386333Y25695620D02*
X23053000Y26171810D01*
X22814904Y25695620D02*
X22814904Y26695620D01*
X23195857Y26695620D01*
X23291095Y26648000D01*
X23338714Y26600381D01*
X23386333Y26505143D01*
X23386333Y26362286D01*
X23338714Y26267048D01*
X23291095Y26219429D01*
X23195857Y26171810D01*
X22814904Y26171810D01*
X24243476Y26362286D02*
X24243476Y25695620D01*
X24005380Y26743239D02*
X23767285Y26028953D01*
X24386333Y26028953D01*
%TO.C,R3*%
X33972380Y23661334D02*
X33496190Y23328000D01*
X33972380Y23089905D02*
X32972380Y23089905D01*
X32972380Y23470858D01*
X33020000Y23566096D01*
X33067619Y23613715D01*
X33162857Y23661334D01*
X33305714Y23661334D01*
X33400952Y23613715D01*
X33448571Y23566096D01*
X33496190Y23470858D01*
X33496190Y23089905D01*
X32972380Y23994667D02*
X32972380Y24613715D01*
X33353333Y24280381D01*
X33353333Y24423239D01*
X33400952Y24518477D01*
X33448571Y24566096D01*
X33543809Y24613715D01*
X33781904Y24613715D01*
X33877142Y24566096D01*
X33924761Y24518477D01*
X33972380Y24423239D01*
X33972380Y24137524D01*
X33924761Y24042286D01*
X33877142Y23994667D01*
%TO.C,R2*%
X27785380Y23661334D02*
X27309190Y23328000D01*
X27785380Y23089905D02*
X26785380Y23089905D01*
X26785380Y23470858D01*
X26833000Y23566096D01*
X26880619Y23613715D01*
X26975857Y23661334D01*
X27118714Y23661334D01*
X27213952Y23613715D01*
X27261571Y23566096D01*
X27309190Y23470858D01*
X27309190Y23089905D01*
X26880619Y24042286D02*
X26833000Y24089905D01*
X26785380Y24185143D01*
X26785380Y24423239D01*
X26833000Y24518477D01*
X26880619Y24566096D01*
X26975857Y24613715D01*
X27071095Y24613715D01*
X27213952Y24566096D01*
X27785380Y23994667D01*
X27785380Y24613715D01*
%TO.C,Q3*%
X15900619Y33732762D02*
X15853000Y33637524D01*
X15757761Y33542286D01*
X15614904Y33399429D01*
X15567285Y33304191D01*
X15567285Y33208953D01*
X15805380Y33256572D02*
X15757761Y33161334D01*
X15662523Y33066096D01*
X15472047Y33018477D01*
X15138714Y33018477D01*
X14948238Y33066096D01*
X14853000Y33161334D01*
X14805380Y33256572D01*
X14805380Y33447048D01*
X14853000Y33542286D01*
X14948238Y33637524D01*
X15138714Y33685143D01*
X15472047Y33685143D01*
X15662523Y33637524D01*
X15757761Y33542286D01*
X15805380Y33447048D01*
X15805380Y33256572D01*
X14805380Y34018477D02*
X14805380Y34637524D01*
X15186333Y34304191D01*
X15186333Y34447048D01*
X15233952Y34542286D01*
X15281571Y34589905D01*
X15376809Y34637524D01*
X15614904Y34637524D01*
X15710142Y34589905D01*
X15757761Y34542286D01*
X15805380Y34447048D01*
X15805380Y34161334D01*
X15757761Y34066096D01*
X15710142Y34018477D01*
%TO.C,L1*%
X19886333Y39499620D02*
X19410142Y39499620D01*
X19410142Y40499620D01*
X20743476Y39499620D02*
X20172047Y39499620D01*
X20457761Y39499620D02*
X20457761Y40499620D01*
X20362523Y40356762D01*
X20267285Y40261524D01*
X20172047Y40213905D01*
%TO.C,C10*%
X34960142Y31585143D02*
X35007761Y31537524D01*
X35055380Y31394667D01*
X35055380Y31299429D01*
X35007761Y31156572D01*
X34912523Y31061334D01*
X34817285Y31013715D01*
X34626809Y30966096D01*
X34483952Y30966096D01*
X34293476Y31013715D01*
X34198238Y31061334D01*
X34103000Y31156572D01*
X34055380Y31299429D01*
X34055380Y31394667D01*
X34103000Y31537524D01*
X34150619Y31585143D01*
X35055380Y32537524D02*
X35055380Y31966096D01*
X35055380Y32251810D02*
X34055380Y32251810D01*
X34198238Y32156572D01*
X34293476Y32061334D01*
X34341095Y31966096D01*
X34055380Y33156572D02*
X34055380Y33251810D01*
X34103000Y33347048D01*
X34150619Y33394667D01*
X34245857Y33442286D01*
X34436333Y33489905D01*
X34674428Y33489905D01*
X34864904Y33442286D01*
X34960142Y33394667D01*
X35007761Y33347048D01*
X35055380Y33251810D01*
X35055380Y33156572D01*
X35007761Y33061334D01*
X34960142Y33013715D01*
X34864904Y32966096D01*
X34674428Y32918477D01*
X34436333Y32918477D01*
X34245857Y32966096D01*
X34150619Y33013715D01*
X34103000Y33061334D01*
X34055380Y33156572D01*
%TO.C,C9*%
X25486333Y35220858D02*
X25438714Y35173239D01*
X25295857Y35125620D01*
X25200619Y35125620D01*
X25057761Y35173239D01*
X24962523Y35268477D01*
X24914904Y35363715D01*
X24867285Y35554191D01*
X24867285Y35697048D01*
X24914904Y35887524D01*
X24962523Y35982762D01*
X25057761Y36078000D01*
X25200619Y36125620D01*
X25295857Y36125620D01*
X25438714Y36078000D01*
X25486333Y36030381D01*
X25962523Y35125620D02*
X26153000Y35125620D01*
X26248238Y35173239D01*
X26295857Y35220858D01*
X26391095Y35363715D01*
X26438714Y35554191D01*
X26438714Y35935143D01*
X26391095Y36030381D01*
X26343476Y36078000D01*
X26248238Y36125620D01*
X26057761Y36125620D01*
X25962523Y36078000D01*
X25914904Y36030381D01*
X25867285Y35935143D01*
X25867285Y35697048D01*
X25914904Y35601810D01*
X25962523Y35554191D01*
X26057761Y35506572D01*
X26248238Y35506572D01*
X26343476Y35554191D01*
X26391095Y35601810D01*
X26438714Y35697048D01*
%TO.C,C8*%
X39460142Y32061334D02*
X39507761Y32013715D01*
X39555380Y31870858D01*
X39555380Y31775620D01*
X39507761Y31632762D01*
X39412523Y31537524D01*
X39317285Y31489905D01*
X39126809Y31442286D01*
X38983952Y31442286D01*
X38793476Y31489905D01*
X38698238Y31537524D01*
X38603000Y31632762D01*
X38555380Y31775620D01*
X38555380Y31870858D01*
X38603000Y32013715D01*
X38650619Y32061334D01*
X38983952Y32632762D02*
X38936333Y32537524D01*
X38888714Y32489905D01*
X38793476Y32442286D01*
X38745857Y32442286D01*
X38650619Y32489905D01*
X38603000Y32537524D01*
X38555380Y32632762D01*
X38555380Y32823239D01*
X38603000Y32918477D01*
X38650619Y32966096D01*
X38745857Y33013715D01*
X38793476Y33013715D01*
X38888714Y32966096D01*
X38936333Y32918477D01*
X38983952Y32823239D01*
X38983952Y32632762D01*
X39031571Y32537524D01*
X39079190Y32489905D01*
X39174428Y32442286D01*
X39364904Y32442286D01*
X39460142Y32489905D01*
X39507761Y32537524D01*
X39555380Y32632762D01*
X39555380Y32823239D01*
X39507761Y32918477D01*
X39460142Y32966096D01*
X39364904Y33013715D01*
X39174428Y33013715D01*
X39079190Y32966096D01*
X39031571Y32918477D01*
X38983952Y32823239D01*
%TO.C,C7*%
X27060142Y41861334D02*
X27107761Y41813715D01*
X27155380Y41670858D01*
X27155380Y41575620D01*
X27107761Y41432762D01*
X27012523Y41337524D01*
X26917285Y41289905D01*
X26726809Y41242286D01*
X26583952Y41242286D01*
X26393476Y41289905D01*
X26298238Y41337524D01*
X26203000Y41432762D01*
X26155380Y41575620D01*
X26155380Y41670858D01*
X26203000Y41813715D01*
X26250619Y41861334D01*
X26155380Y42194667D02*
X26155380Y42861334D01*
X27155380Y42432762D01*
%TO.C,C4*%
X22860142Y33461334D02*
X22907761Y33413715D01*
X22955380Y33270858D01*
X22955380Y33175620D01*
X22907761Y33032762D01*
X22812523Y32937524D01*
X22717285Y32889905D01*
X22526809Y32842286D01*
X22383952Y32842286D01*
X22193476Y32889905D01*
X22098238Y32937524D01*
X22003000Y33032762D01*
X21955380Y33175620D01*
X21955380Y33270858D01*
X22003000Y33413715D01*
X22050619Y33461334D01*
X22288714Y34318477D02*
X22955380Y34318477D01*
X21907761Y34080381D02*
X22622047Y33842286D01*
X22622047Y34461334D01*
%TO.C,C3*%
X27060142Y41861334D02*
X27107761Y41813715D01*
X27155380Y41670858D01*
X27155380Y41575620D01*
X27107761Y41432762D01*
X27012523Y41337524D01*
X26917285Y41289905D01*
X26726809Y41242286D01*
X26583952Y41242286D01*
X26393476Y41289905D01*
X26298238Y41337524D01*
X26203000Y41432762D01*
X26155380Y41575620D01*
X26155380Y41670858D01*
X26203000Y41813715D01*
X26250619Y41861334D01*
X26155380Y42194667D02*
X26155380Y42813715D01*
X26536333Y42480381D01*
X26536333Y42623239D01*
X26583952Y42718477D01*
X26631571Y42766096D01*
X26726809Y42813715D01*
X26964904Y42813715D01*
X27060142Y42766096D01*
X27107761Y42718477D01*
X27155380Y42623239D01*
X27155380Y42337524D01*
X27107761Y42242286D01*
X27060142Y42194667D01*
%TO.C,C2*%
X14946333Y42640858D02*
X14898714Y42593239D01*
X14755857Y42545620D01*
X14660619Y42545620D01*
X14517761Y42593239D01*
X14422523Y42688477D01*
X14374904Y42783715D01*
X14327285Y42974191D01*
X14327285Y43117048D01*
X14374904Y43307524D01*
X14422523Y43402762D01*
X14517761Y43498000D01*
X14660619Y43545620D01*
X14755857Y43545620D01*
X14898714Y43498000D01*
X14946333Y43450381D01*
X15327285Y43450381D02*
X15374904Y43498000D01*
X15470142Y43545620D01*
X15708238Y43545620D01*
X15803476Y43498000D01*
X15851095Y43450381D01*
X15898714Y43355143D01*
X15898714Y43259905D01*
X15851095Y43117048D01*
X15279666Y42545620D01*
X15898714Y42545620D01*
%TO.C,C1*%
X13041333Y31083858D02*
X12993714Y31036239D01*
X12850857Y30988620D01*
X12755619Y30988620D01*
X12612761Y31036239D01*
X12517523Y31131477D01*
X12469904Y31226715D01*
X12422285Y31417191D01*
X12422285Y31560048D01*
X12469904Y31750524D01*
X12517523Y31845762D01*
X12612761Y31941000D01*
X12755619Y31988620D01*
X12850857Y31988620D01*
X12993714Y31941000D01*
X13041333Y31893381D01*
X13993714Y30988620D02*
X13422285Y30988620D01*
X13708000Y30988620D02*
X13708000Y31988620D01*
X13612761Y31845762D01*
X13517523Y31750524D01*
X13422285Y31702905D01*
%TO.C,J4*%
X54145380Y1668667D02*
X54859666Y1668667D01*
X55002523Y1621048D01*
X55097761Y1525810D01*
X55145380Y1382953D01*
X55145380Y1287715D01*
X54478714Y2573429D02*
X55145380Y2573429D01*
X54097761Y2335334D02*
X54812047Y2097239D01*
X54812047Y2716286D01*
%TO.C,H7*%
X88238095Y12763120D02*
X88238095Y13763120D01*
X88238095Y13286929D02*
X88809523Y13286929D01*
X88809523Y12763120D02*
X88809523Y13763120D01*
X89190476Y13763120D02*
X89857142Y13763120D01*
X89428571Y12763120D01*
%TO.C,H6*%
X4238095Y58047620D02*
X4238095Y59047620D01*
X4238095Y58571429D02*
X4809523Y58571429D01*
X4809523Y58047620D02*
X4809523Y59047620D01*
X5714285Y59047620D02*
X5523809Y59047620D01*
X5428571Y59000000D01*
X5380952Y58952381D01*
X5285714Y58809524D01*
X5238095Y58619048D01*
X5238095Y58238096D01*
X5285714Y58142858D01*
X5333333Y58095239D01*
X5428571Y58047620D01*
X5619047Y58047620D01*
X5714285Y58095239D01*
X5761904Y58142858D01*
X5809523Y58238096D01*
X5809523Y58476191D01*
X5761904Y58571429D01*
X5714285Y58619048D01*
X5619047Y58666667D01*
X5428571Y58666667D01*
X5333333Y58619048D01*
X5285714Y58571429D01*
X5238095Y58476191D01*
%TO.C,J1*%
X17490666Y1089620D02*
X17490666Y375334D01*
X17443047Y232477D01*
X17347809Y137239D01*
X17204952Y89620D01*
X17109714Y89620D01*
X18490666Y89620D02*
X17919238Y89620D01*
X18204952Y89620D02*
X18204952Y1089620D01*
X18109714Y946762D01*
X18014476Y851524D01*
X17919238Y803905D01*
%TO.C,C5*%
X74115142Y18015834D02*
X74162761Y17968215D01*
X74210380Y17825358D01*
X74210380Y17730120D01*
X74162761Y17587262D01*
X74067523Y17492024D01*
X73972285Y17444405D01*
X73781809Y17396786D01*
X73638952Y17396786D01*
X73448476Y17444405D01*
X73353238Y17492024D01*
X73258000Y17587262D01*
X73210380Y17730120D01*
X73210380Y17825358D01*
X73258000Y17968215D01*
X73305619Y18015834D01*
X73210380Y18920596D02*
X73210380Y18444405D01*
X73686571Y18396786D01*
X73638952Y18444405D01*
X73591333Y18539643D01*
X73591333Y18777739D01*
X73638952Y18872977D01*
X73686571Y18920596D01*
X73781809Y18968215D01*
X74019904Y18968215D01*
X74115142Y18920596D01*
X74162761Y18872977D01*
X74210380Y18777739D01*
X74210380Y18539643D01*
X74162761Y18444405D01*
X74115142Y18396786D01*
%TO.C,C6*%
X81002142Y18099834D02*
X81049761Y18052215D01*
X81097380Y17909358D01*
X81097380Y17814120D01*
X81049761Y17671262D01*
X80954523Y17576024D01*
X80859285Y17528405D01*
X80668809Y17480786D01*
X80525952Y17480786D01*
X80335476Y17528405D01*
X80240238Y17576024D01*
X80145000Y17671262D01*
X80097380Y17814120D01*
X80097380Y17909358D01*
X80145000Y18052215D01*
X80192619Y18099834D01*
X80097380Y18956977D02*
X80097380Y18766500D01*
X80145000Y18671262D01*
X80192619Y18623643D01*
X80335476Y18528405D01*
X80525952Y18480786D01*
X80906904Y18480786D01*
X81002142Y18528405D01*
X81049761Y18576024D01*
X81097380Y18671262D01*
X81097380Y18861739D01*
X81049761Y18956977D01*
X81002142Y19004596D01*
X80906904Y19052215D01*
X80668809Y19052215D01*
X80573571Y19004596D01*
X80525952Y18956977D01*
X80478333Y18861739D01*
X80478333Y18671262D01*
X80525952Y18576024D01*
X80573571Y18528405D01*
X80668809Y18480786D01*
%TO.C,J6*%
X51439380Y1698667D02*
X52153666Y1698667D01*
X52296523Y1651048D01*
X52391761Y1555810D01*
X52439380Y1412953D01*
X52439380Y1317715D01*
X51439380Y2603429D02*
X51439380Y2412953D01*
X51487000Y2317715D01*
X51534619Y2270096D01*
X51677476Y2174858D01*
X51867952Y2127239D01*
X52248904Y2127239D01*
X52344142Y2174858D01*
X52391761Y2222477D01*
X52439380Y2317715D01*
X52439380Y2508191D01*
X52391761Y2603429D01*
X52344142Y2651048D01*
X52248904Y2698667D01*
X52010809Y2698667D01*
X51915571Y2651048D01*
X51867952Y2603429D01*
X51820333Y2508191D01*
X51820333Y2317715D01*
X51867952Y2222477D01*
X51915571Y2174858D01*
X52010809Y2127239D01*
%TO.C,J7*%
X26049380Y57294667D02*
X26763666Y57294667D01*
X26906523Y57247048D01*
X27001761Y57151810D01*
X27049380Y57008953D01*
X27049380Y56913715D01*
X26049380Y57675620D02*
X26049380Y58342286D01*
X27049380Y57913715D01*
%TO.C,H5*%
X4238095Y13047620D02*
X4238095Y14047620D01*
X4238095Y13571429D02*
X4809523Y13571429D01*
X4809523Y13047620D02*
X4809523Y14047620D01*
X5761904Y14047620D02*
X5285714Y14047620D01*
X5238095Y13571429D01*
X5285714Y13619048D01*
X5380952Y13666667D01*
X5619047Y13666667D01*
X5714285Y13619048D01*
X5761904Y13571429D01*
X5809523Y13476191D01*
X5809523Y13238096D01*
X5761904Y13142858D01*
X5714285Y13095239D01*
X5619047Y13047620D01*
X5380952Y13047620D01*
X5285714Y13095239D01*
X5238095Y13142858D01*
%TO.C,J9*%
X38475380Y53514667D02*
X39189666Y53514667D01*
X39332523Y53467048D01*
X39427761Y53371810D01*
X39475380Y53228953D01*
X39475380Y53133715D01*
X39475380Y54038477D02*
X39475380Y54228953D01*
X39427761Y54324191D01*
X39380142Y54371810D01*
X39237285Y54467048D01*
X39046809Y54514667D01*
X38665857Y54514667D01*
X38570619Y54467048D01*
X38523000Y54419429D01*
X38475380Y54324191D01*
X38475380Y54133715D01*
X38523000Y54038477D01*
X38570619Y53990858D01*
X38665857Y53943239D01*
X38903952Y53943239D01*
X38999190Y53990858D01*
X39046809Y54038477D01*
X39094428Y54133715D01*
X39094428Y54324191D01*
X39046809Y54419429D01*
X38999190Y54467048D01*
X38903952Y54514667D01*
%TD*%
M02*
