%TF.GenerationSoftware,KiCad,Pcbnew,(5.1.9)-1*%
%TF.CreationDate,2021-02-26T10:07:18-07:00*%
%TF.ProjectId,CapstoneBoard,43617073-746f-46e6-9542-6f6172642e6b,3*%
%TF.SameCoordinates,PX4c4b400PY6bc3e40*%
%TF.FileFunction,Other,User*%
%FSLAX46Y46*%
G04 Gerber Fmt 4.6, Leading zero omitted, Abs format (unit mm)*
G04 Created by KiCad (PCBNEW (5.1.9)-1) date 2021-02-26 10:07:18*
%MOMM*%
%LPD*%
G01*
G04 APERTURE LIST*
%ADD10C,0.050000*%
G04 APERTURE END LIST*
D10*
%TO.C,J3*%
X74290000Y30595000D02*
X70740000Y30595000D01*
X70740000Y30595000D02*
X70740000Y41795000D01*
X70740000Y41795000D02*
X74290000Y41795000D01*
X74290000Y41795000D02*
X74290000Y30595000D01*
%TO.C,J2*%
X92070000Y28055000D02*
X88520000Y28055000D01*
X88520000Y28055000D02*
X88520000Y44305000D01*
X88520000Y44305000D02*
X92070000Y44305000D01*
X92070000Y44305000D02*
X92070000Y28055000D01*
%TO.C,J11*%
X91843000Y53235000D02*
X75543000Y53235000D01*
X75543000Y53235000D02*
X75543000Y49635000D01*
X75543000Y49635000D02*
X91843000Y49635000D01*
X91843000Y49635000D02*
X91843000Y53235000D01*
%TO.C,J12*%
X64875000Y40598500D02*
X64875000Y34448500D01*
X64875000Y34448500D02*
X68475000Y34448500D01*
X68475000Y34448500D02*
X68475000Y40598500D01*
X68475000Y40598500D02*
X64875000Y40598500D01*
%TO.C,U3*%
X79631600Y32983800D02*
X79631600Y25283800D01*
X83131600Y32983800D02*
X79631600Y32983800D01*
X83131600Y25283800D02*
X83131600Y32983800D01*
X79631600Y25283800D02*
X83131600Y25283800D01*
%TO.C,R13*%
X80300000Y38620000D02*
X85200000Y38620000D01*
X80300000Y36380000D02*
X80300000Y38620000D01*
X85200000Y36380000D02*
X80300000Y36380000D01*
X85200000Y38620000D02*
X85200000Y36380000D01*
%TO.C,R12*%
X79947000Y35918000D02*
X84847000Y35918000D01*
X79947000Y33678000D02*
X79947000Y35918000D01*
X84847000Y33678000D02*
X79947000Y33678000D01*
X84847000Y35918000D02*
X84847000Y33678000D01*
%TO.C,R1*%
X87022800Y33057000D02*
X87022800Y28157000D01*
X84782800Y33057000D02*
X87022800Y33057000D01*
X84782800Y28157000D02*
X84782800Y33057000D01*
X87022800Y28157000D02*
X84782800Y28157000D01*
%TO.C,JP1*%
X77000000Y29719000D02*
X77000000Y33019000D01*
X77000000Y29719000D02*
X79500000Y29719000D01*
X79500000Y33019000D02*
X77000000Y33019000D01*
X79500000Y33019000D02*
X79500000Y29719000D01*
%TO.C,C11*%
X79720000Y23350000D02*
X84680000Y23350000D01*
X79720000Y21050000D02*
X79720000Y23350000D01*
X84680000Y21050000D02*
X79720000Y21050000D01*
X84680000Y23350000D02*
X84680000Y21050000D01*
%TO.C,J5*%
X46777500Y14646500D02*
X68127500Y14646500D01*
X68127500Y14646500D02*
X68127500Y18246500D01*
X68127500Y18246500D02*
X46777500Y18246500D01*
X46777500Y18246500D02*
X46777500Y14646500D01*
%TO.C,U2*%
X69885500Y7944000D02*
X79085500Y7944000D01*
X69885500Y15354000D02*
X79085500Y15354000D01*
X69885500Y7944000D02*
X69885500Y15354000D01*
X79085500Y7944000D02*
X79085500Y15354000D01*
%TO.C,J8*%
X46777500Y42269000D02*
X68127500Y42269000D01*
X68127500Y42269000D02*
X68127500Y45869000D01*
X68127500Y45869000D02*
X46777500Y45869000D01*
X46777500Y45869000D02*
X46777500Y42269000D01*
%TO.C,Q2*%
X13603000Y38078000D02*
X16503000Y38078000D01*
X16503000Y38078000D02*
X16503000Y35578000D01*
X13603000Y35578000D02*
X16503000Y35578000D01*
X13603000Y38078000D02*
X13603000Y35578000D01*
%TO.C,R11*%
X37573000Y39778000D02*
X37573000Y34878000D01*
X35333000Y39778000D02*
X37573000Y39778000D01*
X35333000Y34878000D02*
X35333000Y39778000D01*
X37573000Y34878000D02*
X35333000Y34878000D01*
%TO.C,R10*%
X29673000Y49578000D02*
X29673000Y44678000D01*
X27433000Y49578000D02*
X29673000Y49578000D01*
X27433000Y44678000D02*
X27433000Y49578000D01*
X29673000Y44678000D02*
X27433000Y44678000D01*
%TO.C,R9*%
X32973000Y44378000D02*
X32973000Y39478000D01*
X30733000Y44378000D02*
X32973000Y44378000D01*
X30733000Y39478000D02*
X30733000Y44378000D01*
X32973000Y39478000D02*
X30733000Y39478000D01*
%TO.C,R8*%
X35333000Y21378000D02*
X35333000Y26278000D01*
X37573000Y21378000D02*
X35333000Y21378000D01*
X37573000Y26278000D02*
X37573000Y21378000D01*
X35333000Y26278000D02*
X37573000Y26278000D01*
%TO.C,R7*%
X26103000Y27108000D02*
X21203000Y27108000D01*
X26103000Y29348000D02*
X26103000Y27108000D01*
X21203000Y29348000D02*
X26103000Y29348000D01*
X21203000Y27108000D02*
X21203000Y29348000D01*
%TO.C,R6*%
X33692000Y16914000D02*
X28792000Y16914000D01*
X33692000Y19154000D02*
X33692000Y16914000D01*
X28792000Y19154000D02*
X33692000Y19154000D01*
X28792000Y16914000D02*
X28792000Y19154000D01*
%TO.C,R5*%
X24996000Y22008000D02*
X24996000Y17108000D01*
X22756000Y22008000D02*
X24996000Y22008000D01*
X22756000Y17108000D02*
X22756000Y22008000D01*
X24996000Y17108000D02*
X22756000Y17108000D01*
%TO.C,R4*%
X26003000Y23208000D02*
X21103000Y23208000D01*
X26003000Y25448000D02*
X26003000Y23208000D01*
X21103000Y25448000D02*
X26003000Y25448000D01*
X21103000Y23208000D02*
X21103000Y25448000D01*
%TO.C,R3*%
X30580000Y21378000D02*
X30580000Y26278000D01*
X32820000Y21378000D02*
X30580000Y21378000D01*
X32820000Y26278000D02*
X32820000Y21378000D01*
X30580000Y26278000D02*
X32820000Y26278000D01*
%TO.C,R2*%
X30273000Y26278000D02*
X30273000Y21378000D01*
X28033000Y26278000D02*
X30273000Y26278000D01*
X28033000Y21378000D02*
X28033000Y26278000D01*
X30273000Y21378000D02*
X28033000Y21378000D01*
%TO.C,Q3*%
X16003000Y32378000D02*
X18503000Y32378000D01*
X18503000Y32378000D02*
X18503000Y35278000D01*
X16003000Y35278000D02*
X18503000Y35278000D01*
X16003000Y32378000D02*
X16003000Y35278000D01*
%TO.C,L1*%
X17703000Y39228000D02*
X17703000Y35628000D01*
X17703000Y35628000D02*
X22403000Y35628000D01*
X22403000Y35628000D02*
X22403000Y39228000D01*
X22403000Y39228000D02*
X17703000Y39228000D01*
%TO.C,C10*%
X37603000Y34708000D02*
X37603000Y29748000D01*
X35303000Y34708000D02*
X37603000Y34708000D01*
X35303000Y29748000D02*
X35303000Y34708000D01*
X37603000Y29748000D02*
X35303000Y29748000D01*
%TO.C,C9*%
X23173000Y38578000D02*
X28133000Y38578000D01*
X23173000Y36278000D02*
X23173000Y38578000D01*
X28133000Y36278000D02*
X23173000Y36278000D01*
X28133000Y38578000D02*
X28133000Y36278000D01*
%TO.C,C8*%
X42103000Y34708000D02*
X42103000Y29748000D01*
X39803000Y34708000D02*
X42103000Y34708000D01*
X39803000Y29748000D02*
X39803000Y34708000D01*
X42103000Y29748000D02*
X39803000Y29748000D01*
%TO.C,C7*%
X29703000Y44508000D02*
X29703000Y39548000D01*
X27403000Y44508000D02*
X29703000Y44508000D01*
X27403000Y39548000D02*
X27403000Y44508000D01*
X29703000Y39548000D02*
X27403000Y39548000D01*
%TO.C,C4*%
X25503000Y36108000D02*
X25503000Y31148000D01*
X23203000Y36108000D02*
X25503000Y36108000D01*
X23203000Y31148000D02*
X23203000Y36108000D01*
X25503000Y31148000D02*
X23203000Y31148000D01*
%TO.C,C3*%
X23703000Y39548000D02*
X23703000Y44508000D01*
X26003000Y39548000D02*
X23703000Y39548000D01*
X26003000Y44508000D02*
X26003000Y39548000D01*
X23703000Y44508000D02*
X26003000Y44508000D01*
%TO.C,C2*%
X17593000Y39998000D02*
X12633000Y39998000D01*
X17593000Y42298000D02*
X17593000Y39998000D01*
X12633000Y42298000D02*
X17593000Y42298000D01*
X12633000Y39998000D02*
X12633000Y42298000D01*
%TO.C,C1*%
X15688000Y28441000D02*
X10728000Y28441000D01*
X15688000Y30741000D02*
X15688000Y28441000D01*
X10728000Y30741000D02*
X15688000Y30741000D01*
X10728000Y28441000D02*
X10728000Y30741000D01*
%TO.C,J4*%
X55223000Y3802000D02*
X55223000Y202000D01*
X91823000Y3802000D02*
X55223000Y3802000D01*
X91823000Y202000D02*
X91823000Y3802000D01*
X55223000Y202000D02*
X91823000Y202000D01*
%TO.C,H7*%
X91750000Y9715500D02*
G75*
G03*
X91750000Y9715500I-2750000J0D01*
G01*
%TO.C,H6*%
X7750000Y55000000D02*
G75*
G03*
X7750000Y55000000I-2750000J0D01*
G01*
%TO.C,J1*%
X23024000Y1242000D02*
X9574000Y1242000D01*
X26074000Y3992000D02*
X23024000Y1242000D01*
X26074000Y7692000D02*
X26074000Y3992000D01*
X23024000Y10442000D02*
X26074000Y7692000D01*
X9574000Y10442000D02*
X23024000Y10442000D01*
X9574000Y1242000D02*
X9574000Y10442000D01*
%TO.C,C5*%
X76418000Y16302500D02*
X74458000Y16302500D01*
X74458000Y16302500D02*
X74458000Y20062500D01*
X74458000Y20062500D02*
X76418000Y20062500D01*
X76418000Y20062500D02*
X76418000Y16302500D01*
%TO.C,C6*%
X79847000Y20041000D02*
X79847000Y16281000D01*
X77887000Y20041000D02*
X79847000Y20041000D01*
X77887000Y16281000D02*
X77887000Y20041000D01*
X79847000Y16281000D02*
X77887000Y16281000D01*
%TO.C,J6*%
X51457000Y232000D02*
X51457000Y3832000D01*
X32607000Y232000D02*
X51457000Y232000D01*
X32607000Y3832000D02*
X32607000Y232000D01*
X51457000Y3832000D02*
X32607000Y3832000D01*
%TO.C,J7*%
X26067000Y59428000D02*
X9767000Y59428000D01*
X9767000Y59428000D02*
X9767000Y55828000D01*
X9767000Y55828000D02*
X26067000Y55828000D01*
X26067000Y55828000D02*
X26067000Y59428000D01*
%TO.C,H1*%
X91750000Y47000000D02*
G75*
G03*
X91750000Y47000000I-2750000J0D01*
G01*
%TO.C,H2*%
X76510000Y25410000D02*
G75*
G03*
X76510000Y25410000I-2750000J0D01*
G01*
%TO.C,H3*%
X91750000Y25410000D02*
G75*
G03*
X91750000Y25410000I-2750000J0D01*
G01*
%TO.C,H4*%
X76510000Y47000000D02*
G75*
G03*
X76510000Y47000000I-2750000J0D01*
G01*
%TO.C,H5*%
X7750000Y10000000D02*
G75*
G03*
X7750000Y10000000I-2750000J0D01*
G01*
%TO.C,J9*%
X39993000Y53318000D02*
X91843000Y53318000D01*
X91843000Y53318000D02*
X91843000Y59468000D01*
X91843000Y59468000D02*
X39993000Y59468000D01*
X39993000Y59468000D02*
X39993000Y53318000D01*
%TD*%
M02*
