M48
; DRILL file {KiCad (5.1.9)-1} date 03/22/21 02:41:45
; FORMAT={-:-/ absolute / inch / decimal}
; #@! TF.CreationDate,2021-03-22T02:41:45-07:00
; #@! TF.GenerationSoftware,Kicad,Pcbnew,(5.1.9)-1
; #@! TF.FileFunction,Plated,1,2,PTH
FMAT,2
INCH
T1C0.0300
T2C0.0394
T3C0.0500
T4C0.0600
T5C0.0984
T6C0.1280
%
G90
G05
T1
X0.5929Y1.1413
X0.6126Y1.2538
X0.8004Y1.2688
X0.8304Y0.9938
X0.9404Y0.9988
X1.0634Y1.1967
X1.1839Y1.1293
X1.2264Y1.5108
X1.4464Y0.5208
X1.6349Y1.9103
X1.69Y0.51
X1.7054Y1.8238
X1.7054Y0.9438
X1.7521Y1.9868
X2.0204Y1.9488
X2.1624Y1.8468
X2.7419Y1.9553
X3.0604Y0.8688
X3.0604Y1.5488
X3.0884Y1.8848
X3.2004Y1.7988
X3.2254Y0.7988
X3.2704Y1.7088
X3.3254Y0.7988
X3.3304Y1.6188
X3.4254Y0.7988
X3.5254Y0.7988
T2
X0.4554Y2.0938
X0.5554Y2.0938
X0.6554Y2.0938
X0.7554Y2.0938
X0.8554Y2.0938
X0.9554Y2.0938
X1.355Y0.0988
X1.455Y0.0988
X1.555Y0.0988
X1.6454Y2.1938
X1.6454Y2.0938
X1.655Y0.0988
X1.7454Y2.1938
X1.7454Y2.0938
X1.755Y0.0988
X1.8454Y2.1938
X1.8454Y2.0938
X1.855Y0.0988
X1.9125Y1.735
X1.9125Y0.6475
X1.9454Y2.1938
X1.9454Y2.0938
X1.955Y0.0988
X2.0125Y1.735
X2.0125Y0.6475
X2.0454Y2.1938
X2.0454Y2.0938
X2.1125Y1.735
X2.1125Y0.6475
X2.1454Y2.1938
X2.1454Y2.0938
X2.2125Y1.735
X2.2125Y0.6475
X2.245Y0.0988
X2.2454Y2.1938
X2.2454Y2.0938
X2.3125Y1.735
X2.3125Y0.6475
X2.345Y0.0988
X2.3454Y2.1938
X2.3454Y2.0938
X2.4125Y1.735
X2.4125Y0.6475
X2.445Y0.0988
X2.4454Y2.1938
X2.4454Y2.0938
X2.5125Y1.735
X2.5125Y0.6475
X2.545Y0.0988
X2.5454Y2.1938
X2.5454Y2.0938
X2.6125Y1.735
X2.6125Y0.6475
X2.625Y1.3238
X2.625Y1.2238
X2.645Y0.0988
X2.6454Y2.1938
X2.6454Y2.0938
X2.745Y0.0988
X2.7454Y2.1938
X2.7454Y2.0938
X2.845Y0.0988
X2.8454Y2.1938
X2.8454Y2.0938
X2.8539Y1.5754
X2.8539Y1.4754
X2.8539Y1.3754
X2.8539Y1.2754
X2.945Y0.0988
X2.9454Y2.1938
X2.9454Y2.0938
X3.045Y0.0988
X3.0454Y2.1938
X3.0454Y2.0938
X3.145Y0.0988
X3.1454Y2.1938
X3.1454Y2.0938
X3.2254Y0.6938
X3.2254Y0.5938
X3.245Y0.0988
X3.2454Y2.1938
X3.2454Y2.0938
X3.3254Y0.6938
X3.3254Y0.5938
X3.345Y0.0988
X3.3454Y2.1938
X3.3454Y2.0938
X3.4254Y0.6938
X3.4254Y0.5938
X3.445Y0.0988
X3.4454Y2.1938
X3.4454Y2.0938
X3.5254Y0.6938
X3.5254Y0.5938
X3.545Y0.0988
X3.5454Y2.1938
X3.5454Y2.0938
X3.5539Y1.6754
X3.5539Y1.5754
X3.5539Y1.4754
X3.5539Y1.3754
X3.5539Y1.2754
X3.5539Y1.1754
T3
X1.5554Y1.5938
T4
X0.6004Y0.9588
T5
X0.1969Y2.1654
X0.1969Y0.3937
X2.9039Y1.8504
X2.9039Y1.0004
X3.5039Y1.8504
X3.5039Y1.0004
X3.5039Y0.3825
T6
X0.4504Y0.5488
X0.7457Y0.5488
T0
M30
